<svg id="레이어_1" data-name="레이어 1" xmlns="http://www.w3.org/2000/svg" viewBox="0 0 43 43"><defs><style>.cls-1{fill:#19307a;}.cls-2{fill:#fff;}.cls-3{fill:#ff0102;}</style></defs><title>호주</title><path class="cls-1" d="M1.32,32A16.87,16.87,0,0,0,4.53,37.6a15.21,15.21,0,0,0,6.23,4c2.45.85,5.1,1.25,10.26,1.36h1c5.16-.11,7.81-.51,10.26-1.36a15.21,15.21,0,0,0,6.23-4A16.87,16.87,0,0,0,41.68,32,28.25,28.25,0,0,0,43,24c0-1.07,0-1.22,0-2.48s0-1.41,0-2.48a28.25,28.25,0,0,0-1.29-8A16.87,16.87,0,0,0,38.47,5.4a15.21,15.21,0,0,0-6.23-4c-2.41-.83-5-1.24-10-1.35V19.07H0c0,1,0,1.18,0,2.42S0,22.91,0,24A28.25,28.25,0,0,0,1.32,32ZM27,15.8l1.18.43.4-1.19.4,1.19,1.19-.43-.69,1.06,1.08.65-1.26.12.16,1.25-.88-.9-.88.9.16-1.25-1.26-.12,1.08-.65ZM4,22.28l2.19.8.74-2.2.74,2.2,2.19-.8L8.6,24.23l2,1.21-2.33.22L8.57,28,6.94,26.3,5.31,28l.3-2.31-2.33-.22,2-1.21Z"/><polygon class="cls-2" points="5.61 25.66 5.31 27.97 6.94 26.3 8.57 27.97 8.27 25.66 10.6 25.44 8.6 24.23 9.87 22.28 7.68 23.08 6.94 20.88 6.2 23.08 4.01 22.28 5.28 24.23 3.29 25.44 5.61 25.66"/><polygon class="cls-2" points="27.82 17.63 27.66 18.88 28.54 17.98 29.42 18.88 29.26 17.63 30.52 17.51 29.44 16.86 30.13 15.8 28.94 16.23 28.54 15.04 28.14 16.23 26.95 15.8 27.64 16.86 26.56 17.51 27.82 17.63"/><polygon class="cls-1" points="22.2 17.07 22.2 11.75 14.08 11.75 22.2 17.07"/><path class="cls-1" d="M17.67.13a25.06,25.06,0,0,0-6.91,1.23A15.49,15.49,0,0,0,9.13,2V5.69Z"/><path class="cls-1" d="M4.8,5.12l-.27.28,0,.06.32.21Z"/><polygon class="cls-1" points="22.2 6.71 22.2 1.46 14.12 6.71 22.2 6.71"/><path class="cls-1" d="M4.8,12.77.29,15.7C.14,16.86.07,18,0,19v.06H4.8Z"/><polygon class="cls-1" points="9.13 19.08 18.73 19.08 9.13 12.78 9.13 19.08"/><polygon class="cls-2" points="9.13 11.75 9.13 12.78 18.73 19.08 22.2 19.08 22.2 19.07 11.14 11.75 9.13 11.75"/><polygon class="cls-2" points="13.13 11.75 22.2 17.75 22.2 17.07 14.08 11.75 13.13 11.75"/><path class="cls-2" d="M1.1,11.75c-.14.5-.27,1-.38,1.47L3,11.75Z"/><path class="cls-2" d="M4.8,11.88.43,14.72c0,.33-.1.66-.14,1L4.8,12.77Z"/><path class="cls-2" d="M14.12,6.71l8.09-5.25V0h-.94L11,6.71Z"/><path class="cls-2" d="M4.8,5.67l-.32-.21a13.26,13.26,0,0,0-1,1.25H4.8Z"/><path class="cls-2" d="M9.13,6.6l10-6.54-1.5.07L9.13,5.69Z"/><path class="cls-3" d="M4.8,11.75H3L.72,13.22c-.12.51-.21,1-.29,1.5L4.8,11.88Z"/><path class="cls-3" d="M9.13,6.71H11L21.27,0H21c-.65,0-1.27,0-1.85.06L9.13,6.6Z"/><polygon class="cls-3" points="11.14 11.75 22.2 19.07 22.2 17.75 13.13 11.75 11.14 11.75"/><path class="cls-2" d="M4.8,11.75v7.33h.86V10.72H1.44l-.12.3c-.08.25-.15.49-.22.73H4.8Z"/><path class="cls-2" d="M22.21,7.69v-1H9.13V2c-.28.13-.55.27-.82.42V7.69Z"/><polygon class="cls-2" points="8.31 19.08 9.13 19.08 9.13 12.78 9.13 11.75 11.14 11.75 13.13 11.75 14.08 11.75 22.2 11.75 22.2 10.72 8.31 10.72 8.31 19.08"/><path class="cls-2" d="M5.66,4.3c-.3.26-.58.54-.86.82V6.71H3.5c-.22.31-.43.64-.63,1H5.66Z"/><path class="cls-3" d="M5.66,19.08H8.31V10.72h13.9v-3H8.31V2.45A15.67,15.67,0,0,0,5.66,4.3V7.69H2.87a17.4,17.4,0,0,0-1.43,3H5.66Z"/></svg>