<svg id="레이어_1" data-name="레이어 1" xmlns="http://www.w3.org/2000/svg" viewBox="0 0 43 43"><defs><style>.cls-1{fill:#fff;}.cls-2{fill:#bc0030;}</style></defs><title>바레인</title><path class="cls-1" d="M10.88,35.05l11.6-4.63-11.6-4.64,11.6-4.64L10.88,16.5l11.6-4.63L10.88,7.23l11.6-4.64L16.54.22a22.84,22.84,0,0,0-5.78,1.14,15.21,15.21,0,0,0-6.23,4A16.92,16.92,0,0,0,1.32,11,28.13,28.13,0,0,0,0,19c0,1.07,0,1.22,0,2.48S0,22.91,0,24a28.07,28.07,0,0,0,1.29,8A16.82,16.82,0,0,0,4.53,37.6a15.21,15.21,0,0,0,6.23,4,20.79,20.79,0,0,0,4.37,1l7.35-2.94Z"/><path class="cls-2" d="M41.68,11A16.92,16.92,0,0,0,38.47,5.4a15.21,15.21,0,0,0-6.23-4C29.79.51,27.14.11,22,0H21c-1.75,0-3.21.11-4.48.22l5.94,2.37L10.88,7.23l11.6,4.64L10.88,16.5l11.6,4.64-11.6,4.64,11.6,4.64-11.6,4.63,11.6,4.64-7.35,2.94A56.2,56.2,0,0,0,21,43h1c5.16-.11,7.81-.51,10.26-1.36a15.21,15.21,0,0,0,6.23-4A16.82,16.82,0,0,0,41.68,32,28.07,28.07,0,0,0,43,24c0-1.07,0-1.22,0-2.48s0-1.41,0-2.48A28.13,28.13,0,0,0,41.68,11Z"/></svg>