<svg id="레이어_1" data-name="레이어 1" xmlns="http://www.w3.org/2000/svg" viewBox="0 0 43 43"><defs><style>.cls-1{fill:none;}.cls-2{fill:#fff;}.cls-3{fill:#ee312d;}</style></defs><title>캐나다</title><path class="cls-1" d="M35.28,37.91H7.72V40.2a15.38,15.38,0,0,0,3,1.44c2.45.85,5.1,1.25,10.26,1.36h1c5.16-.11,7.81-.51,10.26-1.36a15.65,15.65,0,0,0,3-1.44Z"/><path class="cls-1" d="M35.28,5.09V2.8a15.65,15.65,0,0,0-3-1.44C29.79.51,27.14.11,22,0H21c-5.16.11-7.81.51-10.26,1.36a15.38,15.38,0,0,0-3,1.44V5.09Z"/><path class="cls-2" d="M7.72,5.09V37.91H35.28V5.09ZM22.3,27h-.11a.49.49,0,0,0-.46.51L22,31.89H21l.23-4.41a.34.34,0,0,0,0-.1.48.48,0,0,0-.56-.4l-4.38.77.59-1.63a.33.33,0,0,0-.1-.37L12,21.86l1.08-.51a.33.33,0,0,0,.18-.4L12.31,18l2.77.59a.33.33,0,0,0,.37-.2L16,17.16l2.16,2.32a.36.36,0,0,0,.31.1.33.33,0,0,0,.26-.39l-1-5.37,1.67,1h0a.33.33,0,0,0,.44-.15l1.7-3.33,1.7,3.33v0a.34.34,0,0,0,.45.12l1.67-1-1,5.37a.31.31,0,0,0,.1.3.33.33,0,0,0,.47,0L27,17.16l.53,1.26a.33.33,0,0,0,.37.2L30.69,18l-1,2.92a.33.33,0,0,0,.18.4l1.08.51-4.81,3.89a.33.33,0,0,0-.1.37l.59,1.63Z"/><path class="cls-3" d="M35.28,37.91V40.2a14.51,14.51,0,0,0,3.19-2.6A16.92,16.92,0,0,0,41.68,32,28.13,28.13,0,0,0,43,24c0-1.07,0-1.22,0-2.48s0-1.41,0-2.48a28.13,28.13,0,0,0-1.29-8A16.92,16.92,0,0,0,38.47,5.4a14.51,14.51,0,0,0-3.19-2.6V37.91Z"/><path class="cls-3" d="M7.72,5.09V2.8A14.51,14.51,0,0,0,4.53,5.4,16.92,16.92,0,0,0,1.32,11,28.13,28.13,0,0,0,0,19c0,1.07,0,1.22,0,2.48S0,22.91,0,24a28.13,28.13,0,0,0,1.29,8A16.92,16.92,0,0,0,4.53,37.6a14.51,14.51,0,0,0,3.19,2.6V5.09Z"/><path class="cls-3" d="M26.19,25.75,31,21.86l-1.08-.51a.33.33,0,0,1-.18-.4l1-2.92-2.77.59a.33.33,0,0,1-.37-.2L27,17.16l-2.16,2.32a.33.33,0,0,1-.47,0,.31.31,0,0,1-.1-.3l1-5.37-1.67,1a.34.34,0,0,1-.45-.12v0l-1.7-3.33-1.7,3.33a.33.33,0,0,1-.44.15h0l-1.67-1,1,5.37a.33.33,0,0,1-.26.39.36.36,0,0,1-.31-.1L16,17.16l-.53,1.26a.33.33,0,0,1-.37.2L12.31,18,13.26,21a.33.33,0,0,1-.18.4L12,21.86l4.81,3.89a.33.33,0,0,1,.1.37l-.59,1.63L20.7,27a.48.48,0,0,1,.56.4.34.34,0,0,1,0,.1L21,31.89H22l-.23-4.41a.49.49,0,0,1,.46-.51h.11l4.38.77-.59-1.63A.33.33,0,0,1,26.19,25.75Z"/></svg>