<svg id="레이어_1" data-name="레이어 1" xmlns="http://www.w3.org/2000/svg" viewBox="0 0 43 43"><defs><style>.cls-1{fill:#e53226;}.cls-2{fill:#fddf2e;}</style></defs><title>중국</title><path class="cls-1" d="M41.68,11A16.87,16.87,0,0,0,38.47,5.4a15.21,15.21,0,0,0-6.23-4C29.79.51,27.14.11,22,0H21c-5.16.11-7.81.51-10.26,1.36a15.21,15.21,0,0,0-6.23,4A16.87,16.87,0,0,0,1.32,11,28.25,28.25,0,0,0,0,19c0,1.07,0,1.22,0,2.48S0,22.91,0,24a28.25,28.25,0,0,0,1.29,8A16.87,16.87,0,0,0,4.53,37.6a15.21,15.21,0,0,0,6.23,4c2.45.85,5.1,1.25,10.26,1.36h1c5.16-.11,7.81-.51,10.26-1.36a15.21,15.21,0,0,0,6.23-4A16.87,16.87,0,0,0,41.68,32,28.25,28.25,0,0,0,43,24c0-1.07,0-1.22,0-2.48s0-1.41,0-2.48A28.25,28.25,0,0,0,41.68,11ZM13,17.1,9.81,14.8,6.64,17.1l1.21-3.72-3.17-2.3H8.6L9.81,7.36,11,11.08h3.92l-3.17,2.3ZM17.44,6.18l1.21.51.85-1L19.39,7l1.2.51-1.27.3-.12,1.3L18.53,8l-1.27.29.86-1Zm1.9,14.18-.06,1.3-.72-1.09-1.26.35.81-1-.71-1.09,1.22.46.81-1-.06,1.3L20.6,20Zm2.45-9.73L21.6,9.34l.91.93,1.18-.57-.61,1.15.9.94-1.28-.23-.61,1.16-.19-1.29-1.28-.23Zm1.71,7.12L22.42,17l-1,.81.36-1.26-1.08-.73,1.3,0,.36-1.26.45,1.23,1.3,0-1,.81Z"/><polygon class="cls-2" points="11.02 11.08 9.81 7.36 8.6 11.08 4.68 11.08 7.85 13.38 6.64 17.1 9.81 14.8 12.98 17.1 11.77 13.38 14.94 11.08 11.02 11.08"/><polygon class="cls-2" points="22.78 15.77 22.33 14.54 21.97 15.8 20.67 15.84 21.75 16.57 21.39 17.83 22.42 17.02 23.5 17.75 23.05 16.52 24.08 15.72 22.78 15.77"/><polygon class="cls-2" points="22.09 12.72 22.7 11.56 23.98 11.79 23.08 10.85 23.69 9.7 22.51 10.27 21.6 9.34 21.79 10.63 20.61 11.2 21.9 11.43 22.09 12.72"/><polygon class="cls-2" points="18.53 7.99 19.2 9.11 19.32 7.81 20.59 7.51 19.39 7 19.5 5.7 18.65 6.69 17.44 6.18 18.12 7.3 17.26 8.28 18.53 7.99"/><polygon class="cls-2" points="19.43 18.25 18.62 19.27 17.4 18.81 18.11 19.9 17.3 20.92 18.56 20.57 19.27 21.66 19.34 20.36 20.6 20.01 19.37 19.55 19.43 18.25"/></svg>