<svg id="레이어_1" data-name="레이어 1" xmlns="http://www.w3.org/2000/svg" viewBox="0 0 43 43"><defs><style>.cls-1{fill:#ff1919;}.cls-2{fill:#fff;}</style></defs><title>데마크</title><path class="cls-1" d="M0,23.75V24a28.25,28.25,0,0,0,1.29,8A16.87,16.87,0,0,0,4.53,37.6a15.21,15.21,0,0,0,6.23,4l.12,0V23.75Z"/><path class="cls-1" d="M10.88,1.32l-.12,0a15.21,15.21,0,0,0-6.23,4A16.87,16.87,0,0,0,1.32,11,25.88,25.88,0,0,0,.1,17.74H10.88Z"/><path class="cls-1" d="M18.47,42.91c.78,0,1.62.07,2.55.09h1c5.16-.11,7.81-.51,10.26-1.36a15.21,15.21,0,0,0,6.23-4A16.87,16.87,0,0,0,41.68,32,28.25,28.25,0,0,0,43,24v-.23H18.47Z"/><path class="cls-1" d="M38.47,5.4a15.21,15.21,0,0,0-6.23-4C29.79.51,27.14.11,22,0H21c-.93,0-1.77.05-2.55.09V17.74H42.9A26.75,26.75,0,0,0,41.68,11,16.87,16.87,0,0,0,38.47,5.4Z"/><path class="cls-2" d="M18.47.09a26.51,26.51,0,0,0-7.59,1.23V17.74H.1c0,.44,0,.87-.07,1.28,0,1.07,0,1.22,0,2.48s0,1.39,0,2.25H10.88V41.68a26.51,26.51,0,0,0,7.59,1.23V23.75H43c0-.86,0-1.09,0-2.25s0-1.41,0-2.48c0-.41,0-.84-.07-1.28H18.47Z"/></svg>