<svg id="레이어_1" data-name="레이어 1" xmlns="http://www.w3.org/2000/svg" viewBox="0 0 43 43"><defs><style>.cls-1{fill:#039;}.cls-2{fill:#fc0;}</style></defs><title>유럽연합</title><path class="cls-1" d="M41.68,11A16.87,16.87,0,0,0,38.47,5.4a15.21,15.21,0,0,0-6.23-4C29.79.51,27.14.11,22,0H21c-5.16.11-7.81.51-10.26,1.36a15.21,15.21,0,0,0-6.23,4A16.87,16.87,0,0,0,1.32,11,28.25,28.25,0,0,0,0,19c0,1.07,0,1.22,0,2.48S0,22.91,0,24a28.25,28.25,0,0,0,1.29,8A16.87,16.87,0,0,0,4.53,37.6a15.21,15.21,0,0,0,6.23,4c2.45.85,5.1,1.25,10.26,1.36h1c5.16-.11,7.81-.51,10.26-1.36a15.21,15.21,0,0,0,6.23-4A16.87,16.87,0,0,0,41.68,32,28.25,28.25,0,0,0,43,24c0-1.07,0-1.22,0-2.48s0-1.41,0-2.48A28.25,28.25,0,0,0,41.68,11ZM34,13.46l.57-1.75.57,1.75H37l-1.49,1.08.57,1.75-1.49-1.08-1.49,1.08.57-1.75-1.49-1.08ZM4.32,20.91H6.16l.57-1.75.57,1.75H9.14L7.65,22l.57,1.76L6.73,22.66,5.24,23.75,5.81,22Zm5.33,8.54.57,1.75L8.73,30.11,7.24,31.2l.57-1.75L6.32,28.37H8.16l.57-1.75.57,1.75h1.84Zm0-14.91.57,1.75L8.73,15.21,7.24,16.29l.57-1.75L6.32,13.46H8.16l.57-1.75.57,1.75h1.84Zm6,22.11-1.49-1.08L12.7,36.65l.57-1.75-1.49-1.08h1.84l.57-1.75.57,1.75H16.6L15.11,34.9ZM15.11,9.09l.57,1.75L14.19,9.76,12.7,10.84l.57-1.75L11.78,8h1.84l.57-1.75L14.76,8H16.6Zm8,29.56-1.49-1.08-1.49,1.08.57-1.75-1.49-1.08h1.84l.57-1.75.57,1.75h1.84L22.57,36.9ZM22.57,7.09l.57,1.75L21.65,7.76,20.16,8.84l.57-1.75L19.24,6h1.84l.57-1.75L22.22,6h1.84Zm8,29.56L29.1,35.57l-1.49,1.08.57-1.75-1.49-1.08h1.84l.57-1.75.57,1.75h1.84L30,34.9ZM30,9.09l.57,1.75L29.1,9.76l-1.49,1.08.57-1.75L26.69,8h1.84l.57-1.75L29.67,8h1.84Zm6,22.11-1.49-1.09L33.07,31.2l.57-1.75-1.49-1.08H34l.57-1.75.57,1.75H37l-1.49,1.08ZM37.48,22l.57,1.76-1.49-1.09-1.49,1.09L35.64,22l-1.49-1.08H36l.57-1.75.57,1.75H39Z"/><polygon class="cls-2" points="21.65 4.26 21.08 6.01 19.23 6.01 20.73 7.09 20.16 8.84 21.65 7.76 23.14 8.84 22.57 7.09 24.06 6.01 22.22 6.01 21.65 4.26"/><polygon class="cls-2" points="22.22 35.82 21.65 34.07 21.08 35.82 19.23 35.82 20.73 36.9 20.16 38.65 21.65 37.57 23.14 38.65 22.57 36.9 24.06 35.82 22.22 35.82"/><polygon class="cls-2" points="29.1 6.26 28.53 8.01 26.69 8.01 28.18 9.09 27.61 10.84 29.1 9.76 30.59 10.84 30.02 9.09 31.51 8.01 29.67 8.01 29.1 6.26"/><polygon class="cls-2" points="36.56 19.16 35.99 20.91 34.15 20.91 35.64 22 35.07 23.75 36.56 22.66 38.05 23.75 37.48 22 38.97 20.91 37.13 20.91 36.56 19.16"/><polygon class="cls-2" points="35.13 28.37 34.56 26.61 33.99 28.37 32.15 28.37 33.64 29.45 33.07 31.2 34.56 30.11 36.05 31.2 35.48 29.45 36.97 28.37 35.13 28.37"/><polygon class="cls-2" points="29.67 33.82 29.1 32.07 28.53 33.82 26.69 33.82 28.18 34.9 27.61 36.65 29.1 35.57 30.59 36.65 30.02 34.9 31.51 33.82 29.67 33.82"/><polygon class="cls-2" points="14.76 33.82 14.19 32.07 13.62 33.82 11.78 33.82 13.27 34.9 12.7 36.65 14.19 35.57 15.68 36.65 15.11 34.9 16.6 33.82 14.76 33.82"/><polygon class="cls-2" points="8.73 26.61 8.16 28.37 6.32 28.37 7.81 29.45 7.24 31.2 8.73 30.11 10.22 31.2 9.65 29.45 11.14 28.37 9.3 28.37 8.73 26.61"/><polygon class="cls-2" points="6.73 22.66 8.22 23.75 7.65 22 9.14 20.91 7.3 20.91 6.73 19.16 6.16 20.91 4.32 20.91 5.81 22 5.24 23.75 6.73 22.66"/><polygon class="cls-2" points="8.73 11.71 8.16 13.46 6.32 13.46 7.81 14.54 7.24 16.29 8.73 15.21 10.22 16.29 9.65 14.54 11.14 13.46 9.3 13.46 8.73 11.71"/><polygon class="cls-2" points="14.19 6.26 13.62 8.01 11.78 8.01 13.27 9.09 12.7 10.84 14.19 9.76 15.68 10.84 15.11 9.09 16.6 8.01 14.76 8.01 14.19 6.26"/><polygon class="cls-2" points="33.07 16.29 34.56 15.21 36.05 16.29 35.48 14.54 36.97 13.46 35.13 13.46 34.56 11.71 33.99 13.46 32.15 13.46 33.64 14.54 33.07 16.29"/></svg>