<svg id="레이어_1" data-name="레이어 1" xmlns="http://www.w3.org/2000/svg" viewBox="0 0 43 43"><defs><style>.cls-1{fill:#ff0710;}.cls-2{fill:#fff;}</style></defs><title>홍콩</title><polygon class="cls-1" points="17.68 28.58 17.02 28.89 16.52 28.36 16.61 29.09 15.95 29.4 16.67 29.54 16.77 30.26 17.11 29.62 17.83 29.75 17.33 29.22 17.68 28.58"/><polygon class="cls-1" points="13.57 20.77 13.7 21.48 14.02 20.82 14.74 20.91 14.21 20.41 14.52 19.75 13.88 20.1 13.35 19.6 13.48 20.32 12.84 20.67 13.57 20.77"/><polygon class="cls-1" points="20.59 14.4 20.73 15.12 21.04 14.46 21.76 14.55 21.23 14.05 21.54 13.39 20.9 13.74 20.37 13.24 20.5 13.96 19.86 14.31 20.59 14.4"/><polygon class="cls-1" points="27.39 27.91 26.75 28.27 26.21 27.77 26.36 28.48 25.72 28.84 26.44 28.93 26.58 29.65 26.89 28.98 27.62 29.07 27.08 28.57 27.39 27.91"/><path class="cls-1" d="M41.68,11A16.92,16.92,0,0,0,38.47,5.4a15.21,15.21,0,0,0-6.23-4C29.79.51,27.14.11,22,0H21c-5.16.11-7.81.51-10.26,1.36a15.21,15.21,0,0,0-6.23,4A16.92,16.92,0,0,0,1.32,11,28.13,28.13,0,0,0,0,19c0,1.07,0,1.22,0,2.48S0,22.91,0,24a28.13,28.13,0,0,0,1.29,8A16.92,16.92,0,0,0,4.53,37.6a15.21,15.21,0,0,0,6.23,4c2.45.85,5.1,1.25,10.26,1.36h1c5.16-.11,7.81-.51,10.26-1.36a15.21,15.21,0,0,0,6.23-4A16.92,16.92,0,0,0,41.68,32,28.13,28.13,0,0,0,43,24c0-1.07,0-1.22,0-2.48s0-1.41,0-2.48A28.13,28.13,0,0,0,41.68,11Zm-24,2.66A6.53,6.53,0,0,1,24.4,9.38a2.83,2.83,0,0,0-1,1,1.63,1.63,0,0,0-.22,1.49,14.16,14.16,0,0,1,.82,2C24.79,16.14,21.5,18,21.5,18c-1.52,1.09-1,2.92-.76,3.61a4.81,4.81,0,0,1-.54-6.19L20,15.27s-2.41,2.77.37,6.33C16,19,17.68,13.69,17.68,13.69Zm-7.25,2a2.76,2.76,0,0,0,.64,1.27,1.63,1.63,0,0,0,1.35.67,14.36,14.36,0,0,1,2.17-.15c2.38-.07,3.1,3.63,3.1,3.63.56,1.78,2.46,1.87,3.19,1.83a4.81,4.81,0,0,1-6-1.39l-.16.12s1.89,3.15,6.13,1.6c-3.84,3.41-8.36.14-8.36.14A6.51,6.51,0,0,1,10.43,15.64Zm8.69,16a6.51,6.51,0,0,1-7.92-.94,2.82,2.82,0,0,0,1.42-.14,1.62,1.62,0,0,0,1.11-1,14.38,14.38,0,0,1,.65-2.08c.8-2.24,4.51-1.57,4.51-1.57,1.86.13,2.64-1.61,2.87-2.3a4.82,4.82,0,0,1-3.5,5.13l0,.19s3.62-.62,3.72-5.13C23.81,28.59,19.12,31.62,19.12,31.62Zm7.52,2.95a2.84,2.84,0,0,0,.22-1.41,1.63,1.63,0,0,0-.7-1.33,14.1,14.1,0,0,1-1.85-1.15c-2-1.33-.41-4.75-.41-4.75.59-1.78-.9-3-1.52-3.36a4.82,4.82,0,0,1,4.1,4.67h.2s.3-3.67-4-4.88c5.11-.53,6.87,4.76,6.87,4.76A6.51,6.51,0,0,1,26.64,34.57ZM33.3,20.49a1.63,1.63,0,0,0-1.48.21,13.74,13.74,0,0,1-1.71,1.37c-1.91,1.41-4.61-1.22-4.61-1.22-1.47-1.14-3.08-.13-3.66.31a4.81,4.81,0,0,1,5.76-2.3l.07-.19s-3.35-1.51-6,2.18c1.22-5,6.8-4.88,6.8-4.88a6.52,6.52,0,0,1,6.05,5.2A2.8,2.8,0,0,0,33.3,20.49Z"/><polygon class="cls-1" points="29.71 18.41 29.06 18.75 28.54 18.23 28.66 18.95 28.01 19.29 28.73 19.4 28.85 20.12 29.18 19.46 29.9 19.57 29.38 19.06 29.71 18.41"/><path class="cls-2" d="M22.64,22.36c4.34,1.21,4,4.88,4,4.88h-.2a4.82,4.82,0,0,0-4.1-4.67c.62.4,2.11,1.58,1.52,3.36,0,0-1.57,3.42.41,4.75a14.1,14.1,0,0,0,1.85,1.15,1.63,1.63,0,0,1,.7,1.33,2.84,2.84,0,0,1-.22,1.41,6.51,6.51,0,0,0,2.87-7.45S27.75,21.83,22.64,22.36ZM26.89,29l-.31.67-.14-.72-.72-.09.64-.36-.15-.71.54.49.64-.35-.31.66.54.5Z"/><path class="cls-2" d="M18.31,28.9l0-.19a4.82,4.82,0,0,0,3.5-5.13c-.23.69-1,2.43-2.87,2.3,0,0-3.71-.67-4.51,1.57a14.38,14.38,0,0,0-.65,2.08,1.62,1.62,0,0,1-1.11,1,2.82,2.82,0,0,1-1.42.14,6.51,6.51,0,0,0,7.92.94s4.69-3,2.91-7.85C21.93,28.28,18.31,28.9,18.31,28.9Zm-1.2.72-.35.64-.09-.72L16,29.4l.66-.31-.09-.73.5.53.66-.31-.35.64.5.53Z"/><path class="cls-2" d="M12.44,23.36s4.52,3.27,8.36-.14c-4.24,1.55-6.13-1.6-6.13-1.6l.16-.12a4.81,4.81,0,0,0,6,1.39c-.73,0-2.63-.05-3.19-1.83,0,0-.72-3.7-3.1-3.63a14.36,14.36,0,0,0-2.17.15,1.63,1.63,0,0,1-1.35-.67,2.76,2.76,0,0,1-.64-1.27A6.51,6.51,0,0,0,12.44,23.36Zm.91-3.76.53.5.64-.35-.31.66.53.5L14,20.82l-.32.66-.13-.72-.73-.09.64-.35Z"/><path class="cls-2" d="M20.41,21.6C17.63,18,20,15.27,20,15.27l.16.12a4.81,4.81,0,0,0,.54,6.19c-.26-.69-.76-2.52.76-3.61,0,0,3.29-1.83,2.49-4.07a14.16,14.16,0,0,0-.82-2,1.63,1.63,0,0,1,.22-1.49,2.83,2.83,0,0,1,1-1,6.53,6.53,0,0,0-6.72,4.31S16,19,20.41,21.6Zm0-8.36.53.5.64-.35-.31.66.53.5L21,14.46l-.31.66-.14-.72-.73-.09L20.5,14Z"/><path class="cls-2" d="M28.51,16s-5.58-.12-6.8,4.88c2.61-3.69,6-2.18,6-2.18l-.07.19a4.81,4.81,0,0,0-5.76,2.3c.58-.44,2.19-1.45,3.66-.31,0,0,2.7,2.63,4.61,1.22a13.74,13.74,0,0,0,1.71-1.37,1.63,1.63,0,0,1,1.48-.21,2.8,2.8,0,0,1,1.26.68A6.52,6.52,0,0,0,28.51,16Zm.67,3.49-.33.66-.12-.72L28,19.29l.65-.34-.12-.72.52.51.65-.33-.33.65.52.51Z"/></svg>