<svg id="레이어_1" data-name="레이어 1" xmlns="http://www.w3.org/2000/svg" viewBox="0 0 43 43"><defs><style>.cls-1{fill:#fff;}.cls-2{fill:#23ae49;}.cls-3{fill:#f89c4d;}.cls-4{fill:#271d70;}</style></defs><title>인도</title><path class="cls-1" d="M22.35,21.73a1,1,0,0,1,0,.17l1,.29,2.82,1.35c.05-.13.11-.26.15-.4a.24.24,0,0,1-.16-.3.25.25,0,0,1,.29-.18c0-.14,0-.29.07-.43L23.39,22Z"/><path class="cls-1" d="M22.37,21.46c0,.06,0,.11,0,.17h1.07l3.08.59c0-.14,0-.28,0-.43a.25.25,0,0,1-.24-.25.26.26,0,0,1,.23-.25c0-.15,0-.29,0-.43l-3.1.58Z"/><path class="cls-1" d="M22.12,22.22a.63.63,0,0,1-.12.11l.75.77,1.76,2.59c.12-.09.24-.17.34-.26a.26.26,0,0,1,0-.36.26.26,0,0,1,.34,0c.09-.11.21-.21.29-.32L22.89,23Z"/><path class="cls-1" d="M22.26,22a1,1,0,0,1-.07.15l.91.54,2.39,2.06a3.73,3.73,0,0,0,.23-.37.25.25,0,0,1-.07-.33.26.26,0,0,1,.34-.1c.07-.12.11-.26.17-.39l-3-1Z"/><path class="cls-1" d="M21.77,20.62l.15.07.54-.92,2.06-2.38L22.75,20l-.75.77a.68.68,0,0,1,.12.12l.77-.75,2.58-1.76a3,3,0,0,0-.25-.34.27.27,0,0,1-.36,0,.26.26,0,0,1,0-.35,4.89,4.89,0,0,0-.68-.52.26.26,0,0,1-.34.07.25.25,0,0,1-.09-.34c-.13-.07-.27-.11-.4-.17l-1,3Z"/><path class="cls-1" d="M21.52,20.53l.16,0,.29-1,1.36-2.82c-.13,0-.26-.11-.4-.15a.26.26,0,0,1-.31.16.25.25,0,0,1-.18-.29L22,16.37l-.23,3.12Z"/><path class="cls-1" d="M22.3,21.2a.75.75,0,0,1,.05.16l1-.27,3.14-.22c0-.15-.07-.29-.1-.43a.26.26,0,0,1-.28-.18.25.25,0,0,1,.17-.31c-.05-.14-.11-.27-.16-.4l-2.82,1.36Z"/><path class="cls-1" d="M22.18,21a.67.67,0,0,1,.09.14l.93-.52,3-1q-.09-.21-.18-.39a.27.27,0,0,1-.33-.1.26.26,0,0,1,.08-.34l-.25-.35-2.38,2Z"/><path class="cls-1" d="M20.89,22.48a.71.71,0,0,1-.15-.08l-.54.92-2.06,2.39,1.77-2.61.74-.76-.11-.13-.77.76-2.59,1.76.26.34a.25.25,0,0,1,.36,0,.25.25,0,0,1,0,.34,5,5,0,0,0,.68.53.28.28,0,0,1,.34-.08.26.26,0,0,1,.09.35l.4.16,1-2.95Z"/><path class="cls-1" d="M20.36,21.89a.75.75,0,0,1-.05-.16l-1,.27-3.14.23a3.34,3.34,0,0,0,.1.43.24.24,0,0,1,.28.18.25.25,0,0,1-.17.31c.05.13.1.26.16.39l2.82-1.35Z"/><path class="cls-1" d="M20.48,22.14a1.19,1.19,0,0,1-.09-.15l-.93.53-3,1c.06.13.11.26.18.39a.25.25,0,0,1,.25.44l.25.35,2.37-2.05Z"/><path class="cls-1" d="M21.25,20.51h.16V19.45L22,16.37l-.43-.05a.25.25,0,0,1-.25.24.26.26,0,0,1-.25-.23c-.15,0-.29,0-.44,0l.59,3.1Z"/><path class="cls-1" d="M21.68,22.52l-.16.05.26,1L22,26.75c.15,0,.29-.07.43-.1a.25.25,0,0,1,.49-.12,2.78,2.78,0,0,0,.4-.16L22,23.55Z"/><path class="cls-1" d="M21.92,22.4a.71.71,0,0,1-.15.08l.53.94,1,2.95a2.76,2.76,0,0,0,.39-.18.27.27,0,0,1,.1-.33.26.26,0,0,1,.34.08,2.8,2.8,0,0,0,.35-.25l-2.05-2.37Z"/><path class="cls-1" d="M21.14,22.57,21,22.52l-.29,1-1.36,2.82.4.16a.25.25,0,0,1,.49.12l.43.08.23-3.13Z"/><path class="cls-1" d="M21.41,22.59l-.16,0,0,1.08-.58,3.08a3,3,0,0,0,.42,0,.26.26,0,0,1,.26-.24.26.26,0,0,1,.25.23c.14,0,.29,0,.43,0l-.59-3.1Z"/><path class="cls-1" d="M20.54,20.87a1.31,1.31,0,0,1,.12-.11L19.91,20,18.15,17.4a3.1,3.1,0,0,0-.34.27.26.26,0,0,1,0,.36.26.26,0,0,1-.34,0c-.09.1-.21.2-.29.31l2.6,1.78Z"/><path class="cls-1" d="M20.4,21.11a.69.69,0,0,1,.07-.15l-.92-.55-2.38-2.06a3.73,3.73,0,0,0-.23.37.26.26,0,0,1,.07.34.25.25,0,0,1-.34.09c-.07.13-.11.27-.17.4l3,1Z"/><path class="cls-1" d="M21,20.58l.16,0-.26-1-.24-3.14c-.14,0-.28.07-.42.1a.24.24,0,0,1-.18.28.25.25,0,0,1-.31-.17l-.4.16,1.36,2.82Z"/><path class="cls-1" d="M20.31,21.36a.75.75,0,0,1,0-.16l-1-.29L16.5,19.55c-.05.13-.11.26-.15.4a.26.26,0,0,1,.16.31.25.25,0,0,1-.29.18,3,3,0,0,0-.07.43l3.12.22Z"/><path class="cls-1" d="M20.74,20.69l.15-.08-.53-.93-1-3-.39.18a.26.26,0,0,1-.1.33.26.26,0,0,1-.34-.08l-.35.25,2.05,2.37Z"/><path class="cls-1" d="M0,19c0,1.07,0,1.22,0,2.48S0,22.91,0,24A32.88,32.88,0,0,0,.56,29H42.44A32.88,32.88,0,0,0,43,24c0-1.07,0-1.22,0-2.48s0-1.41,0-2.48a31.71,31.71,0,0,0-.52-5H.55A31.71,31.71,0,0,0,0,19Zm20.52-3.41a6,6,0,1,1-5.17,6.72A6,6,0,0,1,20.55,15.61Z"/><path class="cls-1" d="M16.34,21.55a.26.26,0,0,1-.23.25c0,.14,0,.28,0,.43l3.1-.59h1.06c0-.06,0-.11,0-.17H19.23l-3.08-.58a3,3,0,0,0,0,.42A.26.26,0,0,1,16.34,21.55Z"/><path class="cls-2" d="M1.32,32A16.82,16.82,0,0,0,4.53,37.6a15.21,15.21,0,0,0,6.23,4c2.45.85,5.1,1.25,10.26,1.36h1c5.16-.11,7.81-.51,10.26-1.36a15.21,15.21,0,0,0,6.23-4A16.82,16.82,0,0,0,41.68,32,24.85,24.85,0,0,0,42.44,29H.56A24.85,24.85,0,0,0,1.32,32Z"/><path class="cls-3" d="M38.47,5.4a15.21,15.21,0,0,0-6.23-4C29.79.51,27.14.11,22,0H21c-5.16.11-7.81.51-10.26,1.36a15.21,15.21,0,0,0-6.23,4A16.87,16.87,0,0,0,1.32,11a23.24,23.24,0,0,0-.77,3h41.9a23.24,23.24,0,0,0-.77-3A16.87,16.87,0,0,0,38.47,5.4Z"/><path class="cls-4" d="M15.38,22.33a6,6,0,1,0,5.17-6.72A6,6,0,0,0,15.38,22.33Zm.7-1h0a3,3,0,0,1,0-.42h0a3,3,0,0,1,.07-.43h0a.25.25,0,0,1-.18-.32.27.27,0,0,1,.32-.19s0,0,0,0,.1-.27.15-.4h0c.06-.13.1-.27.17-.4s0,0,0,0a.27.27,0,0,1-.09-.36.26.26,0,0,1,.36-.09s0,0,0,0a3.73,3.73,0,0,1,.23-.37h0c.08-.11.2-.21.29-.31h0a.28.28,0,0,1,0-.38.27.27,0,0,1,.37,0v0a3.1,3.1,0,0,1,.34-.27h0l.35-.25h0a.27.27,0,0,1,.09-.36.26.26,0,0,1,.36.1s0,0,0,0l.39-.18v0l.4-.16h0a.26.26,0,0,1,.18-.32.25.25,0,0,1,.32.18s0,0,0,0,.28-.08.42-.1.29,0,.44,0,0,0,0,0a.26.26,0,0,1,.52,0v0l.43.05v0l.43.07s0,0,0,0a.27.27,0,0,1,.33-.18.26.26,0,0,1,.18.32s0,0,0,0,.27.1.4.15v0c.13.06.27.1.4.17h0a.25.25,0,0,1,.35-.1.26.26,0,0,1,.1.36s0,0,0,0a4.89,4.89,0,0,1,.68.52l0,0a.27.27,0,0,1,.37,0,.28.28,0,0,1,0,.38h0a3,3,0,0,1,.25.34l0,0v0l.25.35a0,0,0,0,0,0,0,.26.26,0,0,1,.27.45h0q.09.18.18.39h0c.05.13.11.26.16.4v0a.27.27,0,0,1,.32.19.25.25,0,0,1-.18.32h0c0,.14.08.28.1.43s0,.28,0,.43h0a.26.26,0,0,1,.26.26.26.26,0,0,1-.26.26h0c0,.15,0,.29,0,.43h0c0,.14,0,.29-.07.43h0a.26.26,0,0,1-.14.51s0,0,0,0-.1.27-.15.4h0c-.06.13-.1.27-.17.39h0a.27.27,0,0,1-.27.46l0,0a3.73,3.73,0,0,1-.23.37h0c-.08.11-.2.21-.29.32h0a.26.26,0,1,1-.37.37h0c-.1.09-.22.17-.34.26v0a2.8,2.8,0,0,1-.35.25s0,0,0,0a.27.27,0,0,1-.1.36.25.25,0,0,1-.35-.1s0,0,0,0a2.76,2.76,0,0,1-.39.18v0a2.78,2.78,0,0,1-.4.16s0,0,0,0a.26.26,0,0,1-.18.32.28.28,0,0,1-.33-.19s0,0,0,0-.28.08-.43.1-.29,0-.43,0v0a.26.26,0,1,1-.52,0v0a3,3,0,0,1-.42,0v0l-.43-.08s0,0,0,0a.27.27,0,0,1-.32.19.26.26,0,0,1-.18-.32,0,0,0,0,1,0,0l-.4-.16v0l-.4-.16h0a.26.26,0,0,1-.36.1.27.27,0,0,1-.09-.36s0,0,0,0a5,5,0,0,1-.68-.53l0,0a.26.26,0,0,1-.37-.37h0l-.26-.34h0l-.25-.35s0,0,0,0a.26.26,0,0,1-.36-.1.27.27,0,0,1,.09-.36h0c-.07-.13-.12-.26-.18-.39h0c-.06-.13-.11-.26-.16-.39a0,0,0,0,0,0,0,.26.26,0,0,1-.14-.51h0a3.34,3.34,0,0,1-.1-.43c0-.15,0-.29,0-.43h0a.26.26,0,0,1-.26-.26A.26.26,0,0,1,16.08,21.29Z"/><path class="cls-4" d="M20.31,21.73a.75.75,0,0,0,.05.16l.42-.11-.39.21a1.19,1.19,0,0,0,.09.15l.37-.23-.31.3.11.13L21,22l-.22.38a.71.71,0,0,0,.15.08l.21-.38-.12.42.16.05.11-.43v.43l.16,0v-.45l.11.43.16-.05-.12-.42.21.38a.71.71,0,0,0,.15-.08L21.69,22l.31.31a.63.63,0,0,0,.12-.11l-.31-.31.38.23a1,1,0,0,0,.07-.15l-.38-.21.43.12a1,1,0,0,0,0-.17l-.43-.11h.44c0-.06,0-.11,0-.17h-.45l.43-.11a.75.75,0,0,0-.05-.16l-.42.12.39-.22a.67.67,0,0,0-.09-.14l-.37.22.31-.3a.68.68,0,0,0-.12-.12l-.31.31.23-.38-.15-.07-.21.37.12-.42-.16,0-.11.42v-.43h-.16V21l-.11-.42-.16,0,.12.41-.21-.38-.15.08.22.38-.3-.31a1.31,1.31,0,0,0-.12.11l.31.31L20.47,21a.69.69,0,0,0-.07.15l.38.21-.43-.12a.75.75,0,0,0,0,.16l.43.11H20.3c0,.06,0,.11,0,.17h.45Z"/><polygon class="cls-4" points="21.14 20.52 21.25 20.95 21.25 20.51 21.23 19.45 20.64 16.35 20.88 19.49 21.14 20.52"/><polygon class="cls-4" points="21.52 22.57 21.41 22.14 21.41 22.59 21.43 23.65 22.01 26.75 21.78 23.6 21.52 22.57"/><polygon class="cls-4" points="20.89 20.61 21.1 20.99 20.98 20.58 20.69 19.54 19.33 16.72 19.32 16.7 19.33 16.72 20.36 19.68 20.89 20.61"/><polygon class="cls-4" points="21.77 22.48 21.56 22.1 21.68 22.52 21.97 23.55 23.33 26.37 23.34 26.39 23.33 26.37 22.3 23.42 21.77 22.48"/><polygon class="cls-4" points="20.66 20.76 20.96 21.07 20.74 20.69 20.2 19.77 18.15 17.4 18.14 17.39 18.15 17.41 19.91 19.99 20.66 20.76"/><polygon class="cls-4" points="22 22.33 21.69 22.02 21.92 22.4 22.46 23.32 24.51 25.69 24.52 25.71 24.51 25.69 22.75 23.1 22 22.33"/><polygon class="cls-4" points="20.35 21.2 20.78 21.32 20.4 21.11 19.46 20.58 16.5 19.55 16.48 19.54 16.5 19.55 19.32 20.91 20.35 21.2"/><polygon class="cls-4" points="22.31 21.9 21.89 21.78 22.26 21.99 23.2 22.52 26.16 23.55 26.18 23.55 26.16 23.54 23.34 22.18 22.31 21.9"/><polygon class="cls-4" points="20.3 21.46 20.73 21.47 20.31 21.36 19.27 21.09 16.15 20.87 16.13 20.86 16.15 20.87 19.23 21.45 20.3 21.46"/><polygon class="cls-4" points="22.36 21.63 21.92 21.62 22.35 21.73 23.39 22 26.51 22.23 26.53 22.23 26.51 22.23 23.43 21.64 22.36 21.63"/><polygon class="cls-4" points="20.39 21.99 20.78 21.78 20.36 21.89 19.32 22.18 16.5 23.55 16.48 23.55 16.5 23.55 19.46 22.52 20.39 21.99"/><polygon class="cls-4" points="22.27 21.1 21.89 21.32 22.3 21.2 23.34 20.91 26.16 19.55 26.18 19.54 26.16 19.55 23.2 20.58 22.27 21.1"/><polygon class="cls-4" points="20.55 22.21 20.85 21.91 20.48 22.14 19.55 22.68 17.18 24.73 17.17 24.74 17.18 24.73 19.77 22.97 20.55 22.21"/><polygon class="cls-4" points="22.11 20.88 21.81 21.18 22.18 20.96 23.11 20.41 25.48 18.37 25.49 18.35 25.48 18.37 22.89 20.13 22.11 20.88"/><polygon class="cls-4" points="20.98 22.52 21.1 22.1 20.89 22.48 20.36 23.42 19.33 26.37 19.32 26.39 19.33 26.37 20.69 23.55 20.98 22.52"/><polygon class="cls-4" points="21.68 20.57 21.56 20.99 21.77 20.62 22.3 19.68 23.33 16.72 23.34 16.7 23.33 16.72 21.97 19.54 21.68 20.57"/><polygon class="cls-4" points="21.25 22.57 21.25 22.14 21.14 22.57 20.88 23.6 20.65 26.73 20.64 26.75 20.65 26.73 21.23 23.65 21.25 22.57"/><polygon class="cls-4" points="21.41 20.52 21.41 20.95 21.52 20.53 21.78 19.49 22.01 16.37 22.01 16.35 22.01 16.37 21.43 19.45 21.41 20.52"/><polygon class="cls-4" points="22.35 21.36 21.92 21.47 22.37 21.46 23.43 21.45 26.53 20.86 23.39 21.09 22.35 21.36"/><polygon class="cls-4" points="20.31 21.73 20.73 21.62 20.29 21.63 19.23 21.64 16.13 22.23 19.27 22 20.31 21.73"/><polygon class="cls-4" points="22.19 22.14 21.81 21.91 22.12 22.22 22.89 22.97 25.49 24.74 25.49 24.74 25.49 24.74 23.11 22.68 22.19 22.14"/><polygon class="cls-4" points="20.47 20.96 20.85 21.18 20.54 20.87 19.77 20.13 17.17 18.35 17.17 18.35 17.17 18.35 19.55 20.41 20.47 20.96"/><polygon class="cls-4" points="20.66 22.34 19.91 23.1 18.14 25.71 20.2 23.32 20.74 22.4 20.96 22.02 20.66 22.34"/><polygon class="cls-4" points="22 20.76 22.75 19.99 24.52 17.39 22.46 19.77 21.92 20.69 21.69 21.07 22 20.76"/><path class="cls-4" d="M20,16.73a.24.24,0,0,0,.18-.28s0,0,0,0a.25.25,0,0,0-.32-.18.26.26,0,0,0-.18.32h0A.25.25,0,0,0,20,16.73Z"/><path class="cls-4" d="M22.62,26.36a.25.25,0,0,0-.18.29s0,0,0,0a.28.28,0,0,0,.33.19.26.26,0,0,0,.18-.32s0,0,0,0A.25.25,0,0,0,22.62,26.36Z"/><path class="cls-4" d="M18.84,17.23a.26.26,0,0,0,.1-.33s0,0,0,0a.26.26,0,0,0-.36-.1.27.27,0,0,0-.09.36h0A.26.26,0,0,0,18.84,17.23Z"/><path class="cls-4" d="M23.82,25.86a.27.27,0,0,0-.1.33s0,0,0,0a.25.25,0,0,0,.35.1.27.27,0,0,0,.1-.36s0,0,0,0A.26.26,0,0,0,23.82,25.86Z"/><path class="cls-4" d="M17.8,18a.26.26,0,0,0,0-.36v0a.27.27,0,0,0-.37,0,.28.28,0,0,0,0,.38h0A.26.26,0,0,0,17.8,18Z"/><path class="cls-4" d="M24.86,25.07a.26.26,0,0,0,0,.36h0a.26.26,0,1,0,.37-.37h0A.26.26,0,0,0,24.86,25.07Z"/><path class="cls-4" d="M17,19.06a.26.26,0,0,0-.07-.34s0,0,0,0a.26.26,0,0,0-.36.09.27.27,0,0,0,.09.36s0,0,0,0A.25.25,0,0,0,17,19.06Z"/><path class="cls-4" d="M25.65,24a.25.25,0,0,0,.07.33l0,0a.27.27,0,0,0,.27-.46h0A.26.26,0,0,0,25.65,24Z"/><path class="cls-4" d="M16.51,20.26a.26.26,0,0,0-.16-.31s0,0,0,0a.27.27,0,0,0-.32.19.25.25,0,0,0,.18.32h0A.25.25,0,0,0,16.51,20.26Z"/><path class="cls-4" d="M26.15,22.84a.24.24,0,0,0,.16.3s0,0,0,0a.26.26,0,0,0,.14-.51h0A.25.25,0,0,0,26.15,22.84Z"/><path class="cls-4" d="M16.08,21.81h0a.26.26,0,0,0,.23-.25.26.26,0,0,0-.24-.26h0a.26.26,0,0,0-.26.26A.26.26,0,0,0,16.08,21.81Z"/><path class="cls-4" d="M26.32,21.55a.25.25,0,0,0,.24.25h0a.26.26,0,0,0,.26-.26.26.26,0,0,0-.26-.26h0A.26.26,0,0,0,26.32,21.55Z"/><path class="cls-4" d="M16.51,22.84a.24.24,0,0,0-.28-.18h0a.26.26,0,0,0,.14.51,0,0,0,0,1,0,0A.25.25,0,0,0,16.51,22.84Z"/><path class="cls-4" d="M26.15,20.26a.26.26,0,0,0,.28.18h0a.25.25,0,0,0,.18-.32.27.27,0,0,0-.32-.19v0A.25.25,0,0,0,26.15,20.26Z"/><path class="cls-4" d="M17,24a.26.26,0,0,0-.33-.1h0a.27.27,0,0,0-.09.36.26.26,0,0,0,.36.1s0,0,0,0A.26.26,0,0,0,17,24Z"/><path class="cls-4" d="M25.65,19.06a.27.27,0,0,0,.33.1h0a.26.26,0,0,0-.27-.45,0,0,0,0,1,0,0A.26.26,0,0,0,25.65,19.06Z"/><path class="cls-4" d="M17.8,25.07a.25.25,0,0,0-.36,0h0a.26.26,0,0,0,.37.37l0,0A.25.25,0,0,0,17.8,25.07Z"/><path class="cls-4" d="M24.86,18a.27.27,0,0,0,.36,0h0a.28.28,0,0,0,0-.38.27.27,0,0,0-.37,0l0,0A.26.26,0,0,0,24.86,18Z"/><path class="cls-4" d="M18.84,25.86a.28.28,0,0,0-.34.08s0,0,0,0a.27.27,0,0,0,.09.36.26.26,0,0,0,.36-.1h0A.26.26,0,0,0,18.84,25.86Z"/><path class="cls-4" d="M23.82,17.23a.26.26,0,0,0,.34-.07s0,0,0,0a.26.26,0,0,0-.1-.36.25.25,0,0,0-.35.1h0A.25.25,0,0,0,23.82,17.23Z"/><path class="cls-4" d="M20,26.36a.26.26,0,0,0-.31.17,0,0,0,0,0,0,0,.26.26,0,0,0,.18.32.27.27,0,0,0,.32-.19s0,0,0,0A.25.25,0,0,0,20,26.36Z"/><path class="cls-4" d="M22.62,16.73a.26.26,0,0,0,.31-.16s0,0,0,0a.26.26,0,0,0-.18-.32.27.27,0,0,0-.33.18s0,0,0,0A.25.25,0,0,0,22.62,16.73Z"/><path class="cls-4" d="M21.33,26.53a.26.26,0,0,0-.26.24v0a.26.26,0,1,0,.52,0v0A.26.26,0,0,0,21.33,26.53Z"/><path class="cls-4" d="M21.33,16.56a.25.25,0,0,0,.25-.24v0a.26.26,0,0,0-.52,0s0,0,0,0A.26.26,0,0,0,21.33,16.56Z"/></svg>