<svg id="레이어_1" data-name="레이어 1" xmlns="http://www.w3.org/2000/svg" viewBox="0 0 43 43"><defs><style>.cls-1{fill:#fff;}.cls-2{fill:#ed1b2f;}</style></defs><title>일본</title><path class="cls-1" d="M41.68,11A16.87,16.87,0,0,0,38.47,5.4a15.21,15.21,0,0,0-6.23-4C29.79.51,27.14.11,22,0H21c-5.16.11-7.81.51-10.26,1.36a15.21,15.21,0,0,0-6.23,4A16.87,16.87,0,0,0,1.32,11,28.25,28.25,0,0,0,0,19c0,1.07,0,1.22,0,2.48S0,22.91,0,24a28.25,28.25,0,0,0,1.29,8A16.87,16.87,0,0,0,4.53,37.6a15.21,15.21,0,0,0,6.23,4c2.45.85,5.1,1.25,10.26,1.36h1c5.16-.11,7.81-.51,10.26-1.36a15.21,15.21,0,0,0,6.23-4A16.87,16.87,0,0,0,41.68,32,28.25,28.25,0,0,0,43,24c0-1.07,0-1.22,0-2.48s0-1.41,0-2.48A28.25,28.25,0,0,0,41.68,11ZM21.5,32.81a11,11,0,1,1,11-11A11.05,11.05,0,0,1,21.5,32.81Z"/><path class="cls-2" d="M21.5,10.72a11,11,0,1,0,11,11A11,11,0,0,0,21.5,10.72Z"/></svg>