<svg id="레이어_1" data-name="레이어 1" xmlns="http://www.w3.org/2000/svg" viewBox="0 0 43 43"><defs><style>.cls-1{fill:#419976;}.cls-2{fill:#fff;}.cls-3{fill:#bc0030;}</style></defs><title>쿠웨이트</title><path class="cls-1" d="M38.47,5.4a15.21,15.21,0,0,0-6.23-4C29.79.51,27.14.11,22,0H21c-5.16.11-7.81.51-10.26,1.36a15.21,15.21,0,0,0-6.23,4A15,15,0,0,0,2.69,8l8.58,5.72H42.38a23.58,23.58,0,0,0-.7-2.68A16.92,16.92,0,0,0,38.47,5.4Z"/><path class="cls-2" d="M11.27,29.21H42.4A32.94,32.94,0,0,0,43,24c0-1.07,0-1.22,0-2.48s0-1.41,0-2.48a31.91,31.91,0,0,0-.59-5.31H11.27Z"/><path class="cls-3" d="M2.66,35A15,15,0,0,0,4.53,37.6a15.21,15.21,0,0,0,6.23,4c2.45.85,5.1,1.25,10.26,1.36h1c5.16-.11,7.81-.51,10.26-1.36a15.21,15.21,0,0,0,6.23-4A16.82,16.82,0,0,0,41.68,32a23,23,0,0,0,.72-2.76H11.27Z"/><path d="M11.27,13.71,2.69,8a17.52,17.52,0,0,0-1.37,3A28.13,28.13,0,0,0,0,19c0,1.07,0,1.22,0,2.48S0,22.91,0,24a28.07,28.07,0,0,0,1.29,8,17.24,17.24,0,0,0,1.34,3l8.61-5.75Z"/></svg>