<svg id="레이어_1" data-name="레이어 1" xmlns="http://www.w3.org/2000/svg" viewBox="0 0 43 43"><defs><style>.cls-1{fill:none;}.cls-2{fill:#d80031;}.cls-3{fill:#fff;}.cls-4{fill:#2530a9;}.cls-5{fill:#f5d028;}</style></defs><title>말레이시아</title><path class="cls-1" d="M24.9.2h1.32c-.41,0-.86-.07-1.32-.09Z"/><path class="cls-2" d="M24.9,3.62H36.5a15.54,15.54,0,0,0-4.26-2.26,23.17,23.17,0,0,0-6-1.16H24.9Z"/><path class="cls-3" d="M24.9,7H39.72A13.27,13.27,0,0,0,38.47,5.4a14,14,0,0,0-2-1.78H24.9Z"/><path class="cls-2" d="M24.9,10.45H41.47A18.28,18.28,0,0,0,39.72,7H24.9Z"/><path class="cls-3" d="M24.9,13.87H42.42A24.3,24.3,0,0,0,41.68,11l-.21-.58H24.9Z"/><path class="cls-2" d="M24.9,17.29h18a29,29,0,0,0-.45-3.42H24.9Z"/><path class="cls-3" d="M24.9,20.19H0v.51H43c0-.6,0-.89,0-1.68,0-.56,0-1.14-.1-1.73h-18Z"/><path class="cls-2" d="M0,21.5C0,22.76,0,22.91,0,24a.61.61,0,0,1,0,.14H43A.61.61,0,0,1,43,24c0-1.07,0-1.22,0-2.48v-.8H0Z"/><path class="cls-3" d="M.32,27.54H42.68c.16-1.2.24-2.35.28-3.42H0C.08,25.19.16,26.34.32,27.54Z"/><path class="cls-2" d="M1,31H42a24.84,24.84,0,0,0,.69-3.41H.32A24.84,24.84,0,0,0,1,31Z"/><path class="cls-3" d="M1.32,32a17.06,17.06,0,0,0,1,2.39h38.3a17.06,17.06,0,0,0,1-2.39c.11-.35.21-.69.31-1H1C1.11,31.29,1.21,31.63,1.32,32Z"/><path class="cls-2" d="M4.53,37.6l.18.19H38.29l.18-.19a15.83,15.83,0,0,0,2.18-3.23H2.35A15.83,15.83,0,0,0,4.53,37.6Z"/><path class="cls-3" d="M9.65,41.21h23.7a15.33,15.33,0,0,0,4.94-3.42H4.71A15.33,15.33,0,0,0,9.65,41.21Z"/><path class="cls-2" d="M10.76,41.64c2.45.85,5.1,1.26,10.26,1.36h1c5.16-.1,7.81-.51,10.26-1.36.38-.13.75-.28,1.11-.43H9.65C10,41.36,10.38,41.51,10.76,41.64Z"/><path class="cls-4" d="M24.9,17.29V.11C24,.06,23.06,0,22,0H21c-5.16.11-7.81.51-10.26,1.36a15.21,15.21,0,0,0-6.23,4A16.82,16.82,0,0,0,1.32,11,28.13,28.13,0,0,0,0,19c0,.53,0,.84,0,1.17H24.9ZM13.11,19a6,6,0,1,1,4-10.46,5.24,5.24,0,1,0,0,8.94A6,6,0,0,1,13.11,19Zm6.44-4-.44,3-.32-2.18-.09-.63,0-.24-1.72,2.56.92-2.94L15.2,16.14l2.11-2.25-3.07.25L17.11,13l-2.87-1.11,3.07.24L15.2,9.91l2.66,1.56-.92-2.94,1.72,2.55,0-.23.09-.63L19.11,8l.44,3.05,1.73-2.55-.93,2.94L23,9.91l-2.1,2.25L24,11.92,21.11,13,24,14.14l-3.07-.25L23,16.14l-2.66-1.55.93,2.94Z"/><path class="cls-5" d="M9.11,13a5.24,5.24,0,0,1,8-4.47,6,6,0,1,0,0,8.94,5.25,5.25,0,0,1-8-4.47Z"/><polygon class="cls-5" points="20.35 14.59 23.02 16.14 20.91 13.89 23.98 14.14 21.11 13.03 23.98 11.92 20.91 12.16 23.02 9.91 20.35 11.47 21.28 8.53 19.55 11.08 19.11 8.03 18.79 10.22 18.7 10.85 18.66 11.08 16.94 8.53 17.86 11.47 15.2 9.91 17.31 12.16 14.23 11.92 17.11 13.03 14.23 14.14 17.31 13.89 15.2 16.14 17.86 14.59 16.94 17.53 18.66 14.97 18.7 15.21 18.79 15.84 19.11 18.02 19.55 14.97 21.28 17.53 20.35 14.59"/></svg>