<svg id="레이어_1" data-name="레이어 1" xmlns="http://www.w3.org/2000/svg" viewBox="0 0 43 43"><defs><style>.cls-1{fill:#19307a;}.cls-2{fill:red;}.cls-3{fill:#fff;}.cls-4{fill:#ff0102;}</style></defs><title>뉴질랜드</title><path class="cls-1" d="M1.32,32A16.87,16.87,0,0,0,4.53,37.6a15.21,15.21,0,0,0,6.23,4c2.45.85,5.1,1.26,10.26,1.36h1c5.16-.1,7.81-.51,10.26-1.36a15.21,15.21,0,0,0,6.23-4A16.87,16.87,0,0,0,41.68,32,28.25,28.25,0,0,0,43,24c0-1.07,0-1.22,0-2.48s0-1.41,0-2.48a28.13,28.13,0,0,0-1.29-8A16.82,16.82,0,0,0,38.47,5.4a15.21,15.21,0,0,0-6.23-4C29.79.51,27.14.11,22,0H21L19.66,0V17H.15c-.06.71-.09,1.39-.12,2,0,1.07,0,1.22,0,2.48S0,22.91,0,24A28.25,28.25,0,0,0,1.32,32ZM26.4,11.85l1-3,1,3h3.21L29,13.74l1,3.06-2.6-1.89-2.6,1.89,1-3.06-2.6-1.89Z"/><polygon class="cls-2" points="26.96 13.36 26.7 14.18 27.39 13.67 28.08 14.18 27.82 13.36 28.51 12.85 27.66 12.85 27.39 12.04 27.12 12.85 26.27 12.85 26.96 13.36"/><path class="cls-3" d="M24.79,16.8l2.6-1.89L30,16.8l-1-3.06,2.6-1.89H28.38l-1-3-1,3H23.19l2.6,1.89ZM27.39,12l.27.81h.85l-.69.51.26.82-.69-.51-.69.51.26-.82-.69-.51h.85Z"/><path class="cls-1" d="M5,11.49l-4.52,3C.32,15.36.22,16.19.15,17H5Z"/><polygon class="cls-1" points="8.63 16.98 16.73 16.98 8.63 11.51 8.63 16.98"/><path class="cls-1" d="M5,4.94l-.23.23L5,5.33Z"/><path class="cls-1" d="M16.24.25a22.44,22.44,0,0,0-5.48,1.11,14.45,14.45,0,0,0-2.13.93V5.34Z"/><polygon class="cls-1" points="19.66 15.24 19.66 10.61 12.8 10.61 19.66 15.24"/><polygon class="cls-1" points="19.66 6.23 19.66 1.66 12.84 6.23 19.66 6.23"/><polygon class="cls-3" points="8.63 10.61 8.63 11.51 16.73 16.98 19.66 16.98 19.66 16.97 10.32 10.61 8.63 10.61"/><polygon class="cls-3" points="12 10.61 19.66 15.83 19.66 15.24 12.8 10.61 12 10.61"/><path class="cls-3" d="M1.48,10.61c-.06.14-.11.28-.16.42-.14.42-.26.83-.37,1.24l2.49-1.66Z"/><path class="cls-3" d="M5,10.72.63,13.62c-.06.3-.12.6-.17.9l4.52-3Z"/><path class="cls-3" d="M12.84,6.23l6.82-4.57V0h-.27L10.18,6.23Z"/><path class="cls-3" d="M5,5.33l-.23-.16-.22.23c-.23.25-.45.53-.68.83H5Z"/><path class="cls-3" d="M8.63,6.13l8.93-6L16.24.25,8.63,5.34Z"/><path class="cls-4" d="M5,10.61H3.44L1,12.27c-.12.46-.22.91-.32,1.35L5,10.72Z"/><path class="cls-4" d="M8.63,6.23h1.55L19.39.05q-1,0-1.83.09l-8.93,6Z"/><polygon class="cls-4" points="10.32 10.61 19.66 16.97 19.66 15.83 12 10.61 10.32 10.61"/><path class="cls-3" d="M5,10.61V17H5.7V9.71H1.83c-.13.3-.25.6-.35.9H5Z"/><path class="cls-3" d="M19.66,7.08V6.23h-11V2.29c-.24.12-.47.25-.7.38V7.08Z"/><polygon class="cls-3" points="7.93 16.98 8.63 16.98 8.63 11.51 8.63 10.61 10.32 10.61 12 10.61 12.8 10.61 19.66 10.61 19.66 9.71 7.93 9.71 7.93 16.98"/><path class="cls-3" d="M5.7,4.27c-.25.21-.49.44-.72.67V6.23H3.85c-.2.27-.4.55-.6.85H5.7Z"/><path class="cls-4" d="M5.7,17H7.93V9.71H19.66V7.08H7.93V2.67A15.57,15.57,0,0,0,5.7,4.27V7.08H3.25A19,19,0,0,0,1.83,9.71H5.7Z"/></svg>