<svg id="레이어_1" data-name="레이어 1" xmlns="http://www.w3.org/2000/svg" viewBox="0 0 43 43"><defs><style>.cls-1{fill:#ff3c30;}.cls-2{fill:#fff;}.cls-3{fill:#00357b;}</style></defs><title>노르웨이</title><path class="cls-1" d="M20.79,43H22c5.16-.11,7.81-.51,10.26-1.36a15.21,15.21,0,0,0,6.23-4A16.87,16.87,0,0,0,41.68,32a24.85,24.85,0,0,0,1.07-5h-22Z"/><path class="cls-1" d="M.25,27a24.85,24.85,0,0,0,1.07,5A16.87,16.87,0,0,0,4.53,37.6a15.12,15.12,0,0,0,4.33,3.24V27Z"/><path class="cls-1" d="M8.86,2.16A15.12,15.12,0,0,0,4.53,5.4,16.87,16.87,0,0,0,1.32,11a24.67,24.67,0,0,0-1,4.84H8.86Z"/><path class="cls-1" d="M42.73,15.86a24.67,24.67,0,0,0-1-4.84A16.87,16.87,0,0,0,38.47,5.4a15.21,15.21,0,0,0-6.23-4C29.79.51,27.14.11,22,0H20.79V15.86Z"/><path class="cls-2" d="M11.65,1.07l-.89.29a15,15,0,0,0-1.9.8v13.7H.27Q.1,17.24.06,18.5H11.65Z"/><path class="cls-2" d="M.06,24.5c0,.8.09,1.63.19,2.49H8.86V40.84a15,15,0,0,0,1.9.8l.89.29V24.5Z"/><path class="cls-2" d="M18,42.89c.85,0,1.77.08,2.79.1V27h22c.1-.86.16-1.69.19-2.49H18Z"/><path class="cls-2" d="M20.79,15.86V0c-1,0-1.94,0-2.79.1V18.5H42.94q0-1.26-.21-2.64Z"/><path class="cls-3" d="M18,.11a27.88,27.88,0,0,0-6.35,1V18.5H.06L0,19c0,1.07,0,1.22,0,2.48S0,22.91,0,24l0,.52H11.65V41.93a27.88,27.88,0,0,0,6.35,1V24.5H42.94L43,24c0-1.07,0-1.22,0-2.48s0-1.41,0-2.48l0-.52H18Z"/></svg>