<svg id="레이어_1" data-name="레이어 1" xmlns="http://www.w3.org/2000/svg" viewBox="0 0 43 43"><defs><style>.cls-1{fill:#e80506;}.cls-2{fill:#17108c;}.cls-3{fill:#fff;}.cls-4{fill:#f9c900;}</style></defs><title>필리핀</title><path class="cls-1" d="M5.35,38.42a15.48,15.48,0,0,0,5.41,3.22c2.45.85,5.1,1.25,10.26,1.36h1c5.16-.11,7.81-.51,10.26-1.36a15.21,15.21,0,0,0,6.23-4A16.82,16.82,0,0,0,41.68,32,28.13,28.13,0,0,0,43,24c0-1.05,0-1.22,0-2.42H30Z"/><path class="cls-2" d="M41.68,11A16.87,16.87,0,0,0,38.47,5.4a15.21,15.21,0,0,0-6.23-4C29.79.51,27.14.11,22,0H21c-5.16.11-7.81.51-10.26,1.36A15.36,15.36,0,0,0,5.27,4.65L30,21.56H43V21.5c0-1.26,0-1.41,0-2.48A28.25,28.25,0,0,0,41.68,11Z"/><path class="cls-3" d="M5.27,4.65a10.46,10.46,0,0,0-.74.75A16.87,16.87,0,0,0,1.32,11,28.25,28.25,0,0,0,0,19c0,1.05,0,1.22,0,2.4l.78-.73,3.39.45c0-.12,0-.23,0-.34l-3-.57.57-.48,2.54.73a4.72,4.72,0,0,1,.36-.93l-2.3-1.44-.08-.76,2.53,1.91c.06-.1.14-.18.2-.27L2.3,16.73l-.06-1.29,1.22.08,2.12,2.85.25-.22L4,15.47l.72.09L6.1,18a3.64,3.64,0,0,1,.9-.4l-.66-2.7.45-.6L7.3,17.5l.33,0-.4-3.59.82-1,.82,1-.4,3.59.32,0,.51-3.21.46.6-.67,2.7A3.71,3.71,0,0,1,10,18l1.36-2.46.73-.09-1.82,2.71c.09.06.16.14.25.21l2.15-2.88,1.22-.07-.06,1.29L11.08,19c.07.09.14.17.2.26h0l2.57-1.92-.08.76-2.33,1.45a4.6,4.6,0,0,1,.37.94l2.53-.71.57.48-3,.55c0,.11,0,.22,0,.34l3.37-.42.91.86-.91.86L11.92,22c0,.11,0,.23,0,.34l3,.54-.57.48-2.54-.7a4,4,0,0,1-.35.91L13.76,25l.08.77L11.3,23.88c-.06.09-.14.17-.21.26L13.8,26.4l.06,1.29-1.22-.07-2.13-2.86c-.09.07-.16.15-.25.21l1.8,2.69-.72-.08L10,25.14a3.88,3.88,0,0,1-.91.4l.68,2.68-.45.61-.54-3.21-.32,0,.42,3.58-.81,1-.83-.95.38-3.59-.32,0-.5,3.23-.45-.6L7,25.53a3.69,3.69,0,0,1-.86-.38l-1.36,2.4L4,27.63,5.85,25c-.09-.06-.16-.15-.25-.22L3.46,27.58l-1.22.05.08-1.29L5,24.14c-.06-.09-.14-.17-.2-.26L2.28,25.73,2.37,25l2.28-1.37a4.79,4.79,0,0,1-.36-.91l-2.57.69-.57-.48,3.05-.53c0-.11,0-.22,0-.34l-3.4.4L0,21.67C0,22.77,0,23,0,24a28.13,28.13,0,0,0,1.29,8A16.82,16.82,0,0,0,4.53,37.6c.26.28.53.55.82.82L30,21.56ZM25,22.08l0,1.66-.9-1.37-1.51.49,1-1.33-.9-1.36,1.49.54.95-1.32,0,1.66,1.48.54Z"/><path class="cls-4" d="M4.26,21.58V22H4.17c0,.12,0,.23,0,.34h0l.1.31-.06,0a4.79,4.79,0,0,0,.36.91l.08-.05.13.29-.06.05c.06.09.14.17.2.26l.09-.07.29.31.28.31-.06.08c.09.07.16.16.25.22l0,0,.27.14,0,.07a3.69,3.69,0,0,0,.86.38l0-.07.29.11v.05l.32,0v-.09h.82v.1l.32,0v-.06l.29-.11,0,.09a3.88,3.88,0,0,0,.91-.4l0-.05.28-.14,0,0c.09-.06.16-.14.25-.21l0-.05.29-.3.29-.31,0,0c.07-.09.15-.17.21-.26l0,0,.13-.3,0,0a4,4,0,0,0,.35-.91l-.09,0,.1-.31h.08c0-.11,0-.23,0-.34h-.11v-.87h.11c0-.12,0-.23,0-.34h-.08l-.1-.31.1,0a4.6,4.6,0,0,0-.37-.94h0l-.14-.3c-.06-.09-.13-.17-.2-.26l0,0-.29-.3-.29-.31,0,0c-.09-.07-.16-.15-.25-.21h0L10,18v0a3.71,3.71,0,0,0-.89-.39l0,.08-.29-.11V17.5l-.32,0v.09H7.64v-.09l-.33,0v.06L7,17.67l0-.08a3.64,3.64,0,0,0-.9.4l0,.06-.28.14,0,0-.25.22,0,.06-.29.3L5,19,5,19c-.06.09-.14.17-.2.27l0,0-.14.29,0,0a4.72,4.72,0,0,0-.36.93l.09,0-.11.31H4.2c0,.11,0,.22,0,.34h.09Z"/><polygon class="cls-4" points="8.05 17.56 8.46 17.56 8.47 17.46 8.87 13.88 8.05 12.92 7.23 13.88 7.63 17.47 7.64 17.56 8.05 17.56"/><polygon class="cls-4" points="9.07 17.67 9.09 17.59 9.76 14.89 9.3 14.29 8.79 17.5 8.78 17.56 9.07 17.67"/><polygon class="cls-4" points="7.31 17.56 7.3 17.5 6.79 14.29 6.33 14.89 7 17.59 7.02 17.67 7.31 17.56"/><polygon class="cls-4" points="10.77 18.69 11.06 18.99 11.08 18.97 13.8 16.69 13.87 15.4 12.64 15.47 10.5 18.35 10.48 18.38 10.77 18.69"/><polygon class="cls-4" points="11.44 19.52 13.77 18.07 13.85 17.31 11.28 19.23 11.28 19.23 11.42 19.53 11.44 19.52"/><polygon class="cls-4" points="10.25 18.14 10.25 18.14 12.06 15.43 11.34 15.52 9.98 17.98 9.97 18 10.25 18.14"/><polygon class="cls-4" points="11.81 21.57 11.81 22 11.92 22.01 15.29 22.42 16.2 21.56 15.29 20.7 11.92 21.12 11.81 21.13 11.81 21.57"/><polygon class="cls-4" points="11.71 22.65 11.8 22.67 14.34 23.37 14.91 22.89 11.89 22.35 11.81 22.34 11.71 22.65"/><polygon class="cls-4" points="11.81 20.79 11.89 20.78 14.91 20.23 14.34 19.75 11.81 20.45 11.71 20.48 11.81 20.79"/><polygon class="cls-4" points="10.76 24.41 10.47 24.71 10.51 24.76 12.64 27.62 13.86 27.69 13.8 26.4 11.09 24.14 11.05 24.1 10.76 24.41"/><polygon class="cls-4" points="9.96 25.09 9.99 25.14 11.34 27.57 12.06 27.66 10.26 24.98 10.24 24.95 9.96 25.09"/><polygon class="cls-4" points="11.28 23.86 11.3 23.88 13.84 25.79 13.76 25.02 11.45 23.58 11.41 23.56 11.28 23.86"/><polygon class="cls-4" points="8.03 25.56 7.62 25.57 7.61 25.66 7.23 29.25 8.06 30.2 8.87 29.24 8.45 25.66 8.44 25.56 8.03 25.56"/><polygon class="cls-4" points="7.01 25.46 6.99 25.53 6.33 28.25 6.79 28.85 7.29 25.62 7.3 25.57 7.01 25.46"/><polygon class="cls-4" points="8.76 25.56 8.77 25.62 9.31 28.83 9.76 28.23 9.08 25.54 9.05 25.45 8.76 25.56"/><polygon class="cls-4" points="5.38 24.38 5.09 24.07 5 24.14 2.32 26.34 2.24 27.63 3.46 27.57 5.6 24.77 5.66 24.69 5.38 24.38"/><polygon class="cls-4" points="4.73 23.54 4.65 23.59 2.37 24.96 2.28 25.73 4.8 23.88 4.86 23.83 4.73 23.54"/><polygon class="cls-4" points="5.89 24.94 5.85 24.99 4.04 27.63 4.77 27.55 6.13 25.15 6.16 25.08 5.89 24.94"/><path class="cls-4" d="M4.17,22h.08v-.86H4.17L.78,20.69,0,21.42v.25l.77.75Z"/><polygon class="cls-4" points="4.37 20.5 4.28 20.48 1.74 19.75 1.17 20.23 4.2 20.8 4.26 20.81 4.37 20.5"/><polygon class="cls-4" points="4.25 22.35 4.2 22.36 1.15 22.89 1.72 23.37 4.29 22.68 4.35 22.66 4.25 22.35"/><polygon class="cls-4" points="5.33 18.73 5.62 18.43 5.58 18.37 3.46 15.52 2.24 15.44 2.3 16.73 4.99 19 5.04 19.04 5.33 18.73"/><polygon class="cls-4" points="6.13 18.05 6.1 17.99 4.76 15.56 4.04 15.47 5.83 18.15 5.85 18.19 6.13 18.05"/><polygon class="cls-4" points="4.82 19.27 4.79 19.26 2.25 17.35 2.34 18.11 4.64 19.55 4.68 19.57 4.82 19.27"/><polygon class="cls-4" points="25.04 21.05 25.07 19.39 24.12 20.71 22.63 20.17 23.53 21.53 22.58 22.86 24.09 22.37 24.98 23.74 25.02 22.08 26.52 21.59 25.04 21.05"/></svg>