<svg id="레이어_1" data-name="레이어 1" xmlns="http://www.w3.org/2000/svg" viewBox="0 0 43 43"><defs><style>.cls-1{fill:#fff;}.cls-2{fill:#ff142b;}</style></defs><title>폴란드</title><path class="cls-1" d="M41.68,11A16.92,16.92,0,0,0,38.47,5.4a15.21,15.21,0,0,0-6.23-4C29.79.52,27.14.11,22,0H21c-5.16.11-7.81.52-10.26,1.36a15.21,15.21,0,0,0-6.23,4A16.92,16.92,0,0,0,1.32,11,28.13,28.13,0,0,0,0,19c0,1.07,0,1.22,0,2.48H43c0-1.26,0-1.41,0-2.48A28.13,28.13,0,0,0,41.68,11Z"/><path class="cls-2" d="M0,24a28.07,28.07,0,0,0,1.29,8A16.82,16.82,0,0,0,4.53,37.6a15.21,15.21,0,0,0,6.23,4c2.45.85,5.1,1.25,10.26,1.36h1c5.16-.11,7.81-.51,10.26-1.36a15.21,15.21,0,0,0,6.23-4A16.82,16.82,0,0,0,41.68,32,28.07,28.07,0,0,0,43,24c0-1.07,0-1.22,0-2.48H0C0,22.76,0,22.91,0,24Z"/></svg>