<svg id="레이어_1" data-name="레이어 1" xmlns="http://www.w3.org/2000/svg" viewBox="0 0 43 43"><defs><style>.cls-1{fill:#fff;}.cls-2{fill:#df352a;}.cls-3{fill:#074e9f;}</style></defs><title>러시아</title><path class="cls-1" d="M38.47,5.4a15.21,15.21,0,0,0-6.23-4C29.79.51,27.14.11,22,0H21c-5.16.11-7.81.51-10.26,1.36a15.21,15.21,0,0,0-6.23,4A16.82,16.82,0,0,0,1.32,11a24,24,0,0,0-.8,3.13h42a24,24,0,0,0-.8-3.13A16.82,16.82,0,0,0,38.47,5.4Z"/><path class="cls-2" d="M1.32,32A16.87,16.87,0,0,0,4.53,37.6a15.21,15.21,0,0,0,6.23,4c2.45.85,5.1,1.25,10.26,1.36h1c5.16-.11,7.81-.51,10.26-1.36a15.21,15.21,0,0,0,6.23-4A16.87,16.87,0,0,0,41.68,32a23.47,23.47,0,0,0,.74-2.88H.58A23.47,23.47,0,0,0,1.32,32Z"/><path class="cls-3" d="M0,19c0,1.07,0,1.22,0,2.48S0,22.91,0,24A31.4,31.4,0,0,0,.58,29.1H42.42A31.4,31.4,0,0,0,43,24c0-1.07,0-1.22,0-2.48s0-1.41,0-2.48a32.51,32.51,0,0,0-.49-4.86H.52A32.51,32.51,0,0,0,0,19Z"/></svg>