<svg id="레이어_1" data-name="레이어 1" xmlns="http://www.w3.org/2000/svg" viewBox="0 0 43 43"><defs><style>.cls-1{fill:#3d9635;}.cls-2{fill:#fff;}</style></defs><title>사우디아라비아</title><path class="cls-1" d="M23.74,13.54c-.12,0-.38-.07-.13.24l.24.3c0-.12,0-.23-.07-.36A1.16,1.16,0,0,0,23.74,13.54Z"/><path class="cls-1" d="M12,17.39l-.13.05v0h0c0,.06-.12.14-.09.23a.2.2,0,0,0,.19.09c.08,0,.19,0,.22,0h0a.22.22,0,0,0,0-.23A.2.2,0,0,0,12,17.39Z"/><path class="cls-1" d="M22.17,17.1a.24.24,0,0,0,.28,0h0c0-.07,0-.16-.16-.22a.45.45,0,0,0-.21-.06.09.09,0,0,0-.07,0,0,0,0,0,1,0,0h0v0h0A.29.29,0,0,0,22.17,17.1Z"/><path class="cls-1" d="M16,13.21c.07,0,.1-.12,0-.22a.23.23,0,0,0-.2-.15h0c-.08,0-.1.11-.05.21A.23.23,0,0,0,16,13.21Z"/><path class="cls-1" d="M20.77,19.18a8.64,8.64,0,0,1-1.12-.13h0a.27.27,0,0,0-.28.29,1.53,1.53,0,0,0,.74,1.09.54.54,0,0,0,.25.09h0a0,0,0,0,1,0,0,.57.57,0,0,0,0-.36c0-.41.28-.49.56-.59S21.08,19.2,20.77,19.18Z"/><path class="cls-1" d="M41.68,11A16.92,16.92,0,0,0,38.47,5.4a15.21,15.21,0,0,0-6.23-4C29.79.51,27.14.11,22,0H21c-5.16.11-7.81.51-10.26,1.36a15.21,15.21,0,0,0-6.23,4A16.92,16.92,0,0,0,1.32,11,28.13,28.13,0,0,0,0,19c0,1.07,0,1.22,0,2.48S0,22.91,0,24a28.07,28.07,0,0,0,1.29,8A16.82,16.82,0,0,0,4.53,37.6a15.21,15.21,0,0,0,6.23,4c2.45.85,5.1,1.25,10.26,1.36h1c5.16-.11,7.81-.51,10.26-1.36a15.21,15.21,0,0,0,6.23-4A16.82,16.82,0,0,0,41.68,32,28.07,28.07,0,0,0,43,24c0-1.07,0-1.22,0-2.48s0-1.41,0-2.48A28.13,28.13,0,0,0,41.68,11Zm-8.07,2.28c.25.13.39.82.37,1-.06.37-.19.76-.28.71s0-.54,0-.69-.4-.61-.36-.73S33.45,13.27,33.61,13.31Zm-3.78-.81c.05-.31.13-.13.28,0a5,5,0,0,1,.74.73c.4.5-.51,0,.12.61l.08.1,0-.13c0-.32-.08-.65-.11-1a.55.55,0,0,1,.19-.4c.09-.14.17-.07.22,0l.74,1.35c0,.13,0,.26-.1.25a.51.51,0,0,1-.14-.09c-.08,0-.06,0,0,.08s.07.9.07.91,0,.08,0,.18l.77,1.13c-.12-.92-.27-1.84-.44-2.74-.07-.36-.13-.73,0-.89s.35-.31.43-.15a4,4,0,0,1,.59,1.65c-.07.12-.21,0-.24.12a3.15,3.15,0,0,0,.08.67c.09.37.14.85.21,1.17s.12.87.18,1.44c.32.44.73,1,1,1.55.12.15.18,1.22,0,1.32-.3-.54-.63-1.08-1-1.61v.86c0,.36-.68,1.12-.66.92a23,23,0,0,0-.12-3c-.21-.32-.42-.64-.64-.95a22.41,22.41,0,0,1,0,3.62,1.11,1.11,0,0,1-.52.64.75.75,0,0,1-1-.07,1.27,1.27,0,0,1-.45-.38.27.27,0,0,0-.49.11c-.15.16-.15,1-.46,1.32a.48.48,0,0,1-.7.08,1.47,1.47,0,0,1-.66-.75A1.89,1.89,0,0,1,28,19.34,2.4,2.4,0,0,0,28.34,21c.24.23.45.13.53,0a7,7,0,0,1,.92-1.73.32.32,0,0,1,.52,0,4.17,4.17,0,0,0,.54.71c.14.14.36,0,.36,0s.3-.73.32-1.22c-.09-1.16-.12-2.22-.21-3.37-.43-.57-.85-1.12-1.27-1.63a1,1,0,0,1-.24-.51A5.64,5.64,0,0,1,29.83,12.5Zm1,6.26c0-.22-.27-.62-.23-.74a.25.25,0,0,1,.29-.33c.25.12.35.86.32,1.06,0,.38-.24.69-.34.64S30.86,18.91,30.81,18.76Zm.26-1.59a5.66,5.66,0,0,1-1.5,1c-.07.06-.14-.39,0-.51S31,16.65,31,16.65,31.14,17.17,31.07,17.17Zm-1.84-1.85a.4.4,0,0,1,.39-.07s.13.17.1.2c.16.07.22,0,.24,0s-.05-.18-.05-.3A.33.33,0,0,1,30.5,15a1.22,1.22,0,0,1,.15.58c0,.1-.15,0-.24,0s-.1.12-.11.21c0,.24,0,.62-.05.91-.28,0-.88-.55-1.05-.87A.66.66,0,0,1,29.23,15.32Zm-1.56-2.8c.19-.25.15-.12.24,0,.14.35.59.95.77,1.37s-.47-.16-.36.4c.08.3.51,3.48.53,3.87a8.76,8.76,0,0,1,.06,1.47c-.11.49-.36,1-.57,1a30.77,30.77,0,0,0-.84-6.74A3.08,3.08,0,0,1,27.67,12.52Zm-1.15.09c.13-.28.15-.18.23,0,.23.34.62,1.25.51,1.36s-.21.07-.25.12a1,1,0,0,0,0,.37,22.35,22.35,0,0,1,.42,5.27,2.3,2.3,0,0,1-.38,1,2.21,2.21,0,0,1-1.69,1.35c-.38,0-.67-.4-.58-.49a6,6,0,0,0,2-1.44.82.82,0,0,0,.14-.61c-.19-2.08-.29-3.89-.58-6A1.84,1.84,0,0,1,26.52,12.61Zm-1.08-.09a1,1,0,0,1,.41.94c-.06.33-.2.7-.31.65s.08-.33,0-.64-.44-.56-.4-.67S25.27,12.48,25.44,12.52Zm-.17,2.15.07,0a.5.5,0,0,1,0,.12s0,.05,0,.07,0,0,.07,0,.05,0,.05-.07a.35.35,0,0,1,0-.11s0-.05.06-.05.05,0,.07,0a.19.19,0,0,1,.05.11c0,.14.1.15.12.13s0-.11,0-.15.2-.19.27,0,0,.19,0,.24c0,.49-.55.55-.86.4s-.22-.43-.21-.45S25.1,14.67,25.27,14.67Zm-3-2.27c.07-.31.42-.13.56,0l.64.54c.1.12.16.21.21.28a1.27,1.27,0,0,1,.08-.7c.2-.26.2-.22.32,0A3.66,3.66,0,0,1,24.91,14c.05.35-.29-.32-.2.29a11.34,11.34,0,0,1,.14,1.2c.27.4.5.75.57.88.19.34.77,1.25,1.2,2.16.11.15.15,1.23,0,1.33-.53-1.06-1.07-2-1.63-2.92,0,.22,0,.42,0,.59,0,.43.11,1.88,0,2.6-.12.52-.47.87-.68.86a31.16,31.16,0,0,0,0-3.75c0-.52-.1-1-.17-1.57-.48-.72-1-1.42-1.48-2.11A2.16,2.16,0,0,1,22.3,13,1.66,1.66,0,0,1,22.26,12.4ZM22.6,21c-.1,0-.18.09-.23,0s0-.12,0-.16a1.77,1.77,0,0,1,.41-.36.27.27,0,0,1,.27.05c0,.14-.09.27-.05.46s.05.16.19.13a1,1,0,0,1,.66-.2c.17,0,.18.3.07.3a4.22,4.22,0,0,0-.9.32.19.19,0,0,1-.26,0,.25.25,0,0,1,0-.26C22.78,21.1,22.72,21,22.6,21Zm1.19-1.5a12.49,12.49,0,0,1-2.45.47c-.29.15-.43.34-.37.56s.7.48.74.5.27.26,0,.62A2.91,2.91,0,0,1,19,20.29c-.11-.08-.22,0-.29.11A4.12,4.12,0,0,1,16.85,22a1.27,1.27,0,0,1-1.29-.41,1.89,1.89,0,0,1-.22-.45h0c-.28.13-2.68,1.15-2.37.67a17.3,17.3,0,0,1,2.49-1.7c.07-.21.18-.9.53-1.13h0c0,.06-.06.41-.05.57a.76.76,0,0,0,0,.16h0a6.42,6.42,0,0,0,1.22-1.15c.11-.14,0-.5,0-.54h0c-.2-.53-.49-.57-.6-.83s-.05-.74.15-.85a.38.38,0,0,1,.57,0,1.7,1.7,0,0,1,.47.86c0,.11-.27-.07-.36,0h0a1.15,1.15,0,0,1,.28.56,1.76,1.76,0,0,1,0,1.22A3.81,3.81,0,0,1,16,20.64h0a.41.41,0,0,0,.18.38h0a.82.82,0,0,0,.68,0,4,4,0,0,0,1.63-1.7,3.86,3.86,0,0,0-.18-1.62c-.21-.48-.45-1.16-.46-1.19A.66.66,0,0,1,18,16l.15-.13h0s.1.06.24.2a5.11,5.11,0,0,1,.67,2.28.27.27,0,0,0,.13.27h0c0-.44,1.1-1.05,2.08-1.14.16,0,.08-.32.1-.46a.9.9,0,1,1,1.76,0C23.17,18,22,18.2,21.41,18.29l-.09,0h0l.08,0h2.66l.14.08v0h0a.53.53,0,0,0-.13.15A2.14,2.14,0,0,0,23.79,19.53ZM15,19.17c0-.28-.35-.42-.34-.54s.14-.25.28-.22.38.6.36.75-.18.56-.27.52S15.08,19.28,15,19.17Zm5-2.92a.07.07,0,0,1,.07,0,.37.37,0,0,1,0,.12s0,0,0,.07h.07a.09.09,0,0,0,.06-.07.5.5,0,0,1,0-.12s0-.05.07-.05l.06,0a.27.27,0,0,1,.06.12c0,.13.09.15.12.12s0-.1,0-.15.21-.19.27,0a1.79,1.79,0,0,1,0,.23c.17.47-.56.56-.86.41s-.22-.44-.21-.45S19.85,16.25,20,16.25Zm-.79-3.81c.13-.34.34-.35.4,0a2.3,2.3,0,0,1-.19.87c-.12.26-.38.18-.33,0A4.39,4.39,0,0,1,19.23,12.44Zm-2.06.4a1,1,0,0,1,.42-.69c.19-.12.19,0,.19.13-.16.2-.33.29-.27.51s.3-.08.25.13a.38.38,0,0,1-.16.25c-.18.09-.26.1-.35,0S17.16,13,17.17,12.84Zm-.5.3c.28-.28.3,1.44.54,1.66.09.17.23.29.36-.13A3.41,3.41,0,0,1,18.41,13a.27.27,0,0,1,.46.09,6.8,6.8,0,0,1,.05,1.52.62.62,0,0,0,.34.48.44.44,0,0,0,.56-.08,1.83,1.83,0,0,0,.26-.38,2.6,2.6,0,0,0-.14-1.37,1,1,0,0,1,.13-.89c.22-.4.29-.17.38.06a5.67,5.67,0,0,1,.23,1.8c.1.78.3.84.42.86a.51.51,0,0,0,.47-.23,2,2,0,0,0-.35-1.27.73.73,0,0,1-.15-.63c0-.15,0-.32.16-.46a.42.42,0,0,1,.63,0c.2.21.48.64.39.79s-.21.11-.3.09,0,.41,0,.43c.11.25.11.6.25.85s.41.12.55.1l.23-.16c.08-.05.21-.07.2.17,0,0-.22.63-.5.76-.08,0-.12.09-.26,0s0-.24.06-.33-.2-.11-.32,0-.11.2-.27.48-.64.28-.89.19-.27-.36-.4-.49a.27.27,0,0,0-.37,0l-.45.44a.83.83,0,0,1-1.08,0c-.25-.31-.33-.52-.32-1.52-.05-.11-.13-.08-.23.13-.15.74-.37,1.42-.73,1.28C16.93,15.87,16.21,14.44,16.67,13.14Zm-2.6,1.79h0c.06-.14,1.2-.93,1.64-1.4.11-.08-.05-.24-.2-.31a.53.53,0,0,1,.09-.71.61.61,0,0,1,.28-.07.68.68,0,0,1,.35.07.47.47,0,0,1-.05.71c-.06,0-.07.11,0,.16s.12.09.18.15A12.57,12.57,0,0,1,14.94,15h0a3,3,0,0,1-.85,0h0Zm1.65.38c0,.08,0,.13.18.1.31-.28.31-.13.31-.13s-.16.53-.43.5a.42.42,0,0,1-.44-.14.64.64,0,0,1,.21-.84c.15-.09.26,0,.21.1A.59.59,0,0,0,15.72,15.31ZM11,12.44s.06,0,.07,0a.25.25,0,0,1,0,.12s0,.05.05.07,0,0,.06,0,0,0,.06-.07a.36.36,0,0,1,0-.11s0-.05.07-.05h.07a.26.26,0,0,1,.05.12c0,.14.09.16.12.13s0-.11,0-.16.21-.18.27,0a1.79,1.79,0,0,1,0,.23c0,.5-.55.56-.86.42s-.22-.44-.21-.46S10.85,12.44,11,12.44Zm-2.46-.09c.36.1.38.62.35.78s-.17.57-.26.53,0-.41-.05-.52-.35-.47-.32-.56S8.42,12.31,8.56,12.35ZM7.7,13.86c.22-.26.31.85.44,1.31.16.62.38.38.43,0s.12-.63.12-.63c.1-.66.47-1.05.61-1s.26,0,.33.2a3.42,3.42,0,0,1,0,1.42c0,.36.42.78.4,0a10.39,10.39,0,0,0-.27-1.56,5.21,5.21,0,0,1,0-1c.07-.17.27-.26.4-.07s.27.89.31,1.23a4.78,4.78,0,0,0,.15,1.27c.09.2.22.23.28.07.07,0-.08-.19-.19-.49a2,2,0,0,1,0-1.39.21.21,0,0,1,.33,0,1.5,1.5,0,0,1,.29.58c.07.21.15.29,0,1,0,.07.44.4.44.4a.35.35,0,0,0,.46.09,1.22,1.22,0,0,0-.12-.65,2,2,0,0,1-.45-1.31c.1-.36.39-.39.59-.22a1.17,1.17,0,0,1,.47.73c0,.15-.18.16-.28,0,0,.08.11.27.08.34a3.54,3.54,0,0,1,.25,1.21c0,.43-.34.7-.89.85-.36.08-.47-.12-.7-.29s-.36-.07-.37.1a16.79,16.79,0,0,0,.06,1.76c0,1.48-.57,1.32-.57,1.32,0-.78-.07-1.57-.11-2.35-.09-.23-.25-.24-.48-.22A.64.64,0,0,1,9.21,16V14.65c0-.18-.12-.18-.19,0-.32.3.17,1.9-.72,1.81S7.63,14.73,7.7,13.86Zm2,3.2c.48,0,.36.18.48.37-.79.39-1.55.75-2.33,1.12A2.36,2.36,0,0,1,9.65,17.06Zm-.72,3.49a3.92,3.92,0,0,1,0-.76c0-.43.21-.67.33-.58s.1.15.13.34a3,3,0,0,0,.18,1.06c.52,1,3.61.78,3.7-2.37q0-.1-.06-.12c-.06,0-.16.07-.19.17-.45,3.48-4.56,3-3.33-.13.41-.28.23.95.4,1.28.27.51.78.45,1.41.16,1-.55,1.09-1.26,1-1.34h0c-.07-.05-.26.17-.48.26a.74.74,0,0,1-.83-.2,2,2,0,0,1,0-.9,1,1,0,0,1,.83-.78c.51,0,.58.39.87.59.18,0,.31-.19.28-.35-.23-1.37-.38-2.41-.6-3.78a.43.43,0,0,1,.31-.54l.15-.05h.1l0,0h0a5,5,0,0,1,.64,1.5c-.14.18-.27.06-.43.07.12.89.24,1.74.35,2.63.37-.21.55-.15.51.3,0,.19.32.17.48,0,.24-.67.63-.61.73-.18,0,.1.13.12.2.09l0,0v0l.06-.34a.06.06,0,0,1,0-.06,1.22,1.22,0,0,1,.42-.18,7.48,7.48,0,0,1-.13,1.18.64.64,0,0,1-1,.27.18.18,0,0,0-.27,0,.74.74,0,0,1-1.07.09h0a6.53,6.53,0,0,1-.1,2C13.07,22,9.1,23,8.93,20.55ZM31.32,31.62c-.19,0-.29-.12-.4-.27h0a20.76,20.76,0,0,1-2.1,0c-.06.09-.14.22-.32.18h0a1,1,0,0,1-.17-1l-14.42,0a2.75,2.75,0,0,1-2.53-1c.05,0,2.77.1,3.63.1,1.53,0,8.7.08,13.37.08a.43.43,0,0,1,.15-.78h0s0,.15.07.2h0a.19.19,0,0,1,.16,0c.13.11,0,.43,0,.51.67,0,1.11,0,1.7.1l.7-.08c.78-.07.81,1.11.81,1.11C31.93,31.51,31.66,31.54,31.32,31.62ZM32.15,22c-.14,0-.11-.16-.06-.24s.17-.14.27-.24a.18.18,0,0,0,0-.27c-.1-.07-.21-.06-.21-.23s.05-.15.14-.17a1.61,1.61,0,0,1,.38,0c.15.05.18.11.14.21a.61.61,0,0,1-.11.21c-.06.12.07.14.12.14s.21,0,.27,0a.18.18,0,0,1-.06.22S32.42,22.06,32.15,22Zm3.2-1.88A3,3,0,0,1,35,21.27a2.27,2.27,0,0,1-1.88.9c-.37,0-.37-.31.09-.57.14-.12.57-.26.78-.42a4.5,4.5,0,0,0,.62-.71,2.6,2.6,0,0,0,.12-.53,54.71,54.71,0,0,0-.63-6.43,1.57,1.57,0,0,1,.13-1c.13-.28.16-.18.24,0,.22.35.86,1.17.75,1.28s-.28,0-.32.11a3.38,3.38,0,0,0,.06.53A26.64,26.64,0,0,1,35.35,20.11Z"/><path class="cls-1" d="M28.81,30.6h0c-.11,0-.11.24,0,.35a5.06,5.06,0,0,0,.87,0v0h0c.09-.12.47-.14.52,0s0,0,0,0l.57,0h0a.25.25,0,0,0,0-.34C30.13,30.6,29.49,30.63,28.81,30.6Z"/><path class="cls-2" d="M8.3,16.42c.89.09.4-1.51.72-1.81.07-.14.18-.14.19,0V16a.64.64,0,0,0,.51.66c.23,0,.39,0,.48.22,0,.78.07,1.57.11,2.35,0,0,.54.16.57-1.32a16.79,16.79,0,0,1-.06-1.76c0-.17.22-.18.37-.1s.34.37.7.29c.55-.15.88-.42.89-.85a3.54,3.54,0,0,0-.25-1.21c0-.07-.11-.26-.08-.34.1.16.25.15.28,0a1.17,1.17,0,0,0-.47-.73c-.2-.17-.49-.14-.59.22a2,2,0,0,0,.45,1.31,1.22,1.22,0,0,1,.12.65.35.35,0,0,1-.46-.09s-.44-.33-.44-.4c.11-.75,0-.83,0-1a1.5,1.5,0,0,0-.29-.58.21.21,0,0,0-.33,0,2,2,0,0,0,0,1.39c.11.3.26.49.19.49-.06.16-.19.13-.28-.07a4.78,4.78,0,0,1-.15-1.27c0-.34-.09-1.05-.31-1.23s-.33-.1-.4.07a5.21,5.21,0,0,0,0,1,10.39,10.39,0,0,1,.27,1.56c0,.74-.42.32-.4,0a3.42,3.42,0,0,0,0-1.42c-.07-.19-.16-.23-.33-.2s-.51.38-.61,1c0,0-.08.33-.12.63s-.27.58-.43,0c-.13-.46-.22-1.57-.44-1.31C7.63,14.73,7.56,16.26,8.3,16.42Z"/><path class="cls-2" d="M9.65,17.06A2.36,2.36,0,0,0,7.8,18.55c.78-.37,1.54-.73,2.33-1.12C10,17.24,10.13,17.07,9.65,17.06Z"/><path class="cls-2" d="M13.71,19.91a6.53,6.53,0,0,0,.1-2h0a.74.74,0,0,0,1.07-.09.18.18,0,0,1,.27,0,.64.64,0,0,0,1-.27,7.48,7.48,0,0,0,.13-1.18,1.22,1.22,0,0,0-.42.18.06.06,0,0,0,0,.06l-.06.34v0l0,0c-.07,0-.2,0-.2-.09-.1-.43-.49-.49-.73.18-.16.13-.45.15-.48,0,0-.45-.14-.51-.51-.3-.11-.89-.23-1.74-.35-2.63.16,0,.29.11.43-.07a5,5,0,0,0-.64-1.5h0l0,0h-.1l-.15.05a.43.43,0,0,0-.31.54c.22,1.37.37,2.41.6,3.78,0,.16-.1.37-.28.35-.29-.2-.36-.61-.87-.59a1,1,0,0,0-.83.78,2,2,0,0,0,0,.9.74.74,0,0,0,.83.2c.22-.09.41-.31.48-.26h0c.05.08,0,.79-1,1.34-.63.29-1.14.35-1.41-.16-.17-.33,0-1.56-.4-1.28-1.23,3.17,2.88,3.61,3.33.13,0-.1.13-.19.19-.17s.05.05.06.12c-.09,3.15-3.18,3.36-3.7,2.37a3,3,0,0,1-.18-1.06c0-.19-.07-.3-.13-.34s-.29.15-.33.58a3.92,3.92,0,0,0,0,.76C9.1,23,13.07,22,13.71,19.91Zm-1.53-2.15h0s-.14,0-.22,0a.2.2,0,0,1-.19-.09c0-.09.05-.17.09-.23h0v0l.13-.05a.2.2,0,0,1,.22.14A.22.22,0,0,1,12.18,17.76Z"/><path class="cls-2" d="M14.07,14.94h0a3,3,0,0,0,.85,0h0a12.57,12.57,0,0,0,1.42-1.43c-.06-.06-.12-.09-.18-.15s-.06-.11,0-.16a.47.47,0,0,0,.05-.71.68.68,0,0,0-.35-.07.61.61,0,0,0-.28.07.53.53,0,0,0-.09.71c.15.07.31.23.2.31-.44.47-1.58,1.26-1.64,1.4h0Zm1.74-2.09h0A.23.23,0,0,1,16,13c.05.1,0,.2,0,.22a.23.23,0,0,1-.21-.15C15.71,13,15.73,12.86,15.81,12.85Z"/><path class="cls-2" d="M26.58,19.89c.19-.1.15-1.18,0-1.33-.43-.91-1-1.82-1.2-2.16-.07-.13-.3-.48-.57-.88,0,.47.08,1,.1,1.45C25.51,17.88,26.05,18.83,26.58,19.89Z"/><path class="cls-2" d="M22.66,13.59c.51.69,1,1.39,1.48,2.11-.07-.52-.17-1.06-.29-1.62l-.24-.3c-.25-.31,0-.21.13-.24s0-.22-.07-.34-.11-.16-.21-.28l-.64-.54c-.14-.11-.49-.29-.56,0a1.66,1.66,0,0,0,0,.64A2.16,2.16,0,0,0,22.66,13.59Z"/><path class="cls-2" d="M26.74,20.17a6,6,0,0,1-2,1.44c-.09.09.2.49.58.49A2.21,2.21,0,0,0,27,20.75a2.3,2.3,0,0,0,.38-1A22.35,22.35,0,0,0,27,14.44a1,1,0,0,1,0-.37c0-.05.18,0,.25-.12s-.28-1-.51-1.36c-.08-.16-.1-.26-.23,0a1.84,1.84,0,0,0-.22,1c.29,2.07.39,3.88.58,6A.82.82,0,0,1,26.74,20.17Z"/><path class="cls-2" d="M34.94,13.89c0-.11.25,0,.32-.11s-.53-.93-.75-1.28c-.08-.16-.11-.26-.24,0a1.57,1.57,0,0,0-.13,1,54.71,54.71,0,0,1,.63,6.43,2.6,2.6,0,0,1-.12.53,4.5,4.5,0,0,1-.62.71c-.21.16-.64.3-.78.42-.46.26-.46.56-.09.57a2.27,2.27,0,0,0,1.88-.9,3,3,0,0,0,.31-1.16A26.64,26.64,0,0,0,35,14.42,3.38,3.38,0,0,1,34.94,13.89Z"/><path class="cls-2" d="M33.5,17.46c-.06-.57-.15-1.24-.18-1.44s-.12-.8-.21-1.17a3.15,3.15,0,0,1-.08-.67c0-.11.17,0,.24-.12a4,4,0,0,0-.59-1.65c-.08-.16-.24-.1-.43.15s-.11.53,0,.89c.17.9.32,1.82.44,2.74.22.32.39.58.44.67Z"/><path class="cls-2" d="M32.92,20.5c0,.2.67-.56.66-.92v-.86c-.25-.4-.51-.79-.78-1.18A23,23,0,0,1,32.92,20.5Z"/><path class="cls-2" d="M30.25,16.66c0-.29,0-.67.05-.91,0-.09,0-.19.11-.21s.24.09.24,0A1.22,1.22,0,0,0,30.5,15a.33.33,0,0,0-.59.17c0,.12.06.19.05.3s-.08.1-.24,0c0,0-.1-.2-.1-.2a.4.4,0,0,0-.39.07.66.66,0,0,0,0,.47C29.37,16.11,30,16.66,30.25,16.66Z"/><path class="cls-2" d="M23.78,13.72c0,.13,0,.24.07.36.12.56.22,1.1.29,1.62s.13,1.05.17,1.57a31.16,31.16,0,0,1,0,3.75c.21,0,.56-.34.68-.86.07-.72,0-2.17,0-2.6,0-.17,0-.37,0-.59,0-.46-.06-1-.1-1.45a11.34,11.34,0,0,0-.14-1.2c-.09-.61.25.06.2-.29a3.66,3.66,0,0,0-.84-1.57c-.12-.18-.12-.22-.32,0a1.27,1.27,0,0,0-.08.7c0,.12,0,.23.07.34A1.16,1.16,0,0,1,23.78,13.72Z"/><path class="cls-2" d="M32.16,16.59c.22.31.43.63.64.95s.53.78.78,1.18.66,1.07,1,1.61c.19-.1.13-1.17,0-1.32-.32-.52-.73-1.11-1-1.55l-.41-.6c-.05-.09-.22-.35-.44-.67l-.77-1.13c.08.39.26,1.31.27,1.38Z"/><path class="cls-2" d="M30.05,13.82c.42.51.84,1.06,1.27,1.63v0l-.27-1.51L31,13.8c-.63-.65.28-.11-.12-.61a5,5,0,0,0-.74-.73c-.15-.09-.23-.27-.28,0a5.64,5.64,0,0,0,0,.81A1,1,0,0,0,30.05,13.82Z"/><path class="cls-2" d="M31.13,29.71l-.7.08c-.59-.07-1-.08-1.7-.1.07-.08.17-.4,0-.51a.19.19,0,0,0-.16,0h0c0-.05,0-.17-.07-.2h0a.43.43,0,0,0-.15.78c-4.67,0-11.84-.08-13.37-.08-.86,0-3.58-.1-3.63-.1a2.75,2.75,0,0,0,2.53,1l14.42,0a1,1,0,0,0,.17,1h0c.18,0,.26-.09.32-.18a20.76,20.76,0,0,0,2.1,0h0c.11.15.21.29.4.27s.61-.11.62-.8C31.94,30.82,31.91,29.64,31.13,29.71ZM30.8,31h0l-.57,0s0,0,0,0-.43-.14-.52,0h0v0a5.06,5.06,0,0,1-.87,0c-.08-.11-.08-.31,0-.35h0c.68,0,1.32,0,2,0A.25.25,0,0,1,30.8,31Z"/><path class="cls-2" d="M17.43,15.73c.36.14.58-.54.73-1.28.1-.21.18-.24.23-.13,0,1,.07,1.21.32,1.52a.83.83,0,0,0,1.08,0l.45-.44a.27.27,0,0,1,.37,0c.13.13.11.34.4.49s.77,0,.89-.19.2-.37.27-.48.32-.09.32,0-.13.17-.06.33.18,0,.26,0c.28-.13.5-.76.5-.76,0-.24-.12-.22-.2-.17l-.23.16c-.14,0-.42.11-.55-.1s-.14-.6-.25-.85c0,0-.18-.41,0-.43s.27.07.3-.09-.19-.58-.39-.79a.42.42,0,0,0-.63,0c-.15.14-.13.31-.16.46a.73.73,0,0,0,.15.63,2,2,0,0,1,.35,1.27.51.51,0,0,1-.47.23c-.12,0-.32-.08-.42-.86a5.67,5.67,0,0,0-.23-1.8c-.09-.23-.16-.46-.38-.06a1,1,0,0,0-.13.89,2.6,2.6,0,0,1,.14,1.37,1.83,1.83,0,0,1-.26.38.44.44,0,0,1-.56.08.62.62,0,0,1-.34-.48,6.8,6.8,0,0,0-.05-1.52.27.27,0,0,0-.46-.09,3.41,3.41,0,0,0-.84,1.71c-.13.42-.27.3-.36.13-.24-.22-.26-1.94-.54-1.66C16.21,14.44,16.93,15.87,17.43,15.73Z"/><path class="cls-2" d="M24.2,18.54h0v0l-.14-.08H21.41l-.08,0h0l.09,0c.63-.09,1.76-.28,1.84-1.36a.9.9,0,1,0-1.76,0c0,.14.06.43-.1.46-1,.09-2.05.7-2.08,1.14h0a.27.27,0,0,1-.13-.27A5.11,5.11,0,0,0,18.46,16c-.14-.14-.2-.19-.24-.2h0L18,16a.66.66,0,0,0-.15.56s.25.71.46,1.19a3.86,3.86,0,0,1,.18,1.62A4,4,0,0,1,16.9,21a.82.82,0,0,1-.68,0h0a.41.41,0,0,1-.18-.38h0A3.81,3.81,0,0,0,17.68,19a1.76,1.76,0,0,0,0-1.22,1.15,1.15,0,0,0-.28-.56h0c.09-.05.33.13.36,0a1.7,1.7,0,0,0-.47-.86.38.38,0,0,0-.57,0c-.2.11-.24.51-.15.85s.4.3.6.83h0s.07.4,0,.54A6.42,6.42,0,0,1,16,19.66h0a.76.76,0,0,1,0-.16c0-.16.05-.51.05-.57h0c-.35.23-.46.92-.53,1.13A17.3,17.3,0,0,0,13,21.75c-.31.48,2.09-.54,2.37-.67h0a1.89,1.89,0,0,0,.22.45,1.27,1.27,0,0,0,1.29.41,4.12,4.12,0,0,0,1.88-1.55c.07-.11.18-.19.29-.11a2.91,2.91,0,0,0,2.65,1.39c.31-.36.16-.54,0-.62s-.65-.26-.74-.5.08-.41.37-.56a12.49,12.49,0,0,0,2.45-.47,2.14,2.14,0,0,1,.28-.84A.53.53,0,0,1,24.2,18.54ZM22,16.87v0h0a0,0,0,0,0,0,0,.09.09,0,0,1,.07,0,.45.45,0,0,1,.21.06c.11.06.17.15.16.22h0a.24.24,0,0,1-.28,0,.29.29,0,0,1-.17-.22Zm-1.07,2.67c-.28.1-.56.18-.56.59a.57.57,0,0,1,0,.36,0,0,0,0,0,0,0h0a.54.54,0,0,1-.25-.09,1.53,1.53,0,0,1-.74-1.09.27.27,0,0,1,.28-.29h0a8.64,8.64,0,0,0,1.12.13C21.08,19.2,21.23,19.44,20.94,19.54Z"/><path class="cls-2" d="M11.06,13.16c.31.14.88.08.86-.42a1.79,1.79,0,0,0,0-.23c-.06-.14-.23-.11-.27,0s0,.13,0,.16-.13,0-.12-.13a.26.26,0,0,0-.05-.12h-.07s0,0-.07.05a.36.36,0,0,0,0,.11c0,.05,0,.07-.06.07s0,0-.06,0-.05,0-.05-.07a.25.25,0,0,0,0-.12s0,0-.07,0-.18.19-.17.26S10.83,13.06,11.06,13.16Z"/><path class="cls-2" d="M20.06,17c.3.15,1,.06.86-.41a1.79,1.79,0,0,0,0-.23c-.06-.15-.23-.11-.27,0s0,.13,0,.15-.13,0-.12-.12a.27.27,0,0,0-.06-.12l-.06,0s0,0-.07.05a.5.5,0,0,0,0,.12.09.09,0,0,1-.06.07h-.07s0,0,0-.07a.37.37,0,0,0,0-.12.07.07,0,0,0-.07,0c-.17,0-.18.19-.17.26S19.83,16.87,20.06,17Z"/><path class="cls-2" d="M25.3,15.38c.31.15.89.09.86-.4,0-.05,0-.19,0-.24s-.24-.11-.27,0,0,.12,0,.15-.12,0-.12-.13a.19.19,0,0,0-.05-.11s0,0-.07,0,0,0-.06.05a.35.35,0,0,0,0,.11c0,.05,0,.07-.05.07s0,0-.07,0,0,0,0-.07a.5.5,0,0,0,0-.12l-.07,0c-.17,0-.19.19-.18.26S25.08,15.29,25.3,15.38Z"/><path class="cls-2" d="M31.32,15.45c.09,1.15.12,2.21.21,3.37,0,.49-.17,1.15-.32,1.22s-.22.12-.36,0a4.17,4.17,0,0,1-.54-.71.32.32,0,0,0-.52,0A7,7,0,0,0,28.87,21c-.08.12-.29.22-.53,0A2.4,2.4,0,0,1,28,19.34a1.89,1.89,0,0,0-.18,1.82,1.47,1.47,0,0,0,.66.75.48.48,0,0,0,.7-.08c.31-.32.31-1.16.46-1.32a.27.27,0,0,1,.49-.11,1.27,1.27,0,0,0,.45.38.75.75,0,0,0,1,.07,1.11,1.11,0,0,0,.52-.64,22.41,22.41,0,0,0,0-3.62v-.15c0-.07-.19-1-.27-1.38,0-.1,0-.17,0-.18s0-.74-.07-.91,0-.09,0-.08A.51.51,0,0,0,32,14c.07,0,.14-.12.1-.25l-.74-1.35c0-.05-.13-.12-.22,0a.55.55,0,0,0-.19.4c0,.32.08.65.11,1l0,.13.27,1.51Z"/><path class="cls-2" d="M25.51,13.47c.11.31-.08.6,0,.64s.25-.32.31-.65a1,1,0,0,0-.41-.94c-.17,0-.41.05-.33.28S25.45,13.27,25.51,13.47Z"/><path class="cls-2" d="M28.34,20.65c.21,0,.46-.49.57-1a8.76,8.76,0,0,0-.06-1.47c0-.39-.45-3.57-.53-3.87-.11-.56.41-.08.36-.4s-.63-1-.77-1.37c-.09-.16-.05-.29-.24,0a3.08,3.08,0,0,0-.17,1.39A30.77,30.77,0,0,1,28.34,20.65Z"/><path class="cls-2" d="M33.67,14.35c0,.15-.08.64,0,.69s.22-.34.28-.71c0-.2-.12-.89-.37-1s-.38.06-.3.31S33.61,14.13,33.67,14.35Z"/><path class="cls-2" d="M15.06,19.68c.09,0,.22-.25.27-.52s-.12-.66-.36-.75-.35,0-.28.22.32.26.34.54C15.08,19.28,15,19.64,15.06,19.68Z"/><path class="cls-2" d="M8.6,13.14c.05.11,0,.49.05.52s.21-.26.26-.53,0-.68-.35-.78c-.14,0-.35.05-.28.23S8.55,13,8.6,13.14Z"/><path class="cls-2" d="M15.55,14.8a.64.64,0,0,0-.21.84.42.42,0,0,0,.44.14c.27,0,.43-.5.43-.5s0-.15-.31.13c-.13,0-.15,0-.18-.1a.59.59,0,0,1,0-.41C15.81,14.77,15.7,14.71,15.55,14.8Z"/><path class="cls-2" d="M17.6,13.17a.38.38,0,0,0,.16-.25c0-.21-.22.1-.25-.13s.11-.31.27-.51c0-.15,0-.25-.19-.13a1,1,0,0,0-.42.69c0,.19,0,.19.08.3S17.42,13.26,17.6,13.17Z"/><path class="cls-2" d="M19.44,13.27a2.3,2.3,0,0,0,.19-.87c-.06-.31-.27-.3-.4,0a4.39,4.39,0,0,0-.12.81C19.06,13.45,19.32,13.53,19.44,13.27Z"/><path class="cls-2" d="M31,16.65s-1.42,1-1.46,1.05-.07.57,0,.51a5.66,5.66,0,0,0,1.5-1C31.14,17.17,31.17,16.6,31,16.65Z"/><path class="cls-2" d="M30.85,19.39c.1.05.35-.26.34-.64,0-.2-.07-.94-.32-1.06a.25.25,0,0,0-.29.33c0,.12.18.52.23.74S30.75,19.35,30.85,19.39Z"/><path class="cls-2" d="M22.8,21.51a.19.19,0,0,0,.26,0,4.22,4.22,0,0,1,.9-.32c.11,0,.1-.29-.07-.3a1,1,0,0,0-.66.2c-.14,0-.16-.06-.19-.13s.07-.32.05-.46a.27.27,0,0,0-.27-.05,1.77,1.77,0,0,0-.41.36c-.06,0-.06.08,0,.16s.13.07.23,0,.18.07.17.22A.25.25,0,0,0,22.8,21.51Z"/><path class="cls-2" d="M33.09,21.44c-.06-.06-.19,0-.27,0s-.18,0-.12-.14a.61.61,0,0,0,.11-.21c0-.1,0-.16-.14-.21a1.61,1.61,0,0,0-.38,0c-.09,0-.12.06-.14.17s.11.16.21.23a.18.18,0,0,1,0,.27c-.1.1-.17.15-.27.24s-.08.2.06.24.88-.32.88-.33A.18.18,0,0,0,33.09,21.44Z"/></svg>