<svg id="레이어_1" data-name="레이어 1" xmlns="http://www.w3.org/2000/svg" viewBox="0 0 43 43"><defs><style>.cls-1{fill:#ff1228;}.cls-2{fill:#fff;}</style></defs><title>싱가포르</title><path class="cls-1" d="M41.68,11A16.82,16.82,0,0,0,38.47,5.4a15.21,15.21,0,0,0-6.23-4C29.79.51,27.14.11,22,0H21c-5.16.11-7.81.51-10.26,1.36a15.21,15.21,0,0,0-6.23,4A16.82,16.82,0,0,0,1.32,11,28.13,28.13,0,0,0,0,19c0,1.07,0,1.22,0,2.48S0,22.91,0,24a1.69,1.69,0,0,1,0,.23H43A1.69,1.69,0,0,1,43,24c0-1.07,0-1.22,0-2.48s0-1.41,0-2.48A28.13,28.13,0,0,0,41.68,11ZM14,12.94l-1-.78-1,.78.39-1.27-1-.79H12.6L13,9.61l.39,1.27h1.26l-1,.79Zm-1.95,6.48a7,7,0,0,1,0-14.06,6.89,6.89,0,0,1,1.78.23,7.15,7.15,0,0,0-4.61,6.8,7.15,7.15,0,0,0,4.61,6.8A6.89,6.89,0,0,1,12.06,19.42Zm3.57-1.83-1-.79-1,.79L14,16.31l-1-.78h1.26l.39-1.28L15,15.53h1.26l-1,.78Zm.3-7.59.38-1.27-1-.79h1.26l.38-1.27.39,1.27h1.26l-1,.79L18,10l-1-.79Zm4.47,7.59-1-.79-1,.79.39-1.28-1-.78H19l.39-1.28.39,1.28H21l-1,.78Zm1.5-4.65-1-.78-1,.78.39-1.27-1-.79h1.26l.39-1.27.39,1.27h1.26l-1,.79Z"/><path class="cls-2" d="M1.32,32A16.87,16.87,0,0,0,4.53,37.6a15.21,15.21,0,0,0,6.23,4c2.45.85,5.1,1.26,10.26,1.36h1c5.16-.1,7.81-.51,10.26-1.36a15.21,15.21,0,0,0,6.23-4A16.87,16.87,0,0,0,41.68,32,27.89,27.89,0,0,0,43,24.21H0A27.89,27.89,0,0,0,1.32,32Z"/><path class="cls-2" d="M9.23,12.39a7.15,7.15,0,0,1,4.61-6.8,6.89,6.89,0,0,0-1.78-.23,7,7,0,0,0,0,14.06,6.89,6.89,0,0,0,1.78-.23A7.15,7.15,0,0,1,9.23,12.39Z"/><polygon class="cls-2" points="17.57 8.73 18.59 7.94 17.33 7.94 16.94 6.67 16.55 7.94 15.3 7.94 16.31 8.73 15.93 10 16.94 9.21 17.96 10 17.57 8.73"/><polygon class="cls-2" points="21.27 10.88 20.88 9.61 20.49 10.88 19.23 10.88 20.25 11.67 19.86 12.94 20.88 12.16 21.9 12.94 21.51 11.67 22.53 10.88 21.27 10.88"/><polygon class="cls-2" points="13.38 10.88 12.99 9.61 12.6 10.88 11.35 10.88 12.36 11.67 11.97 12.94 12.99 12.16 14.01 12.94 13.62 11.67 14.64 10.88 13.38 10.88"/><polygon class="cls-2" points="15 15.53 14.61 14.25 14.22 15.53 12.96 15.53 13.98 16.31 13.59 17.59 14.61 16.8 15.63 17.59 15.24 16.31 16.26 15.53 15 15.53"/><polygon class="cls-2" points="19.77 15.53 19.38 14.25 18.99 15.53 17.73 15.53 18.75 16.31 18.36 17.59 19.38 16.8 20.4 17.59 20.01 16.31 21.03 15.53 19.77 15.53"/></svg>