<svg id="레이어_1" data-name="레이어 1" xmlns="http://www.w3.org/2000/svg" viewBox="0 0 43 43"><defs><style>.cls-1{fill:#fff;}.cls-2{fill:#f9b500;}.cls-3{fill:#12100b;}.cls-4{fill:#2c2e7f;}.cls-5{fill:#007646;}.cls-6{fill:#d92c23;}</style></defs><title>남아프리카공화국</title><path class="cls-1" d="M42.86,17.15a25.73,25.73,0,0,0-.39-3H26.22L8.45,2.38A15.08,15.08,0,0,0,5.86,4.13l19.41,13Z"/><path class="cls-1" d="M42.45,29a29,29,0,0,0,.41-3H25.27L5.89,38.9a15.91,15.91,0,0,0,2.67,1.78L26.17,29Z"/><path class="cls-2" d="M1.15,11.61a25.35,25.35,0,0,0-.7,3l10.86,7L.47,28.5a23.92,23.92,0,0,0,.69,2.94L16,21.55Z"/><path class="cls-3" d="M.42,14.76A35.29,35.29,0,0,0,0,19c0,1.07,0,1.22,0,2.48S0,22.91,0,24a34.55,34.55,0,0,0,.4,4.31l10.24-6.74Z"/><path class="cls-3" d="M.45,14.58l0,.18,10.25,6.79L.43,28.29a1.55,1.55,0,0,0,0,.21l10.84-6.95Z"/><path class="cls-4" d="M26.17,29,8.56,40.68a15.92,15.92,0,0,0,2.2,1c2.45.85,5.1,1.25,10.26,1.36h1c5.16-.11,7.81-.51,10.26-1.36a15.21,15.21,0,0,0,6.23-4A16.87,16.87,0,0,0,41.68,32a22.84,22.84,0,0,0,.77-3Z"/><path class="cls-5" d="M42.86,25.91c0-.67.09-1.31.11-1.93,0-1.07,0-1.22,0-2.48s0-1.41,0-2.48c0-.6-.06-1.22-.11-1.87H25.27L5.86,4.13A13.36,13.36,0,0,0,4.53,5.4,16.82,16.82,0,0,0,1.32,11c-.06.19-.12.39-.17.58L16,21.55,1.16,31.44c.06.18.11.36.16.54A16.87,16.87,0,0,0,4.53,37.6a12.92,12.92,0,0,0,1.36,1.3l19.38-13Z"/><path class="cls-6" d="M42.47,14.15A22.66,22.66,0,0,0,41.68,11,16.82,16.82,0,0,0,38.47,5.4a15.21,15.21,0,0,0-6.23-4C29.79.51,27.14.11,22,0H21c-5.16.11-7.81.51-10.26,1.36a14.87,14.87,0,0,0-2.31,1L26.22,14.15Z"/></svg>