<svg id="레이어_1" data-name="레이어 1" xmlns="http://www.w3.org/2000/svg" viewBox="0 0 43 43"><defs><style>.cls-1{fill:#0067aa;}.cls-2{fill:#ffd500;}</style></defs><title>스웨덴</title><path class="cls-1" d="M9.9,1.68A15.22,15.22,0,0,0,4.53,5.4,16.87,16.87,0,0,0,1.32,11,25.8,25.8,0,0,0,.16,16.85H9.9Z"/><path class="cls-1" d="M.16,26.11A25.68,25.68,0,0,0,1.32,32,16.87,16.87,0,0,0,4.53,37.6,15.22,15.22,0,0,0,9.9,41.32V26.11Z"/><path class="cls-1" d="M38.47,5.4a15.21,15.21,0,0,0-6.23-4C29.79.51,27.14.11,22,0H21L18.84.07V16.85h24A25.8,25.8,0,0,0,41.68,11,16.87,16.87,0,0,0,38.47,5.4Z"/><path class="cls-1" d="M18.84,42.93,21,43h1c5.16-.11,7.81-.51,10.26-1.36a15.21,15.21,0,0,0,6.23-4A16.87,16.87,0,0,0,41.68,32a25.68,25.68,0,0,0,1.16-5.87h-24Z"/><path class="cls-2" d="M18.84.07a27.15,27.15,0,0,0-8.08,1.29l-.86.32V16.85H.16C.1,17.6.06,18.33,0,19c0,1.07,0,1.22,0,2.48S0,22.91,0,24c0,.68.07,1.39.13,2.13H9.9V41.32l.86.32a27.15,27.15,0,0,0,8.08,1.29V26.11h24c.06-.74.1-1.45.13-2.13,0-1.07,0-1.22,0-2.48s0-1.41,0-2.48c0-.69-.07-1.42-.13-2.17h-24Z"/></svg>