<svg id="레이어_1" data-name="레이어 1" xmlns="http://www.w3.org/2000/svg" viewBox="0 0 43 43"><defs><style>.cls-1{fill:#ff3c30;}.cls-2{fill:#fff;}</style></defs><title>스위스</title><path class="cls-1" d="M41.68,11A16.92,16.92,0,0,0,38.47,5.4a15.21,15.21,0,0,0-6.23-4C29.79.51,27.14.11,22,0H21c-5.16.11-7.81.51-10.26,1.36a15.21,15.21,0,0,0-6.23,4A16.92,16.92,0,0,0,1.32,11,28.13,28.13,0,0,0,0,19c0,1.07,0,1.22,0,2.48S0,22.91,0,24a28.13,28.13,0,0,0,1.29,8A16.92,16.92,0,0,0,4.53,37.6a15.21,15.21,0,0,0,6.23,4c2.45.85,5.1,1.25,10.26,1.36h1c5.16-.11,7.81-.51,10.26-1.36a15.21,15.21,0,0,0,6.23-4A16.92,16.92,0,0,0,41.68,32,28.13,28.13,0,0,0,43,24c0-1.07,0-1.22,0-2.48s0-1.41,0-2.48A28.13,28.13,0,0,0,41.68,11ZM33,24.75H24.73v7.78H18.29V24.74H10V18.29H18.3V10.51h6.44V18.3H33Z"/><polygon class="cls-2" points="24.75 10.52 18.31 10.51 18.3 18.3 10.02 18.29 10.01 24.73 18.3 24.74 18.29 32.53 24.73 32.53 24.73 24.75 33.01 24.75 33.02 18.31 24.74 18.3 24.75 10.52"/></svg>