<svg id="레이어_1" data-name="레이어 1" xmlns="http://www.w3.org/2000/svg" viewBox="0 0 43 43"><defs><style>.cls-1{fill:#f20000;}.cls-2{fill:#0029cc;}.cls-3{fill:#fff;}</style></defs><title>대만</title><path class="cls-1" d="M41.68,11A16.87,16.87,0,0,0,38.47,5.4a15.21,15.21,0,0,0-6.23-4C29.79.51,27.14.11,22,0h-.17V20.13H0c0,.35,0,.7,0,1.37C0,22.76,0,22.91,0,24a28.13,28.13,0,0,0,1.29,8A16.82,16.82,0,0,0,4.53,37.6a15.21,15.21,0,0,0,6.23,4c2.45.85,5.1,1.25,10.26,1.36h1c5.16-.11,7.81-.51,10.26-1.36a15.21,15.21,0,0,0,6.23-4A16.82,16.82,0,0,0,41.68,32,28.13,28.13,0,0,0,43,24c0-1.07,0-1.22,0-2.48s0-1.41,0-2.48A28.25,28.25,0,0,0,41.68,11Z"/><path class="cls-2" d="M21.81,0H21c-5.16.11-7.81.51-10.26,1.36a15.21,15.21,0,0,0-6.23,4A16.87,16.87,0,0,0,1.32,11,28.25,28.25,0,0,0,0,19c0,.51,0,.81,0,1.11h21.8ZM15.45,5.33,14.6,8.5a4.08,4.08,0,0,0-1.47-.85Zm2.6,2.6-2.32,2.32a4.08,4.08,0,0,0-.85-1.47ZM11.9,4.38l.85,3.17a4,4,0,0,0-.85-.09,4,4,0,0,0-.85.09Zm0,3.55a3.55,3.55,0,1,1-3.55,3.55A3.56,3.56,0,0,1,11.9,7.93Zm-1.23-.28A4.08,4.08,0,0,0,9.2,8.5L8.35,5.33ZM8.92,8.78a3.94,3.94,0,0,0-.85,1.47L5.74,7.93ZM8,10.64a4,4,0,0,0,0,1.69l-3.17-.85Zm.11,2.07a3.9,3.9,0,0,0,.85,1.48L5.74,15Zm.28,4.92.85-3.17a3.94,3.94,0,0,0,1.47.85Zm3.55,1-.85-3.17a4,4,0,0,0,.85.09,4,4,0,0,0,.85-.09Zm1.23-3.28a3.94,3.94,0,0,0,1.47-.85l.85,3.17Zm1.75-1.12a4,4,0,0,0,.85-1.48L18.05,15Zm1-1.86a4.61,4.61,0,0,0,.09-.85,4.6,4.6,0,0,0-.09-.84l3.17.84Z"/><path class="cls-3" d="M13.13,15.31l2.32,2.32-.85-3.17A3.94,3.94,0,0,1,13.13,15.31Z"/><path class="cls-3" d="M8.07,12.71,5.74,15l3.18-.84A3.9,3.9,0,0,1,8.07,12.71Z"/><path class="cls-3" d="M8.35,17.63l2.32-2.32a3.94,3.94,0,0,1-1.47-.85Z"/><path class="cls-3" d="M11.05,15.42l.85,3.17.85-3.17a4,4,0,0,1-.85.09A4,4,0,0,1,11.05,15.42Z"/><path class="cls-3" d="M14.88,14.19l3.17.84-2.32-2.32A4,4,0,0,1,14.88,14.19Z"/><path class="cls-3" d="M15.93,11.48a4.61,4.61,0,0,1-.09.85L19,11.48l-3.17-.84A4.6,4.6,0,0,1,15.93,11.48Z"/><path class="cls-3" d="M10.67,7.65,8.35,5.33,9.2,8.5A4.08,4.08,0,0,1,10.67,7.65Z"/><path class="cls-3" d="M8.35,11.48A3.55,3.55,0,1,0,11.9,7.93,3.55,3.55,0,0,0,8.35,11.48Z"/><path class="cls-3" d="M12.75,7.55,11.9,4.38l-.85,3.17a4,4,0,0,1,.85-.09A4,4,0,0,1,12.75,7.55Z"/><path class="cls-3" d="M15.73,10.25l2.32-2.32-3.17.85A4.08,4.08,0,0,1,15.73,10.25Z"/><path class="cls-3" d="M8.92,8.78,5.74,7.93l2.33,2.32A3.94,3.94,0,0,1,8.92,8.78Z"/><path class="cls-3" d="M15.45,5.33,13.13,7.65a4.08,4.08,0,0,1,1.47.85Z"/><path class="cls-3" d="M7.87,11.48A3.86,3.86,0,0,1,8,10.64l-3.17.84L8,12.33A3.89,3.89,0,0,1,7.87,11.48Z"/></svg>