<svg id="레이어_1" data-name="레이어 1" xmlns="http://www.w3.org/2000/svg" viewBox="0 0 43 43"><defs><style>.cls-1{fill:#ff0811;}.cls-2{fill:#fff;}.cls-3{fill:#001e81;}</style></defs><title>태국</title><path class="cls-1" d="M4.53,37.6a15.21,15.21,0,0,0,6.23,4c2.45.85,5.1,1.26,10.26,1.36h1c5.16-.1,7.81-.51,10.26-1.36a15.21,15.21,0,0,0,6.23-4q.28-.32.57-.69H4Q4.25,37.28,4.53,37.6Z"/><path class="cls-1" d="M32.24,1.36C29.79.51,27.14.11,22,0H21c-5.16.11-7.81.51-10.26,1.36a15.21,15.21,0,0,0-6.23,4q-.29.31-.57.69H39q-.28-.37-.57-.69A15.21,15.21,0,0,0,32.24,1.36Z"/><path class="cls-2" d="M1.32,11a24,24,0,0,0-.71,2.7H42.39a24,24,0,0,0-.71-2.7A17.35,17.35,0,0,0,39,6.09H4A17.35,17.35,0,0,0,1.32,11Z"/><path class="cls-2" d="M1.32,32A17.43,17.43,0,0,0,4,36.91H39A17.43,17.43,0,0,0,41.68,32a24.13,24.13,0,0,0,.71-2.71H.61A24.13,24.13,0,0,0,1.32,32Z"/><path class="cls-3" d="M0,19c0,1.07,0,1.22,0,2.48S0,22.91,0,24a32.58,32.58,0,0,0,.58,5.29H42.39A32.58,32.58,0,0,0,43,24c0-1.07,0-1.22,0-2.48s0-1.41,0-2.48a32.58,32.58,0,0,0-.58-5.29H.61A32.58,32.58,0,0,0,0,19Z"/></svg>