<svg id="레이어_1" data-name="레이어 1" xmlns="http://www.w3.org/2000/svg" viewBox="0 0 43 43"><defs><style>.cls-1{fill:#fff;}.cls-2{fill:#bf0a30;}.cls-3{fill:#002868;}</style></defs><title>무제-7</title><path class="cls-1" d="M41.68,32c.23-.72.43-1.43.59-2.13H.73c.16.7.36,1.41.59,2.13.15.42.32.85.5,1.28H41.18C41.36,32.83,41.53,32.4,41.68,32Z"/><path class="cls-2" d="M42.81,26.44H.19a27.61,27.61,0,0,0,.54,3.41H42.27A27.61,27.61,0,0,0,42.81,26.44Z"/><path class="cls-1" d="M38.47,37.6c.25-.27.5-.59.75-.92H3.78c.25.33.5.65.75.92a14.3,14.3,0,0,0,3,2.49H35.47A14.3,14.3,0,0,0,38.47,37.6Z"/><path class="cls-2" d="M21,43h1c5.16-.11,7.81-.51,10.26-1.36a16,16,0,0,0,3.23-1.55H7.53a16,16,0,0,0,3.23,1.55C13.21,42.49,15.86,42.89,21,43Z"/><path class="cls-2" d="M41.18,33.26H1.82a17.51,17.51,0,0,0,2,3.42H39.22A17.51,17.51,0,0,0,41.18,33.26Z"/><path class="cls-1" d="M43,24c0-.42,0-.7,0-.95H21.93v0H0c0,.25,0,.53,0,.93,0,.78.08,1.6.16,2.46H42.81C42.89,25.58,42.94,24.76,43,24Z"/><path class="cls-2" d="M21.93,16.2H42.77a26,26,0,0,0-.59-3.41H21.93Z"/><path class="cls-1" d="M21.93,6H39c-.16-.2-.32-.39-.48-.56a14.9,14.9,0,0,0-3.6-2.85H21.93Z"/><path class="cls-2" d="M21.93,9.37H41A17.77,17.77,0,0,0,39,6h-17Z"/><path class="cls-2" d="M21.93,23H43c0-.41,0-.76,0-1.53,0-1,0-1.3,0-1.89h-21Z"/><path class="cls-2" d="M34.87,2.55a15.15,15.15,0,0,0-2.63-1.19C29.79.51,27.14.11,22,0h-.05V2.55Z"/><path class="cls-1" d="M21.93,12.79H42.18c-.15-.58-.31-1.17-.5-1.77s-.41-1.1-.66-1.65H21.93Z"/><path class="cls-1" d="M21.93,19.61H43c0-.17,0-.35,0-.59,0-.89-.09-1.84-.2-2.82H21.93Z"/><path class="cls-3" d="M21.93,23V0H21c-4.71.1-7.33.44-9.61,1.15l-.26.18.18.57-.48-.35-.48.35.15-.45a15.27,15.27,0,0,0-6,4,16.93,16.93,0,0,0-3.17,5.52h.4l.18-.56.19.56h.59l-.48.35.18.57-.48-.35-.48.35.18-.57L1.32,11A26.73,26.73,0,0,0,.07,18.27H.45l-.4.29c0,.1,0,.2,0,.3l.11.33L0,19.1c0,1,0,1.17,0,2.4,0,.79,0,1.14,0,1.55H21.93ZM19.58,1l.18-.56L20,1h.59l-.48.35.18.57-.48-.35-.48.35.19-.57L19,1ZM15.12,1l.19-.56.18.56h.6l-.49.35.19.57-.48-.35-.49.35L15,1.33,14.53,1ZM6.88,11.84l-.48-.35-.48.35.18-.57-.48-.35h.59l.19-.56.18.56h.6l-.48.35Zm4.45,0-.48-.35-.48.35.18-.57-.48-.35h.6l.18-.56.19.56h.59l-.48.35ZM14.53,6h.59l.19-.57.18.57h.6l-.49.35.19.57-.48-.35-.49.35L15,6.3Zm-3.2.92-.48-.35-.48.35.18-.57L10.07,6h.6l.18-.57L11,6h.59l-.48.35ZM9.15,9.33,8.67,9l-.48.35.18-.56-.48-.35h.59l.19-.57.18.57h.6L9,8.77Zm4.46-4.95L13.12,4l-.48.35.19-.56-.48-.35h.59l.18-.57.19.57h.59l-.48.35Zm4.45,0L17.58,4l-.48.35.18-.56-.48-.35h.6l.18-.57.18.57h.6l-.48.35Zm-2.94,6.54.19-.56.18.56h.6l-.49.35.19.57-.48-.35-.49.35.19-.57-.48-.35Zm5.12.92-.48-.35-.48.35.19-.57L19,10.92h.6l.18-.56.19.56h.59l-.48.35ZM18.06,9.51l-.48-.35-.48.35L17.28,9,16.8,8.6h.6L17.58,8l.18.57h.6L17.88,9Zm2.18-2.64-.48-.35-.48.35.19-.57L19,6h.6l.18-.57L20,6h.59l-.48.35ZM8.48,3.29l.19-.57.18.57h.6L9,3.64l.18.57-.48-.36-.48.36.18-.57-.48-.35ZM5.62,6h.59l.19-.57L6.58,6h.6L6.7,6.3l.18.57L6.4,6.52l-.48.35L6.1,6.3ZM4,8.37l.18-.57.19.57H5l-.48.35.19.56-.49-.35-.48.35.19-.56-.49-.35Zm8.32.23h.59L13.12,8l.19.57h.59L13.42,9l.19.56-.49-.35-.48.35L12.83,9Zm-7.7,5.71L4.17,14l-.48.35.18-.56-.48-.36H4l.18-.56.18.56H5l-.48.36Zm1,1.7h.59l.19-.57.18.57h.6l-.48.34.18.57-.48-.35-.48.35.18-.57Zm3.49-1.65L8.63,14l-.49.35.19-.57-.48-.35h.59l.19-.56.18.56H9.4l-.48.35Zm1,1.65h.6l.18-.57L11,16h.59l-.48.34.18.57-.48-.35-.48.35.18-.57Zm3.49-1.47-.48-.35-.48.35.18-.57-.48-.35h.6l.18-.56.18.56h.6l-.48.35Zm1,1.47h.59l.19-.57.18.57h.6l-.49.34.19.57-.48-.35-.49.35.19-.57ZM18,14.54l-.49-.35-.48.35.19-.57-.48-.35h.59l.18-.56.19.56h.59l-.48.35Zm-.05,5-.48-.35-.48.35.18-.57-.48-.35h.6l.18-.57.18.57h.6l-.48.35Zm-4.45,0L13,19.16l-.49.35.19-.57-.48-.35h.59L13,18l.18.57h.59l-.48.35Zm-4.46-.18L8.58,19l-.48.35.18-.57-.48-.35h.59l.19-.56.18.56h.6l-.48.35Zm-5.12-1,.19-.56.18.56H4.9l-.48.35.19.57-.48-.35-.49.35.19-.57-.48-.35Zm16.3-1.44-.48-.35-.48.35.19-.57L19,16h.6l.18-.57L20,16h.59l-.48.34ZM1.16,16h.6l.18-.57.19.57h.59l-.48.34.18.57-.48-.35-.48.35.18-.57Zm1.26,5.76-.48-.35-.48.35.18-.56-.48-.35h.6l.18-.57.19.57h.59l-.48.35Zm4.46,0-.48-.35-.48.35.18-.56-.48-.35h.59l.19-.57.18.57h.6l-.48.35Zm4.45,0-.48-.35-.48.35.18-.56-.48-.35h.6l.18-.57.19.57h.59l-.48.35Zm4.46,0-.48-.35-.49.35.19-.56-.48-.35h.59l.19-.57.18.57h.6l-.49.35Zm4.45,0-.48-.35-.48.35.19-.56L19,20.86h.6l.18-.57.19.57h.59l-.48.35Z"/><polygon class="cls-1" points="14.82 1.9 15.31 1.55 15.79 1.9 15.61 1.33 16.09 0.98 15.49 0.98 15.31 0.42 15.12 0.98 14.53 0.98 15.01 1.33 14.82 1.9"/><polygon class="cls-1" points="15.31 6.52 15.79 6.87 15.61 6.3 16.09 5.95 15.49 5.95 15.31 5.38 15.12 5.95 14.53 5.95 15.01 6.3 14.82 6.87 15.31 6.52"/><polygon class="cls-1" points="14.82 11.84 15.31 11.49 15.79 11.84 15.61 11.27 16.09 10.92 15.49 10.92 15.31 10.36 15.12 10.92 14.53 10.92 15.01 11.27 14.82 11.84"/><polygon class="cls-1" points="14.82 16.92 15.31 16.57 15.79 16.92 15.61 16.35 16.09 16.01 15.49 16.01 15.31 15.44 15.12 16.01 14.53 16.01 15.01 16.35 14.82 16.92"/><polygon class="cls-1" points="15.49 20.86 15.31 20.29 15.12 20.86 14.53 20.86 15.01 21.21 14.82 21.77 15.31 21.42 15.79 21.77 15.61 21.21 16.09 20.86 15.49 20.86"/><path class="cls-1" d="M10.85,1.55l.48.35-.18-.57.26-.18c-.22.06-.44.13-.65.21a2.34,2.34,0,0,0-.24.09l-.15.45Z"/><polygon class="cls-1" points="11.63 5.95 11.04 5.95 10.85 5.38 10.67 5.95 10.07 5.95 10.55 6.3 10.37 6.87 10.85 6.52 11.33 6.87 11.15 6.3 11.63 5.95"/><polygon class="cls-1" points="11.04 10.92 10.85 10.36 10.67 10.92 10.07 10.92 10.55 11.27 10.37 11.84 10.85 11.49 11.33 11.84 11.15 11.27 11.63 10.92 11.04 10.92"/><polygon class="cls-1" points="10.37 16.92 10.85 16.57 11.33 16.92 11.15 16.35 11.63 16.01 11.04 16.01 10.85 15.44 10.67 16.01 10.07 16.01 10.55 16.35 10.37 16.92"/><polygon class="cls-1" points="11.04 20.86 10.85 20.29 10.67 20.86 10.07 20.86 10.55 21.21 10.37 21.77 10.85 21.42 11.33 21.77 11.15 21.21 11.63 20.86 11.04 20.86"/><polygon class="cls-1" points="5.92 6.87 6.4 6.52 6.88 6.87 6.7 6.3 7.18 5.95 6.58 5.95 6.4 5.38 6.21 5.95 5.62 5.95 6.1 6.3 5.92 6.87"/><polygon class="cls-1" points="6.58 10.92 6.4 10.36 6.21 10.92 5.62 10.92 6.1 11.27 5.92 11.84 6.4 11.49 6.88 11.84 6.7 11.27 7.18 10.92 6.58 10.92"/><polygon class="cls-1" points="5.92 16.92 6.4 16.57 6.88 16.92 6.7 16.35 7.18 16.01 6.58 16.01 6.4 15.44 6.21 16.01 5.62 16.01 6.1 16.35 5.92 16.92"/><polygon class="cls-1" points="6.58 20.86 6.4 20.29 6.21 20.86 5.62 20.86 6.1 21.21 5.92 21.77 6.4 21.42 6.88 21.77 6.7 21.21 7.18 20.86 6.58 20.86"/><path class="cls-1" d="M1.46,11.84l.48-.35.48.35-.18-.57.48-.35H2.13l-.19-.56-.18.56h-.4a.3.3,0,0,1,0,.1v0l.32.23Z"/><polygon class="cls-1" points="1.46 16.92 1.94 16.57 2.42 16.92 2.24 16.35 2.72 16.01 2.13 16.01 1.94 15.44 1.76 16.01 1.16 16.01 1.64 16.35 1.46 16.92"/><polygon class="cls-1" points="2.13 20.86 1.94 20.29 1.76 20.86 1.16 20.86 1.64 21.21 1.46 21.77 1.94 21.42 2.42 21.77 2.24 21.21 2.72 20.86 2.13 20.86"/><polygon class="cls-1" points="17.76 3.47 17.58 2.9 17.39 3.47 16.8 3.47 17.28 3.81 17.1 4.38 17.58 4.03 18.06 4.38 17.88 3.81 18.36 3.47 17.76 3.47"/><polygon class="cls-1" points="18.36 8.6 17.76 8.6 17.58 8.03 17.39 8.6 16.8 8.6 17.28 8.95 17.1 9.51 17.58 9.16 18.06 9.51 17.88 8.95 18.36 8.6"/><polygon class="cls-1" points="17.72 13.62 17.54 13.06 17.35 13.62 16.75 13.62 17.24 13.97 17.05 14.54 17.54 14.19 18.02 14.54 17.83 13.97 18.32 13.62 17.72 13.62"/><polygon class="cls-1" points="17.68 18.59 17.49 18.02 17.31 18.59 16.71 18.59 17.19 18.94 17.01 19.51 17.49 19.16 17.97 19.51 17.79 18.94 18.27 18.59 17.68 18.59"/><polygon class="cls-1" points="13.31 3.47 13.12 2.9 12.94 3.47 12.35 3.47 12.83 3.81 12.64 4.38 13.12 4.03 13.61 4.38 13.42 3.81 13.9 3.47 13.31 3.47"/><polygon class="cls-1" points="12.64 9.51 13.12 9.16 13.61 9.51 13.42 8.95 13.9 8.6 13.31 8.6 13.12 8.03 12.94 8.6 12.35 8.6 12.83 8.95 12.64 9.51"/><polygon class="cls-1" points="13.26 13.62 13.08 13.06 12.89 13.62 12.3 13.62 12.78 13.97 12.6 14.54 13.08 14.19 13.56 14.54 13.38 13.97 13.86 13.62 13.26 13.62"/><polygon class="cls-1" points="13.22 18.59 13.04 18.02 12.85 18.59 12.26 18.59 12.74 18.94 12.55 19.51 13.04 19.16 13.52 19.51 13.33 18.94 13.81 18.59 13.22 18.59"/><polygon class="cls-1" points="8.19 4.21 8.67 3.85 9.15 4.21 8.97 3.64 9.45 3.29 8.85 3.29 8.67 2.72 8.48 3.29 7.89 3.29 8.37 3.64 8.19 4.21"/><polygon class="cls-1" points="8.85 8.42 8.67 7.85 8.48 8.42 7.89 8.42 8.37 8.77 8.19 9.33 8.67 8.98 9.15 9.33 8.97 8.77 9.45 8.42 8.85 8.42"/><polygon class="cls-1" points="8.81 13.44 8.63 12.88 8.44 13.44 7.85 13.44 8.33 13.79 8.14 14.36 8.63 14.01 9.11 14.36 8.92 13.79 9.4 13.44 8.81 13.44"/><polygon class="cls-1" points="8.76 18.41 8.58 17.85 8.39 18.41 7.8 18.41 8.28 18.76 8.1 19.33 8.58 18.98 9.06 19.33 8.88 18.76 9.36 18.41 8.76 18.41"/><polygon class="cls-1" points="3.73 9.28 4.21 8.93 4.7 9.28 4.51 8.72 4.99 8.37 4.4 8.37 4.21 7.8 4.03 8.37 3.44 8.37 3.92 8.72 3.73 9.28"/><polygon class="cls-1" points="4.35 13.39 4.17 12.83 3.98 13.39 3.39 13.39 3.87 13.74 3.69 14.31 4.17 13.96 4.65 14.31 4.47 13.74 4.95 13.39 4.35 13.39"/><polygon class="cls-1" points="3.64 19.28 4.13 18.93 4.61 19.28 4.42 18.71 4.91 18.36 4.31 18.36 4.13 17.8 3.94 18.36 3.35 18.36 3.83 18.71 3.64 19.28"/><path class="cls-1" d="M0,18.86A.86.86,0,0,1,0,19v.08l.12.09Z"/><path class="cls-1" d="M.07,18.27c0,.1,0,.2,0,.29l.4-.29Z"/><polygon class="cls-1" points="19.28 1.9 19.76 1.55 20.25 1.9 20.06 1.33 20.54 0.98 19.95 0.98 19.76 0.42 19.58 0.98 18.98 0.98 19.46 1.33 19.28 1.9"/><polygon class="cls-1" points="20.54 5.95 19.95 5.95 19.76 5.38 19.58 5.95 18.98 5.95 19.46 6.3 19.28 6.87 19.76 6.52 20.25 6.87 20.06 6.3 20.54 5.95"/><polygon class="cls-1" points="19.95 10.92 19.76 10.36 19.58 10.92 18.98 10.92 19.46 11.27 19.28 11.84 19.76 11.49 20.25 11.84 20.06 11.27 20.54 10.92 19.95 10.92"/><polygon class="cls-1" points="20.54 16.01 19.95 16.01 19.76 15.44 19.58 16.01 18.98 16.01 19.46 16.35 19.28 16.92 19.76 16.57 20.25 16.92 20.06 16.35 20.54 16.01"/><polygon class="cls-1" points="19.95 20.86 19.76 20.29 19.58 20.86 18.98 20.86 19.46 21.21 19.28 21.77 19.76 21.42 20.25 21.77 20.06 21.21 20.54 20.86 19.95 20.86"/></svg>