<svg id="레이어_1" data-name="레이어 1" xmlns="http://www.w3.org/2000/svg" viewBox="0 0 43 43"><defs><style>.cls-1{fill:#bc0030;}.cls-2{fill:#3f9b13;}.cls-3{fill:#fff;}</style></defs><title>아랍에미리트</title><path class="cls-1" d="M15.81,13.76V.29a22,22,0,0,0-5.05,1.07,15.21,15.21,0,0,0-6.23,4A16.92,16.92,0,0,0,1.32,11,28.13,28.13,0,0,0,0,19c0,1.07,0,1.22,0,2.48S0,22.91,0,24a28.07,28.07,0,0,0,1.29,8A16.82,16.82,0,0,0,4.53,37.6a15.21,15.21,0,0,0,6.23,4,22,22,0,0,0,5.05,1.07V13.76Z"/><path class="cls-2" d="M38.47,5.4a15.21,15.21,0,0,0-6.23-4C29.79.51,27.14.11,22,0H21c-2.1,0-3.78.14-5.21.29V13.76H42.39A24.44,24.44,0,0,0,41.68,11,16.92,16.92,0,0,0,38.47,5.4Z"/><path class="cls-3" d="M15.81,29.24H42.39A32.23,32.23,0,0,0,43,24c0-1.07,0-1.22,0-2.48s0-1.41,0-2.48a32.23,32.23,0,0,0-.58-5.26H15.81Z"/><path d="M15.81,42.71c1.43.15,3.11.25,5.21.29h1c5.16-.11,7.81-.51,10.26-1.36a15.21,15.21,0,0,0,6.23-4A16.82,16.82,0,0,0,41.68,32a25,25,0,0,0,.71-2.73H15.81Z"/></svg>