<svg id="레이어_1" data-name="레이어 1" xmlns="http://www.w3.org/2000/svg" viewBox="0 0 43 43"><defs><style>.cls-1{fill:none;}.cls-2{fill:#14377d;}.cls-3{fill:#da1a32;}</style></defs><title>영국</title><path class="cls-1" d="M29.59,14.22,40.7,8.71c-.23-.44-.47-.86-.73-1.27L28.82,13l0-12.47C28,.37,27,.26,25.93.18l0,17,17,0a26.57,26.57,0,0,0-1.07-5.75l-5.68,2.82Z"/><path class="cls-1" d="M25.83,42.83c1.1-.08,2.06-.19,2.92-.33l0-12.44,11.14,5.6A18.33,18.33,0,0,0,41.68,32c0-.09,0-.19.08-.29l-5.67-2.85,6.39,0c.18-1,.3-2,.38-2.92l-17,0Z"/><path class="cls-1" d="M17.17.17c-1.1.08-2.06.19-2.92.33l0,12.44L3.08,7.34A18.08,18.08,0,0,0,1.32,11c0,.09-.05.19-.08.28l5.67,2.86-6.39,0c-.18,1-.3,2-.38,2.92l17,0Z"/><path class="cls-1" d="M.13,25.83A26.57,26.57,0,0,0,1.2,31.58l5.68-2.82,6.53,0L2.3,34.29c.23.44.47.86.73,1.27L14.18,30l0,12.47c.86.14,1.82.25,2.92.33l0-16.95Z"/><path class="cls-2" d="M28.75,42.5a19.58,19.58,0,0,0,3.49-.86,15.21,15.21,0,0,0,6.23-4,13.42,13.42,0,0,0,1.45-1.94l-11.14-5.6Z"/><path class="cls-2" d="M3,35.56a13,13,0,0,0,1.5,2,15.21,15.21,0,0,0,6.23,4,19.74,19.74,0,0,0,3.39.85l0-12.47Z"/><path class="cls-2" d="M40,7.44a13,13,0,0,0-1.5-2,15.21,15.21,0,0,0-6.23-4A19.74,19.74,0,0,0,28.85.51l0,12.47Z"/><path class="cls-2" d="M14.25.5a19.58,19.58,0,0,0-3.49.86,15.21,15.21,0,0,0-6.23,4A13.42,13.42,0,0,0,3.08,7.34l11.14,5.6Z"/><path class="cls-3" d="M25.93.18C24.79.09,23.49,0,22,0H21c-1.47,0-2.73.09-3.85.17l0,16.94-17,0C.09,17.74.05,18.4,0,19c0,1.07,0,1.22,0,2.48S0,22.91,0,24c0,.59.05,1.21.1,1.85l17,0,0,17c1.14.09,2.44.15,3.95.18h1c1.47,0,2.73-.09,3.85-.17l0-16.94,17,0c0-.67.09-1.33.11-1.95,0-1.07,0-1.22,0-2.48s0-1.41,0-2.48c0-.59,0-1.21-.1-1.85l-17,0Z"/><path class="cls-3" d="M41.76,31.68a24.49,24.49,0,0,0,.72-2.83l-6.39,0Z"/><path class="cls-3" d="M6.88,28.76,1.2,31.58c.05.13.08.26.12.39a18.5,18.5,0,0,0,1,2.32l11.11-5.51Z"/><path class="cls-3" d="M40.7,8.71,29.59,14.22l6.53,0,5.68-2.82c0-.13-.08-.26-.12-.39A18.5,18.5,0,0,0,40.7,8.71Z"/><path class="cls-3" d="M1.24,11.31a25.17,25.17,0,0,0-.72,2.84l6.39,0Z"/></svg>