<svg id="레이어_1" data-name="레이어 1" xmlns="http://www.w3.org/2000/svg" viewBox="0 0 43 43"><defs><style>.cls-1{fill:none;}.cls-2{fill:#c8172b;}.cls-3{fill:#fcff2c;}</style></defs><title>베트남</title><path class="cls-1" d="M20.87,43h0Z"/><path class="cls-2" d="M32.24,41.64a15.21,15.21,0,0,0,6.23-4A16.87,16.87,0,0,0,41.68,32,28.25,28.25,0,0,0,43,24c0-1.07,0-1.22,0-2.48s0-1.41,0-2.48a28.13,28.13,0,0,0-1.29-8A16.82,16.82,0,0,0,38.47,5.4a15.21,15.21,0,0,0-6.23-4C29.79.51,27.14.11,22,0H21c-5.16.11-7.81.51-10.26,1.36a15.21,15.21,0,0,0-6.23,4A16.82,16.82,0,0,0,1.32,11,28.13,28.13,0,0,0,0,19c0,1.07,0,1.22,0,2.48S0,22.91,0,24a28.25,28.25,0,0,0,1.29,8A16.87,16.87,0,0,0,4.53,37.6a15.21,15.21,0,0,0,6.23,4c2.43.84,5.05,1.24,10.11,1.36h1.26C27.19,42.88,29.81,42.48,32.24,41.64ZM12,18.39h7.27l2.25-6.91,2.25,6.91H31l-5.88,4.27,2.25,6.91L21.5,25.3l-5.88,4.27,2.25-6.91Z"/><polygon class="cls-3" points="21.5 25.3 27.38 29.57 25.13 22.66 31.01 18.39 23.75 18.39 21.5 11.48 19.25 18.39 11.98 18.39 17.86 22.66 15.62 29.57 21.5 25.3"/></svg>