<svg id="레이어_1" data-name="레이어 1" xmlns="http://www.w3.org/2000/svg" viewBox="0 0 43 43"><defs><style>.cls-1{fill:#da4230;}.cls-2{fill:#fff;}</style></defs><title>ABL생명</title><path class="cls-1" d="M0,21.5C0,22.76,0,22.91,0,24a28.25,28.25,0,0,0,1.29,8A16.87,16.87,0,0,0,4.53,37.6a15.21,15.21,0,0,0,6.23,4c2.45.85,5.1,1.25,10.26,1.36h1c5.16-.11,7.81-.51,10.26-1.36a15.21,15.21,0,0,0,6.23-4A16.87,16.87,0,0,0,41.68,32,28.25,28.25,0,0,0,43,24c0-1.07,0-1.22,0-2.48s0-1.41,0-2.48a28.13,28.13,0,0,0-1.29-8A16.82,16.82,0,0,0,38.47,5.4a15.21,15.21,0,0,0-6.23-4C29.79.51,27.14.11,22,0H21c-5.16.11-7.81.51-10.26,1.36a15.21,15.21,0,0,0-6.23,4A16.82,16.82,0,0,0,1.32,11,28.13,28.13,0,0,0,0,19C0,20.09,0,20.24,0,21.5Z"/><polygon class="cls-2" points="33.1 23.98 28.04 23.98 28.04 17.67 26.35 17.67 26.35 25.33 34.08 25.33 33.1 23.98"/><path class="cls-2" d="M14.5,17.67,8.92,25.33h1.89l1.51-2.08h2.5V21.91H13.3l2-2.82v6.24H17V17.67Z"/><path class="cls-2" d="M25,21.72a2.1,2.1,0,0,0-.79-.72,1.7,1.7,0,0,0,.55-1.33,1.84,1.84,0,0,0-.64-1.46,2.48,2.48,0,0,0-1.67-.54H18.36v7.66h4.23a3,3,0,0,0,2-.63A2.16,2.16,0,0,0,25.34,23,2.26,2.26,0,0,0,25,21.72M20.05,19h2.06a1.09,1.09,0,0,1,.71.22.82.82,0,0,1,0,1.15.92.92,0,0,1-.65.21H20.05Zm3.23,4.68a1.43,1.43,0,0,1-.92.28H20.05v-2h2.26a1.41,1.41,0,0,1,1,.29.92.92,0,0,1,.33.75.86.86,0,0,1-.32.72"/></svg>