<svg id="레이어_1" data-name="레이어 1" xmlns="http://www.w3.org/2000/svg" viewBox="0 0 43 43"><defs><style>.cls-1{fill:#04a86c;}.cls-2{fill:#fff;}</style></defs><title>BNP파리바</title><path class="cls-1" d="M0,21.5C0,22.76,0,22.91,0,24a28.13,28.13,0,0,0,1.29,8A16.82,16.82,0,0,0,4.53,37.6a15.21,15.21,0,0,0,6.23,4c2.45.85,5.1,1.25,10.26,1.36h1c5.16-.11,7.81-.51,10.26-1.36a15.21,15.21,0,0,0,6.23-4A16.82,16.82,0,0,0,41.68,32,28.13,28.13,0,0,0,43,24c0-1.07,0-1.22,0-2.48s0-1.41,0-2.48a28.13,28.13,0,0,0-1.29-8A16.82,16.82,0,0,0,38.47,5.4a15.21,15.21,0,0,0-6.23-4C29.79.51,27.14.11,22,0H21c-5.16.11-7.81.51-10.26,1.36a15.21,15.21,0,0,0-6.23,4A16.82,16.82,0,0,0,1.32,11,28.13,28.13,0,0,0,0,19C0,20.09,0,20.24,0,21.5Z"/><path class="cls-2" d="M27.36,14.78a18.46,18.46,0,0,1-2.09,2.64c1.83-1.11,2.34-1.18,4.05-2.18.63,1,.8,3.14.82,4.87.56-1.1,1.23-5.24.95-6a2.91,2.91,0,0,0,1.29-1.39A11.43,11.43,0,0,0,30.2,13a17.79,17.79,0,0,0-6.72-2,22,22,0,0,1,4.14,2.48,24,24,0,0,0-6.2,1.93A42.58,42.58,0,0,1,27.36,14.78Z"/><path class="cls-2" d="M22.1,28.34A20.66,20.66,0,0,1,20.77,30a8.62,8.62,0,0,1-2.33.33A5.89,5.89,0,0,0,20,30.8,10.49,10.49,0,0,1,18.48,32a11.32,11.32,0,0,0,2.82-1.07,6.84,6.84,0,0,0,1.17-.06c-.07-.26-.13-.45-.21-.79a17.08,17.08,0,0,0,2-1.83,13.59,13.59,0,0,1-2.09,1.25C22.15,29.08,22.12,28.76,22.1,28.34Z"/><path class="cls-2" d="M12.48,22.93a31.2,31.2,0,0,1,3.66-3s.57,1.94,1,2.9a17.29,17.29,0,0,1,.95-3.52,2.62,2.62,0,0,1,1-.18,14.3,14.3,0,0,1,4.17.26,12.54,12.54,0,0,0-4.53-1.63,5.22,5.22,0,0,1,.77-1.47,7.8,7.8,0,0,0-2.62,1.33,11.18,11.18,0,0,0-1.53,0,10.27,10.27,0,0,0-2.7.48,4.9,4.9,0,0,1,2.7.76A14.58,14.58,0,0,0,12.48,22.93Z"/><path class="cls-2" d="M12.76,29.11a7,7,0,0,0,1.59,2.25,4.36,4.36,0,0,1-.14-1.73,10.17,10.17,0,0,0,2.7.45,6.69,6.69,0,0,1-2.46-1.52,7.75,7.75,0,0,1,.93-1.77c-.79.11-1.37.21-2.06.35a10.79,10.79,0,0,1-1.08-3.22,11.32,11.32,0,0,0,0,3.48,10.57,10.57,0,0,0-1.59.54A18.28,18.28,0,0,0,12.76,29.11Z"/><path class="cls-2" d="M22.26,30c.08.34.14.53.21.79a6.84,6.84,0,0,1-1.17.06A11.32,11.32,0,0,1,18.48,32,10.49,10.49,0,0,0,20,30.8a5.89,5.89,0,0,1-1.53-.52A8.62,8.62,0,0,0,20.77,30a20.66,20.66,0,0,0,1.33-1.61c0,.42,0,.74.09,1.11a13.59,13.59,0,0,0,2.09-1.25A17.08,17.08,0,0,1,22.26,30Zm1.22-19a17.79,17.79,0,0,1,6.72,2,11.43,11.43,0,0,1,2.18-.28,2.91,2.91,0,0,1-1.29,1.39c.28.75-.39,4.89-.95,6,0-1.73-.19-3.92-.82-4.87-1.71,1-2.22,1.07-4.05,2.18a18.46,18.46,0,0,0,2.09-2.64,42.58,42.58,0,0,0-5.94.68,24,24,0,0,1,6.2-1.93A22,22,0,0,0,23.48,11.05Zm-10.88,7a10.27,10.27,0,0,1,2.7-.48,11.18,11.18,0,0,1,1.53,0,7.8,7.8,0,0,1,2.62-1.33,5.22,5.22,0,0,0-.77,1.47,12.54,12.54,0,0,1,4.53,1.63A14.3,14.3,0,0,0,19,19.15a2.62,2.62,0,0,0-1,.18,17.29,17.29,0,0,0-.95,3.52c-.4-1-1-2.9-1-2.9a31.2,31.2,0,0,0-3.66,3,14.58,14.58,0,0,1,2.82-4.09A4.9,4.9,0,0,0,12.6,18.08Zm-.36,5.84a10.79,10.79,0,0,0,1.08,3.22c.69-.14,1.27-.24,2.06-.35a7.75,7.75,0,0,0-.93,1.77,6.69,6.69,0,0,0,2.46,1.52,10.17,10.17,0,0,1-2.7-.45,4.36,4.36,0,0,0,.14,1.73,7,7,0,0,1-1.59-2.25,18.28,18.28,0,0,1-2.14-1.17,10.57,10.57,0,0,1,1.59-.54A11.32,11.32,0,0,1,12.24,23.92Z"/></svg>