<svg id="레이어_1" data-name="레이어 1" xmlns="http://www.w3.org/2000/svg" viewBox="0 0 43 43"><defs><style>.cls-1{fill:#df242e;}.cls-2{fill:#fff;}</style></defs><title>뱅크오브아메리카</title><path class="cls-1" d="M0,21.5C0,22.76,0,22.91,0,24a28.07,28.07,0,0,0,1.29,8A16.82,16.82,0,0,0,4.53,37.6a15.21,15.21,0,0,0,6.23,4c2.45.85,5.1,1.25,10.26,1.36h1c5.16-.11,7.81-.51,10.26-1.36a15.21,15.21,0,0,0,6.23-4A16.82,16.82,0,0,0,41.68,32,28.07,28.07,0,0,0,43,24c0-1.07,0-1.22,0-2.48s0-1.41,0-2.48a28.13,28.13,0,0,0-1.29-8A16.92,16.92,0,0,0,38.47,5.4a15.21,15.21,0,0,0-6.23-4C29.79.51,27.14.11,22,0H21c-5.16.11-7.81.51-10.26,1.36a15.21,15.21,0,0,0-6.23,4A16.92,16.92,0,0,0,1.32,11,28.13,28.13,0,0,0,0,19C0,20.09,0,20.24,0,21.5Z"/><path class="cls-2" d="M34.75,20.37c-.67-.39-1.29-.75-1.9-1.12a.49.49,0,0,0-.48,0c-1.31.58-2.66,1.09-3.95,1.73a54.86,54.86,0,0,0-9,5.91l-.15.14c.67.52,1.34,1,2,1.55.17.13.26.11.42,0,1.46-1.11,2.9-2.25,4.4-3.3a49.61,49.61,0,0,1,8-4.54l.74-.32M15.21,24.12c.6.41,1.17.79,1.73,1.19a.3.3,0,0,0,.42,0c.87-.66,1.75-1.32,2.64-1.94a38.8,38.8,0,0,1,10.32-5.3l.19-.09c-.62-.32-1.2-.62-1.79-.9a.44.44,0,0,0-.32,0c-1.2.4-2.41.76-3.57,1.25a40.74,40.74,0,0,0-8.67,5.07l-.95.72M11.49,22c.54.31,1,.58,1.54.88a.36.36,0,0,0,.47,0c.88-.66,1.77-1.29,2.69-1.89s3.25-1.93,3.29-2c-.52-.23-1-.45-1.52-.69a.48.48,0,0,0-.49,0c-1.63.88-2.79,1.55-4.23,2.49-.64.41-1,.63-1.75,1.18M16,17.5c-.53-.16-1-.31-1.44-.42a.69.69,0,0,0-.45,0c-.89.42-1.76.87-2.62,1.34-1,.57-3.16,1.89-3.24,1.95.5.23,1,.45,1.45.65A.34.34,0,0,0,10,21l1-.62A45.09,45.09,0,0,1,16,17.5m.28-1.35.34.09c1.32.46,2.67.87,3.95,1.41a1.63,1.63,0,0,0,1.65.05c.56-.25.64-.28,1-.45l-.2-.1a29.09,29.09,0,0,0-4.81-1.66.31.31,0,0,0-.19,0l-1.73.67m10.36,0c-.09-.05-1.8-.74-2.63-1s-1.58-.51-2.39-.72a.55.55,0,0,0-.22,0l-.78.21-.8.22c.13,0,1.16.33,1.68.49,1.15.37,2.3.78,3.42,1.26a.33.33,0,0,0,.24,0l1.48-.43"/></svg>