<svg id="레이어_1" data-name="레이어 1" xmlns="http://www.w3.org/2000/svg" viewBox="0 0 43 43"><defs><style>.cls-1{fill:#143b9b;}.cls-2{fill:#fff;}</style></defs><title>부국증권</title><path class="cls-1" d="M0,21.5C0,22.76,0,22.91,0,24a28.13,28.13,0,0,0,1.29,8A16.82,16.82,0,0,0,4.53,37.6a15.21,15.21,0,0,0,6.23,4c2.45.85,5.1,1.25,10.26,1.36h1c5.16-.11,7.81-.51,10.26-1.36a15.21,15.21,0,0,0,6.23-4A16.82,16.82,0,0,0,41.68,32,28.13,28.13,0,0,0,43,24c0-1.07,0-1.22,0-2.48s0-1.41,0-2.48a28.13,28.13,0,0,0-1.29-8A16.82,16.82,0,0,0,38.47,5.4a15.21,15.21,0,0,0-6.23-4C29.79.51,27.14.11,22,0H21c-5.16.11-7.81.51-10.26,1.36a15.21,15.21,0,0,0-6.23,4A16.82,16.82,0,0,0,1.32,11,28.13,28.13,0,0,0,0,19C0,20.09,0,20.24,0,21.5Z"/><polygon class="cls-2" points="11.49 21.45 13.22 20.29 13.22 18.97 9.54 21.44 13.22 23.94 13.22 22.63 11.49 21.45"/><polygon class="cls-2" points="33.46 21.47 21.5 13.42 13.22 18.97 13.22 20.29 21.5 14.74 31.51 21.48 21.5 28.26 13.22 22.63 13.22 23.94 21.5 29.58 33.46 21.47"/><path class="cls-2" d="M24.61,20.81h0l.62.41-6,4.19L21.55,27l8.1-5.55L24,17.7l-2,1.42.77.51h0Zm-.56-3,5.44,3.65L21.55,26.9l-2.2-1.48,6-4.19L22.2,19.12Z"/><path class="cls-2" d="M19.35,25.42l2.2,1.48,7.94-5.44-5.44-3.65L22.2,19.12l3.18,2.11Zm3-6.31,1.69-1.19,5.28,3.54-7.78,5.33-2-1.37,6-4.19Z"/><path class="cls-2" d="M18.54,25l6.06-4.15-1.79-1.19-1.35.89-1.55-1,3.39-2.31-1.84-1.26-8.09,5.53Zm1.23-3.38-1.34.91L17,21.55l1.34-.91Z"/><polygon class="cls-2" points="24.61 20.81 22.83 19.62 22.81 19.63 24.6 20.82 24.61 20.81"/></svg>