<svg id="레이어_1" data-name="레이어 1" xmlns="http://www.w3.org/2000/svg" viewBox="0 0 43 43"><defs><style>.cls-1{fill:#e3333f;}.cls-2{fill:#fff;}</style></defs><title>경남</title><path class="cls-1" d="M0,21.5C0,22.76,0,22.91,0,24a28.13,28.13,0,0,0,1.29,8A16.82,16.82,0,0,0,4.53,37.6a15.21,15.21,0,0,0,6.23,4c2.45.85,5.1,1.25,10.26,1.36h1c5.16-.11,7.81-.51,10.26-1.36a15.21,15.21,0,0,0,6.23-4A16.82,16.82,0,0,0,41.68,32,28.13,28.13,0,0,0,43,24c0-1.07,0-1.22,0-2.48s0-1.41,0-2.48a28.25,28.25,0,0,0-1.29-8A16.87,16.87,0,0,0,38.47,5.4a15.21,15.21,0,0,0-6.23-4C29.79.51,27.14.11,22,0H21c-5.16.11-7.81.51-10.26,1.36a15.21,15.21,0,0,0-6.23,4A16.87,16.87,0,0,0,1.32,11,28.25,28.25,0,0,0,0,19C0,20.09,0,20.24,0,21.5Z"/><path class="cls-2" d="M34.13,25.06l-2.51-3h0l-.67,1.56a0,0,0,0,0,0,0L32,25a.34.34,0,0,0,.29.13"/><path class="cls-2" d="M32.35,17.86a1.84,1.84,0,0,0-1.93,1l-2,4.59a.62.62,0,0,1-.64.4V17.93a.08.08,0,0,0-.08-.07H26.25a.08.08,0,0,0-.08.07V25a.13.13,0,0,0,.14.13H28c1.06,0,1.54-.32,1.86-1l2-4.53a.81.81,0,0,1,.85-.46"/><path class="cls-2" d="M14.75,21.5a1.63,1.63,0,0,0,1.08-1.6c0-1.27-1.17-2-2.56-2H9a.07.07,0,0,0-.08.07v1.16a.07.07,0,0,0,.08.07h4c.65,0,1.09.37,1.09.83s-.44.83-1.09.83H10.58V20a.09.09,0,0,0-.08-.08H9a.08.08,0,0,0-.08.08v5.1a.07.07,0,0,0,.08.07H13.2c1.6,0,2.74-.7,2.74-2.12a1.58,1.58,0,0,0-1.19-1.52m-1.7,2.37H10.58V22.16h2.47c.67,0,1.12.39,1.12.86s-.45.85-1.12.85"/><path class="cls-2" d="M18.68,19.89H17.22a.08.08,0,0,0-.08.08v5.1a.07.07,0,0,0,.08.07h1.46a.08.08,0,0,0,.08-.07V20a.09.09,0,0,0-.08-.08"/><path class="cls-2" d="M24.7,17.86H23.24a.08.08,0,0,0-.08.07v5.91a.61.61,0,0,1-.64-.4l-2-4.59a1.84,1.84,0,0,0-1.93-1H17.22a.08.08,0,0,0-.08.07v1.16a.08.08,0,0,0,.08.07h1.11a.81.81,0,0,1,.85.46l2,4.53c.32.67.8,1,1.86,1h1.64a.13.13,0,0,0,.14-.13V17.93a.08.08,0,0,0-.08-.07"/></svg>