<svg id="레이어_1" data-name="레이어 1" xmlns="http://www.w3.org/2000/svg" viewBox="0 0 43 43"><defs><style>.cls-1{fill:#0c55a9;}.cls-2,.cls-3{fill:#fff;}.cls-3{fill-rule:evenodd;}</style></defs><title>한국씨티</title><path class="cls-1" d="M0,21.5C0,22.76,0,22.91,0,24a28.13,28.13,0,0,0,1.29,8A16.92,16.92,0,0,0,4.53,37.6a15.21,15.21,0,0,0,6.23,4c2.45.85,5.1,1.25,10.26,1.36h1c5.16-.11,7.81-.51,10.26-1.36a15.21,15.21,0,0,0,6.23-4A16.92,16.92,0,0,0,41.68,32,28.13,28.13,0,0,0,43,24c0-1.07,0-1.22,0-2.48s0-1.41,0-2.48a28.13,28.13,0,0,0-1.29-8A16.82,16.82,0,0,0,38.47,5.4a15.21,15.21,0,0,0-6.23-4C29.79.51,27.14.11,22,0H21c-5.16.11-7.81.51-10.26,1.36a15.21,15.21,0,0,0-6.23,4A16.82,16.82,0,0,0,1.32,11,28.13,28.13,0,0,0,0,19C0,20.09,0,20.24,0,21.5Z"/><rect class="cls-2" x="19.09" y="19.52" width="1.95" height="9.38"/><path class="cls-3" d="M22.78,19.52v1.76h1.64v5.29a2.75,2.75,0,0,0,.59,1.8,2.13,2.13,0,0,0,1.53.69,3,3,0,0,0,1.72-.44h0l0,0,.41-1.67,0-.12-.1.05a2.67,2.67,0,0,1-1.43.48c-.59,0-.9-.33-.9-1.05v-5h2V19.52h-2V16.58l-1.87,1h0v1.92Z"/><rect class="cls-2" x="30.15" y="19.52" width="1.97" height="9.38"/><path class="cls-3" d="M14.64,19.34a4.94,4.94,0,0,0-3.45,1.28,4.57,4.57,0,0,0-1.49,3.6,4.63,4.63,0,0,0,1.49,3.61,4.94,4.94,0,0,0,3.45,1.28A4.19,4.19,0,0,0,18,27.49l0,0,0,0-1-1.25-.06-.05,0,.05a3.06,3.06,0,0,1-2.3,1.08,2.78,2.78,0,0,1-2.1-.87,3.29,3.29,0,0,1,0-4.35,2.75,2.75,0,0,1,2.1-.87,3.08,3.08,0,0,1,2.3,1.07l0,.06.06-.06L18,21l0,0,0,0a4.21,4.21,0,0,0-3.33-1.61"/><path class="cls-3" d="M20.07,18a7.31,7.31,0,0,1,5.5-2.38A7.23,7.23,0,0,1,31.05,18l0,0H33.3l-.08-.12a9.38,9.38,0,0,0-3.38-2.92,9.21,9.21,0,0,0-8.54,0,9.55,9.55,0,0,0-3.38,2.92l-.08.12H20Z"/></svg>