<svg id="레이어_1" data-name="레이어 1" xmlns="http://www.w3.org/2000/svg" viewBox="0 0 43 43"><defs><style>.cls-1{fill:#b19c52;}.cls-2{fill:#fff;}</style></defs><title>신협중앙회</title><path class="cls-1" d="M0,21.5C0,22.76,0,22.91,0,24a28.25,28.25,0,0,0,1.29,8A16.87,16.87,0,0,0,4.53,37.6a15.21,15.21,0,0,0,6.23,4c2.45.85,5.1,1.25,10.26,1.36h1c5.16-.11,7.81-.51,10.26-1.36a15.21,15.21,0,0,0,6.23-4A16.87,16.87,0,0,0,41.68,32,28.25,28.25,0,0,0,43,24c0-1.07,0-1.22,0-2.48s0-1.41,0-2.48a28.25,28.25,0,0,0-1.29-8A16.87,16.87,0,0,0,38.47,5.4a15.21,15.21,0,0,0-6.23-4C29.79.51,27.14.11,22,0H21c-5.16.11-7.81.51-10.26,1.36a15.21,15.21,0,0,0-6.23,4A16.87,16.87,0,0,0,1.32,11,28.25,28.25,0,0,0,0,19C0,20.09,0,20.24,0,21.5Z"/><path class="cls-2" d="M30.75,23.28a5.73,5.73,0,0,1-2.7,3.21A9.5,9.5,0,0,0,30,15.64c-.74-1.31.2-1.87.2-1.87a1.71,1.71,0,0,0-1.47,2.3A8.9,8.9,0,0,1,29.21,22l-.71-.39,0,0a7.42,7.42,0,0,0-5.15-8.88V11.46H21.93v8.15l6.68,3.81c-.12.25-.25.48-.38.7l-6.72-3.89-6.74,3.89c-.13-.22-.26-.45-.39-.7l6.69-3.81V11.46H19.63V12.7a7.41,7.41,0,0,0-5.14,8.88v0l-.71.39a8.9,8.9,0,0,1,.49-5.92,1.71,1.71,0,0,0-1.47-2.3s.94.56.2,1.87A9.5,9.5,0,0,0,15,26.49a5.73,5.73,0,0,1-2.7-3.21,2,2,0,0,0-2.18-1l1,1.38a8.36,8.36,0,0,0,7,5.3v2.54H20.8V27.8a7.65,7.65,0,0,1-5.13-2.47l.69-.4a8.41,8.41,0,0,0,5.12,2.13h0a8.45,8.45,0,0,0,5.12-2.13l.68.4A7.63,7.63,0,0,1,22.2,27.8v3.74h2.74V29a8.34,8.34,0,0,0,7-5.3,2.19,2.19,0,0,1,1-1.38,2,2,0,0,0-2.18,1m-3.57-2.43h0L23.4,18.74l0-4.51h0s4.55,1.24,3.78,6.62M19.6,14.23h0l0,4.51-3.78,2.12h0c-.77-5.38,3.78-6.62,3.78-6.62m5.67,9.91,0,0a6,6,0,0,1-3.74,1.41,6,6,0,0,1-3.74-1.41l0,0h0l3.78-2.2,3.76,2.2Z"/></svg>