<svg id="레이어_1" data-name="레이어 1" xmlns="http://www.w3.org/2000/svg" viewBox="0 0 43 43"><defs><style>.cls-1{fill:#0398e7;}.cls-2{fill:#fff;}</style></defs><title>케이프투자증권</title><path class="cls-1" d="M0,21.5C0,22.76,0,22.91,0,24a28.13,28.13,0,0,0,1.29,8A16.82,16.82,0,0,0,4.53,37.6a15.21,15.21,0,0,0,6.23,4c2.45.85,5.1,1.25,10.26,1.36h1c5.16-.11,7.81-.51,10.26-1.36a15.21,15.21,0,0,0,6.23-4A16.82,16.82,0,0,0,41.68,32,28.13,28.13,0,0,0,43,24c0-1.07,0-1.22,0-2.48s0-1.41,0-2.48a28.25,28.25,0,0,0-1.29-8A16.87,16.87,0,0,0,38.47,5.4a15.21,15.21,0,0,0-6.23-4C29.79.51,27.14.11,22,0H21c-5.16.11-7.81.51-10.26,1.36a15.21,15.21,0,0,0-6.23,4A16.87,16.87,0,0,0,1.32,11,28.25,28.25,0,0,0,0,19C0,20.09,0,20.24,0,21.5Z"/><polyline class="cls-2" points="24.36 11.4 26.5 11.4 29.6 20.68 21.11 20.68 22.69 15.21 24.36 15.21 24.84 15.21 23.88 18.78 25.79 18.78 26.98 18.78"/><path class="cls-2" d="M17.93,22.35H13.4v1.9h4.29c.65,0,.95.24.95.95s-.53,1-1.19,1h-4v5.47h2.38V28.06h2.15a2.7,2.7,0,0,0,2.77-2.77A2.72,2.72,0,0,0,17.93,22.35Z"/><rect class="cls-2" x="21.98" y="22.35" width="6.67" height="1.9"/><polygon class="cls-2" points="28.65 28.06 28.65 25.92 24.36 25.92 21.98 25.92 21.98 28.06 21.98 29.49 21.98 31.63 24.36 31.63 28.65 31.63 28.65 29.49 24.36 29.49 24.36 28.06 28.65 28.06"/><path class="cls-2" d="M15.72,16.09a2.61,2.61,0,0,1,2.65-2.61h1.92V11.37a19.81,19.81,0,0,0-3.92.35,4.15,4.15,0,0,0-3,4.36,4.15,4.15,0,0,0,3.31,4.37,8.83,8.83,0,0,0,2.2.26h1.38V18.47h-2a1.84,1.84,0,0,1-.41,0A2.27,2.27,0,0,1,15.72,16.09Z"/></svg>