<svg id="레이어_1" data-name="레이어 1" xmlns="http://www.w3.org/2000/svg" viewBox="0 0 43 43"><defs><style>.cls-1{fill:#e78001;}.cls-2{fill:#fff;}</style></defs><title>중국</title><path class="cls-1" d="M0,21.5C0,22.76,0,22.91,0,24a27.39,27.39,0,0,0,1.29,8,16.63,16.63,0,0,0,3.2,5.63,15.21,15.21,0,0,0,6.23,4c2.45.85,5.1,1.25,10.26,1.36h1c5.16-.11,7.81-.51,10.26-1.36a15.21,15.21,0,0,0,6.23-4A16.82,16.82,0,0,0,41.68,32,27.69,27.69,0,0,0,43,24c0-1.07,0-1.22,0-2.48s0-1.41,0-2.48a27.74,27.74,0,0,0-1.28-8A16.92,16.92,0,0,0,38.47,5.4a15.21,15.21,0,0,0-6.23-4C29.79.51,27.14.11,22,0H21c-5.16.11-7.81.51-10.26,1.36a15.21,15.21,0,0,0-6.23,4A16.73,16.73,0,0,0,1.33,11,27.44,27.44,0,0,0,0,19C0,20.09,0,20.24,0,21.5Z"/><path class="cls-2" d="M21.46,10A11.46,11.46,0,1,0,33,21.47,11.47,11.47,0,0,0,21.46,10M20.11,30.3c-3.3.42-7.38-4.07-7.62-8.39-.25-4.53,3.66-9.29,7.63-9.23v4.16H18.39A2.19,2.19,0,0,0,16,19.19c0,1.46,0,2.93,0,4.4a2.45,2.45,0,0,0,2.46,2.56c.53,0,1.06,0,1.63,0Zm1.39-6.58c-.81,0-1.62,0-2.43,0-.38,0-.59-.11-.59-.54,0-1.12,0-2.25,0-3.38,0-.37.14-.54.53-.53h5c.38,0,.54.16.53.53,0,1.13,0,2.25,0,3.38,0,.43-.21.54-.6.54-.81,0-1.61,0-2.42,0m1.34,6.62V26.12h1.57a2.33,2.33,0,0,0,2.51-2.45c0-1.45,0-2.9,0-4.35a2.35,2.35,0,0,0-2.38-2.46c-.55,0-1.1,0-1.71,0V12.68c3.63-.21,7.57,4.23,7.69,8.64s-3.71,9-7.68,9"/></svg>