<svg id="레이어_1" data-name="레이어 1" xmlns="http://www.w3.org/2000/svg" viewBox="0 0 43 43"><defs><style>.cls-1{fill:#266798;}.cls-2{fill:#fff;}</style></defs><title>중국건설</title><path class="cls-1" d="M0,21.5C0,22.76,0,22.91,0,24a28.13,28.13,0,0,0,1.29,8A16.82,16.82,0,0,0,4.53,37.6a15.21,15.21,0,0,0,6.23,4c2.45.85,5.1,1.25,10.26,1.36h1c5.16-.11,7.81-.51,10.26-1.36a15.21,15.21,0,0,0,6.23-4A16.82,16.82,0,0,0,41.68,32,28.13,28.13,0,0,0,43,24c0-1.07,0-1.22,0-2.48s0-1.41,0-2.48a28.13,28.13,0,0,0-1.29-8A16.82,16.82,0,0,0,38.47,5.4a15.21,15.21,0,0,0-6.23-4C29.79.51,27.14.11,22,0H21c-5.16.11-7.81.51-10.26,1.36a15.21,15.21,0,0,0-6.23,4A16.82,16.82,0,0,0,1.32,11,28.13,28.13,0,0,0,0,19C0,20.09,0,20.24,0,21.5Z"/><path class="cls-2" d="M26.35,23.53l-.06-.08-1-1.05-1.71-1.77c-.41-.42-.82-.84-1.22-1.27a4.13,4.13,0,0,0-1.06-.85,5.73,5.73,0,0,0-3.46-.42,2.68,2.68,0,0,0-1,.38l-.15.13.46,0a3.94,3.94,0,0,1,1.62.32,3.11,3.11,0,0,1,1.1.76L21,20.87l.95,1,1.68,1.78.91,1,.37.4,1.46-1.49"/><path class="cls-2" d="M11.46,22.47v-.81a.14.14,0,0,0,0-.06c0-.38.06-.75.12-1.12a9.67,9.67,0,0,1,.92-2.86,10.29,10.29,0,0,1,1-1.58,9.8,9.8,0,0,1,3.28-2.76,9.78,9.78,0,0,1,1.64-.68,9.55,9.55,0,0,1,2.43-.44,4.46,4.46,0,0,1,1.5.16,3.1,3.1,0,0,1,1.48.89c.6.65,1.21,1.29,1.82,1.93.41.44.82.86,1.22,1.3l2,2.12.58.62L26.9,21.86l-5.49-5.5-5.7,5.7,5.73,5.73.06-.08,5.56-5.55a.27.27,0,0,1,.21-.09h4.07c0,.24,0,.47,0,.69,0,.46-.1.93-.19,1.39A9.62,9.62,0,0,1,30,27a10,10,0,0,1-3.93,3.79,9.13,9.13,0,0,1-2.36.9c-.48.1-1,.16-1.44.23l-.37.05h-1l-.11,0c-.21,0-.43,0-.65,0A11.14,11.14,0,0,1,18,31.4,10.14,10.14,0,0,1,15.46,30a9.93,9.93,0,0,1-2.26-2.36,9.59,9.59,0,0,1-1.26-2.57,9.18,9.18,0,0,1-.46-2.54.19.19,0,0,0,0-.08"/><path class="cls-2" d="M31.54,17.1l-1.61,1.64-.41-.43-1-1.06-1.85-2-1-1.11-1.27-1.35A3.63,3.63,0,0,0,23.16,12a4.58,4.58,0,0,0-1.79-.36c-.16,0-.31,0-.51,0l.18-.14a2.94,2.94,0,0,1,1.11-.42A5.36,5.36,0,0,1,23.47,11a5.64,5.64,0,0,1,2.49.57,4.84,4.84,0,0,1,1.17.94c.44.47.89.93,1.34,1.4l1.88,1.95c.38.38.75.77,1.12,1.15l.07.08"/></svg>