<svg id="레이어_1" data-name="레이어 1" xmlns="http://www.w3.org/2000/svg" viewBox="0 0 43 43"><defs><style>.cls-1{fill:#de061e;}.cls-2{fill:#fff;}</style></defs><title>동양생명</title><path class="cls-1" d="M0,21.5C0,22.76,0,22.91,0,24a27.69,27.69,0,0,0,1.28,8A16.82,16.82,0,0,0,4.53,37.6a15.21,15.21,0,0,0,6.23,4c2.45.85,5.1,1.25,10.26,1.36h1c5.16-.11,7.81-.51,10.26-1.36a15.21,15.21,0,0,0,6.23-4A16.82,16.82,0,0,0,41.68,32,27.69,27.69,0,0,0,43,24c0-1.07,0-1.22,0-2.48s0-1.41,0-2.48a27.86,27.86,0,0,0-1.28-8A17,17,0,0,0,38.47,5.4a15.21,15.21,0,0,0-6.23-4C29.79.51,27.14.11,22,0H21c-5.16.11-7.81.51-10.26,1.36a15.21,15.21,0,0,0-6.23,4A17,17,0,0,0,1.32,11,27.86,27.86,0,0,0,0,19C0,20.09,0,20.24,0,21.5Z"/><polygon class="cls-2" points="29.91 13.2 29.17 15.68 26.6 15.68 28.72 17.15 27.99 19.59 30.06 18.08 32.25 19.59 31.35 17.14 33.35 15.68 30.82 15.68 29.91 13.2"/><path class="cls-2" d="M12.52,26.33l.23-.79.41,1,1.16.19a5.87,5.87,0,0,1-.91.52l.28.9-.84-.77-.57.08.09-.59a3.64,3.64,0,0,1-.74-1ZM10.8,21.25A7.59,7.59,0,0,1,12,19.83l-.13-1.51,1,.79a7.66,7.66,0,0,1,1.24-.83l-.67,1.49,1.06,1.1-1.44,0-.72,1.83L12.07,21S11,21.17,10.8,21.25Zm5.42-5.59,1.19,1.22a11.37,11.37,0,0,1,1.71-.46l-.93,1.42,1.22,1.48-1.92-.53-1.2,1.51,0-1.87s-1.17-.31-1.65-.39a9.34,9.34,0,0,1,1.65-.74Zm5.62.28.42-2,1,1.81a8.94,8.94,0,0,1,1.6,0l-1,1.24.92,1.94-2-1-1.58,1.39.38-2.08a17.33,17.33,0,0,0-1.82-1A10.16,10.16,0,0,1,21.84,15.94ZM17,28l-.81-.41-.67.56.15-.91-.77-.51.92-.05.22-.79.38.74.94-.1-.66.69Zm-6.2-3.61a2.58,2.58,0,0,0,0,.85A3.44,3.44,0,0,0,11.63,27a9.14,9.14,0,0,0,7,3.31,8.77,8.77,0,1,0,0-17.54,9,9,0,0,0-8.84,7.05,6.9,6.9,0,0,0-.05,2.46,2.56,2.56,0,0,0,.35.94,7.08,7.08,0,0,1,.47-1.4,6.39,6.39,0,0,0,.19,1.58l1.06.48-.95.38A.21.21,0,0,0,10.77,24.39Z"/></svg>