<?xml version="1.0" encoding="UTF-8"?>
<svg id="_레이어_1" data-name="레이어 1" xmlns="http://www.w3.org/2000/svg" xmlns:xlink="http://www.w3.org/1999/xlink" viewBox="0 0 32 32">
  <defs>
    <style>
      .cls-1 {
        fill: #00c7a9;
      }

      .cls-1, .cls-2, .cls-3 {
        stroke-width: 0px;
      }

      .cls-4 {
        clip-path: url(#clippath-2);
      }

      .cls-2 {
        fill: none;
      }

      .cls-5 {
        clip-path: url(#clippath-1);
      }

      .cls-3 {
        fill: #fff;
      }

      .cls-6 {
        clip-path: url(#clippath);
      }
    </style>
    <clipPath id="clippath">
      <rect class="cls-2" width="32" height="32"/>
    </clipPath>
    <clipPath id="clippath-1">
      <path class="cls-2" d="m9.93,11.02c-.14,0-.22,0-.22,0v4.29c6.34.58,6.36,7.86,6.36,7.86l2.1-6.31c-3-5.5-7.23-5.85-8.24-5.85h0Z"/>
    </clipPath>
    <clipPath id="clippath-2">
      <rect class="cls-2" x="6.1" y="11.01" width="19.8" height="12.16"/>
    </clipPath>
  </defs>
  <g class="cls-6">
    <g id="_그룹_4376" data-name="그룹 4376">
      <path id="_패스_48780" data-name="패스 48780" class="cls-1" d="m0,16c0,.94,0,1.05.03,1.84.03,2.02.35,4.03.96,5.96.52,1.54,1.33,2.96,2.39,4.19,1.28,1.37,2.87,2.4,4.63,3,2.47.75,5.06,1.09,7.64,1.01h.71c2.58.08,5.17-.26,7.64-1.01,1.77-.61,3.36-1.64,4.63-3.01,1.06-1.23,1.87-2.65,2.39-4.18.61-1.93.93-3.93.96-5.95.03-.8.03-.91.03-1.85s0-1.05-.03-1.84c-.03-2.02-.35-4.03-.96-5.95-.52-1.54-1.33-2.96-2.39-4.19-1.27-1.37-2.87-2.4-4.63-3.01-2.47-.75-5.06-1.09-7.64-1.01h-.71c-2.58-.08-5.17.26-7.64,1.01-1.77.61-3.36,1.64-4.63,3.01-1.06,1.23-1.87,2.65-2.39,4.18C.38,10.13.05,12.13.03,14.15c-.03.8-.03.91-.03,1.85"/>
      <g id="_그룹_24600" data-name="그룹 24600">
        <rect id="_사각형_7129" data-name="사각형 7129" class="cls-3" x="6.1" y="15.32" width="3.61" height="7.86"/>
        <g id="_그룹_24597" data-name="그룹 24597">
          <g class="cls-5">
            <g id="_그룹_24596" data-name="그룹 24596">
              <rect id="_사각형_7130" data-name="사각형 7130" class="cls-3" x="9.71" y="11.01" width="8.46" height="12.16"/>
            </g>
          </g>
        </g>
        <g id="_그룹_24599" data-name="그룹 24599">
          <g class="cls-4">
            <g id="_그룹_24598" data-name="그룹 24598">
              <path id="_패스_54011" data-name="패스 54011" class="cls-3" d="m16.08,23.17c-.13-2.73.65-5.44,2.22-7.68,1.62-2.68,4.47-4.36,7.6-4.48v4.3s-5.81.08-6.32,7.86h-3.5Z"/>
            </g>
          </g>
        </g>
      </g>
    </g>
  </g>
</svg>