<svg id="레이어_1" data-name="레이어 1" xmlns="http://www.w3.org/2000/svg" viewBox="0 0 43 43"><defs><style>.cls-1{fill:#8cc240;}.cls-2{fill:#fff;}</style></defs><title>DB생명</title><path class="cls-1" d="M0,21.5C0,22.76,0,22.91,0,24a28.25,28.25,0,0,0,1.29,8A16.87,16.87,0,0,0,4.53,37.6a15.21,15.21,0,0,0,6.23,4c2.45.85,5.1,1.25,10.26,1.36h1c5.16-.11,7.81-.51,10.26-1.36a15.21,15.21,0,0,0,6.23-4A16.68,16.68,0,0,0,41.67,32,27.93,27.93,0,0,0,43,24c0-1.07,0-1.22,0-2.48s0-1.41,0-2.48a27.82,27.82,0,0,0-1.3-8,16.63,16.63,0,0,0-3.2-5.63,15.21,15.21,0,0,0-6.23-4C29.79.51,27.14.11,22,0H21c-5.16.11-7.81.51-10.26,1.36a15.21,15.21,0,0,0-6.23,4A16.82,16.82,0,0,0,1.32,11,28.13,28.13,0,0,0,0,19C0,20.09,0,20.24,0,21.5Z"/><path class="cls-2" d="M18.29,19.38a6.38,6.38,0,0,0-2.21-1.32,6.08,6.08,0,0,0-1.79-.38c-.53,0-1,.17-1.1.7-.22,1-.12,9.72,0,10.73a1.06,1.06,0,0,0,1.24,1.15c6.05-.1,7.64-7.43,3.9-10.88"/><path class="cls-2" d="M22.74,17.15a7.65,7.65,0,0,1,2.31.5,7.73,7.73,0,0,1,1.66.8l.05,0a6,6,0,0,0-1.53-6.09,5.65,5.65,0,0,0-2-1.19,5.09,5.09,0,0,0-1.62-.35c-.49,0-.9.16-1,.64-.2.91-.1,8.82,0,9.73,0,.49.2.83.59,1a37.23,37.23,0,0,1,.16-4.13C21.47,17.37,22.05,17.15,22.74,17.15Z"/><path class="cls-2" d="M23.09,17.8c-.61,0-1.13.19-1.26.8a32.68,32.68,0,0,0-.15,3.67c0,3.35.05,7.81.11,8.56s.41,1.34,1.4,1.32c6.92-.11,8.73-8.48,4.47-12.42a7.58,7.58,0,0,0-1.05-.79,7.66,7.66,0,0,0-1.47-.7A6.74,6.74,0,0,0,23.09,17.8Z"/></svg>