<svg id="레이어_1" data-name="레이어 1" xmlns="http://www.w3.org/2000/svg" viewBox="0 0 43 43"><defs><style>.cls-1{fill:#e94335;}.cls-2{fill:#fff;}</style></defs><title>우체국</title><path class="cls-1" d="M0,21.5C0,22.76,0,22.91,0,24a28.25,28.25,0,0,0,1.29,8A16.87,16.87,0,0,0,4.53,37.6a15.21,15.21,0,0,0,6.23,4c2.45.85,5.1,1.25,10.26,1.36h1c5.16-.11,7.81-.51,10.26-1.36a15.21,15.21,0,0,0,6.23-4A16.87,16.87,0,0,0,41.68,32,27.86,27.86,0,0,0,43,24c0-1.07,0-1.22,0-2.48s0-1.41,0-2.48a27.86,27.86,0,0,0-1.28-8A16.87,16.87,0,0,0,38.47,5.4a15.21,15.21,0,0,0-6.23-4C29.79.51,27.14.11,22,0H21c-5.16.11-7.81.51-10.26,1.36a15.21,15.21,0,0,0-6.23,4A16.87,16.87,0,0,0,1.32,11,28.25,28.25,0,0,0,0,19C0,20.09,0,20.24,0,21.5Z"/><path class="cls-2" d="M8.14,21.46a.05.05,0,0,0,0,.1l4.13,2.72,1.19-5.56Z"/><path class="cls-2" d="M32.61,18.71h-1a.67.67,0,0,0-.19.05l-5.24,2.7a.05.05,0,0,0,0,.1h0l4.06,2.67a.41.41,0,0,0,.18.05h1.05c.05,0,.06,0,0-.05L27.3,21.5l5.32-2.74c.05,0,.05-.05,0-.05"/><path class="cls-2" d="M30.38,18.71H23.09l-1.18,5.57h7.28c.06,0,.06,0,0-.05L25.07,21.5l5.32-2.74s0-.05,0-.05"/><path class="cls-2" d="M34.85,18.71H33.8a.61.61,0,0,0-.18.05l-5.24,2.7c-.05,0-.05.07,0,.1h0l4.06,2.67a.35.35,0,0,0,.18.05h1c.06,0,.07,0,0-.05L29.53,21.5l5.33-2.74s0-.05,0-.05"/><polygon class="cls-2" points="17.68 21.5 17.68 21.5 17.67 21.5 17.68 21.5 17.68 21.5"/><path class="cls-2" d="M30.05,15.07H12.91a1.75,1.75,0,0,0-1.78,1.35,1,1,0,0,0,.38,1l6.16,4.06h0l12.38-6.38c.05,0,.05,0,0,0"/><path class="cls-2" d="M27.34,27.87h0L17.68,21.5h0L9.78,25.56a1.61,1.61,0,0,0-.81,1c-.16.74.25,1.35,1.21,1.35H27.32c.05,0,.06,0,0-.06"/></svg>