<svg id="레이어_1" data-name="레이어 1" xmlns="http://www.w3.org/2000/svg" viewBox="0 0 43 43"><defs><style>.cls-1{fill:#d4332c;}.cls-2{fill:#fff;}</style></defs><title>유진투자증권</title><path class="cls-1" d="M0,21.5C0,22.76,0,22.91,0,24a28.13,28.13,0,0,0,1.29,8A16.92,16.92,0,0,0,4.53,37.6a15.21,15.21,0,0,0,6.23,4c2.45.85,5.1,1.25,10.26,1.36h1c5.16-.11,7.81-.51,10.26-1.36a15.21,15.21,0,0,0,6.23-4A16.92,16.92,0,0,0,41.68,32,28.13,28.13,0,0,0,43,24c0-1.07,0-1.22,0-2.48s0-1.41,0-2.48a28.13,28.13,0,0,0-1.29-8A16.82,16.82,0,0,0,38.47,5.4a15.21,15.21,0,0,0-6.23-4C29.79.51,27.14.11,22,0H21c-5.16.11-7.81.51-10.26,1.36a15.21,15.21,0,0,0-6.23,4A16.82,16.82,0,0,0,1.32,11,28.13,28.13,0,0,0,0,19C0,20.09,0,20.24,0,21.5Z"/><path class="cls-2" d="M21.51,32.85a11.4,11.4,0,0,1-8.92-18.53l.06,0c1.24-.78,2.4-.87,3.13-.26a1.91,1.91,0,0,1,.36,2.24,4.23,4.23,0,0,1-1.58,1.49,7.7,7.7,0,0,0-1.1.83,4,4,0,0,0-1,3.61A2.39,2.39,0,0,0,13.92,24a.57.57,0,0,0,.42,0c.17-.12.17-.61.18-1.09a3.46,3.46,0,0,1,.91-2.79,3,3,0,0,1,3.86.67c.41.51,1.14,1.89-1,3.67a7.49,7.49,0,0,0-1.17,1l-.32.33a2.25,2.25,0,0,0-.61,2.74c.81,1.67,3.54,2.94,5.71,2.68,2.88-.35,3.72-2.2,4.15-5.07a14.38,14.38,0,0,0,.12-2.95,9.1,9.1,0,0,1,.15-2.49v0a2.35,2.35,0,0,1,2.31-1.82,5.36,5.36,0,0,1,4.22,3l0,0v.05A11.4,11.4,0,0,1,21.51,32.85ZM12.92,14.63a10.82,10.82,0,0,0-2.38,6.81,11,11,0,0,0,21.92.63,5.06,5.06,0,0,0-3.8-2.7,1.94,1.94,0,0,0-1.88,1.52,8.39,8.39,0,0,0-.13,2.36,15.32,15.32,0,0,1-.13,3c-.45,3-1.39,5.07-4.54,5.45-2.38.3-5.26-1.07-6.16-2.92a2.73,2.73,0,0,1,.69-3.26l.32-.32a7.79,7.79,0,0,1,1.22-1.06c1.27-1.08,1.6-2.16.89-3a2.63,2.63,0,0,0-3.24-.61A3.16,3.16,0,0,0,15,23c0,.67,0,1.2-.36,1.44a.9.9,0,0,1-.83,0,2.82,2.82,0,0,1-1.71-2.16,4.36,4.36,0,0,1,1.09-4,7.71,7.71,0,0,1,1.16-.89,3.9,3.9,0,0,0,1.41-1.29,1.47,1.47,0,0,0-.23-1.73C15.06,14,14.15,13.87,12.92,14.63Z"/><path class="cls-2" d="M21.43,10.15a11.43,11.43,0,0,0-8.95,4.32c2.42-1.51,4-.07,3.24,1.74-.37.89-1.89,1.51-2.69,2.32-1.86,1.85-1.36,5.29.55,5.95s.1-2.6,1.77-4,6.32,1,2.67,4.1A9.56,9.56,0,0,0,16.48,26c-3,3,1.86,6.37,5.41,5.94,3.14-.39,4-2.45,4.44-5.39.4-2.68-.14-3.61.28-5.56,1.34-3.69,5.65-.55,6.26,1.24a6,6,0,0,0,0-.61A11.48,11.48,0,0,0,21.43,10.15Zm7.63,7.45c-.53.74-1.84.68-2.94-.1s-1.56-2-1-2.77,1.85-.68,2.94.12S29.59,16.87,29.06,17.6Z"/></svg>