<?xml version="1.0" encoding="UTF-8"?>
<svg id="_레이어_1" data-name="레이어 1" xmlns="http://www.w3.org/2000/svg" viewBox="0 0 32 32.02">
  <defs>
    <style>
      .cls-1 {
        fill: #003378;
      }

      .cls-1, .cls-2, .cls-3 {
        stroke-width: 0px;
      }

      .cls-2 {
        fill: none;
      }

      .cls-3 {
        fill: #fff;
      }
    </style>
  </defs>
  <rect class="cls-2" y=".01" width="32" height="32"/>
  <g id="_그룹_4634" data-name="그룹 4634">
    <path id="_패스_49326" data-name="패스 49326" class="cls-1" d="m0,16.01c0,.94,0,1.05.03,1.84.03,2.02.35,4.03.96,5.96.52,1.54,1.33,2.96,2.39,4.19,1.27,1.37,2.87,2.4,4.63,3,2.47.75,5.06,1.09,7.64,1.01h.71c2.59.08,5.17-.26,7.65-1.01,1.77-.61,3.36-1.64,4.63-3.01,1.06-1.23,1.86-2.65,2.38-4.18.61-1.93.93-3.93.96-5.95.03-.8.03-.91.03-1.85s0-1.05-.03-1.84c-.03-2.02-.35-4.03-.96-5.95-.52-1.54-1.33-2.96-2.39-4.19-1.27-1.37-2.86-2.4-4.63-3.01C21.52.27,18.94-.07,16.35.01h-.71c-2.58-.08-5.17.26-7.64,1.01-1.77.61-3.36,1.64-4.63,3.01-1.06,1.23-1.87,2.65-2.39,4.18C.38,10.14.05,12.14.03,14.17c-.03.8-.03.91-.03,1.85"/>
    <path id="_패스_54230" data-name="패스 54230" class="cls-3" d="m17.82,17.2h1.03c-.24.2-.38.49-.38.81,0,.38.17.74.47.96.3.24.67.37,1.05.36.38.01.74-.12,1.03-.36.3-.23.47-.59.47-.96,0-.31-.14-.61-.38-.81h1.03v-.58h-4.32v.58Zm1.63.27c.31-.27.77-.27,1.08,0,.28.23.33.65.1.93-.03.04-.06.07-.1.1-.15.13-.34.2-.54.2-.2,0-.39-.07-.54-.2-.15-.13-.24-.32-.25-.51.02-.19.11-.38.25-.51"/>
    <path id="_패스_54231" data-name="패스 54231" class="cls-3" d="m20.02,15.7c.33.38.82.59,1.32.58h.56v-.54h-.56c-.34.02-.67-.16-.83-.47h1.43v-.56h-3.87v.56h1.43c-.18.29-.49.47-.83.47h-.56v.54h.56c.51.03,1.01-.19,1.34-.58"/>
    <path id="_패스_54232" data-name="패스 54232" class="cls-3" d="m25.71,14.74v1.37c-.14.08-.29.13-.45.16v-1.34c0-.07-.06-.13-.13-.13h-2.46v.49h1.9v1.05h-2.01v.56h1.32v1.05h.58v-1.05h.4c.28,0,.56-.06.83-.16v.45h-.74v.54h.74v.29h.69v-3.27h-.67Z"/>
    <path id="_패스_54233" data-name="패스 54233" class="cls-3" d="m23.53,17.6h-.74v1.14c0,.18.15.33.34.34h3.27v-.56h-2.87v-.92Z"/>
    <path id="_패스_54234" data-name="패스 54234" class="cls-3" d="m13.72,16.8c.36,0,.56.05.58.29,0,.14-.07.27-.18.36-.22.18-.43.18-1.46.18h-5.15l.99-4.16h-1.72c-.11,0-.16.02-.2.18l-.94,3.92c-.2.58.1,1.21.68,1.42.14.05.29.07.44.06h2.37c.74-.13,1.37-.6,1.72-1.26.02-.02.02-.05.05-.09-.05.22-.22.98-.27,1.12-.05.16.05.22.13.22h2.55c2.15,0,3-1.03,3.07-2.26.05-.69-.4-1.14-1.64-1.14h-.94c-.34,0-.69-.11-.69-.38s.38-.51.9-.51h2.31l.25-.99c.05-.22-.02-.27-.18-.27h-2.89c-1.19-.14-2.27.71-2.42,1.9,0,.78.65,1.41,2.28,1.41h.36Z"/>
    <path id="_패스_54235" data-name="패스 54235" class="cls-3" d="m14.84,12.81h4.61l-2.38,1.21s.09-.4.13-.51c.02-.13,0-.22-.18-.25-.2-.05-2.19-.45-2.19-.45"/>
  </g>
</svg>