<svg id="레이어_1" data-name="레이어 1" xmlns="http://www.w3.org/2000/svg" viewBox="0 0 43 43"><defs><style>.cls-1{fill:#01448b;}.cls-2{fill:#fff;}</style></defs><title>한국포스증권</title><path class="cls-1" d="M0,21.5C0,22.76,0,22.91,0,24a28.25,28.25,0,0,0,1.29,8A16.87,16.87,0,0,0,4.53,37.6a15.21,15.21,0,0,0,6.23,4c2.45.85,5.1,1.25,10.26,1.36h1c5.16-.11,7.81-.51,10.26-1.36a15.21,15.21,0,0,0,6.23-4A16.87,16.87,0,0,0,41.68,32,28.25,28.25,0,0,0,43,24c0-1.07,0-1.22,0-2.48s0-1.41,0-2.48a28.25,28.25,0,0,0-1.29-8A16.87,16.87,0,0,0,38.47,5.4a15.21,15.21,0,0,0-6.23-4C29.79.51,27.14.11,22,0H21c-5.16.11-7.81.51-10.26,1.36a15.21,15.21,0,0,0-6.23,4A16.87,16.87,0,0,0,1.32,11,28.25,28.25,0,0,0,0,19C0,20.09,0,20.24,0,21.5Z"/><path class="cls-2" d="M14,22.74a4.33,4.33,0,0,1,2.28-5c4.18-2.09,8.44-4,12.68-6a4.35,4.35,0,0,1-2.37,5.09C22.47,18.85,18.27,20.75,14,22.74Z"/><path class="cls-2" d="M15,27.16a3.76,3.76,0,0,1,1.55-4.22,35.14,35.14,0,0,1,3.67-1.87c1.54-.74,3.09-1.45,4.63-2.17a3.74,3.74,0,0,1-1.79,4.38C20.41,24.63,17.7,25.87,15,27.16Z"/><path class="cls-2" d="M16,31.29c-.52-3.28,1.93-4.35,5.32-5.6a3.15,3.15,0,0,1-1.12,3.2A47.29,47.29,0,0,1,16,31.29Z"/></svg>