<svg id="레이어_1" data-name="레이어 1" xmlns="http://www.w3.org/2000/svg" viewBox="0 0 43 43"><defs><style>.cls-1{fill:#df007e;}.cls-2{fill:#fff;}</style></defs><title>흥국생명</title><path class="cls-1" d="M0,21.5C0,22.76,0,22.91,0,24a27.74,27.74,0,0,0,1.28,8A16.82,16.82,0,0,0,4.53,37.6a15.21,15.21,0,0,0,6.23,4c2.45.85,5.1,1.25,10.26,1.36h1c5.16-.11,7.81-.51,10.26-1.36a15.21,15.21,0,0,0,6.23-4A16.82,16.82,0,0,0,41.68,32,28.13,28.13,0,0,0,43,24c0-1.07,0-1.22,0-2.48s0-1.41,0-2.48a28.25,28.25,0,0,0-1.29-8A16.87,16.87,0,0,0,38.47,5.4a15.21,15.21,0,0,0-6.23-4C29.79.51,27.14.11,22,0H21c-5.16.11-7.81.51-10.26,1.36a15.21,15.21,0,0,0-6.23,4A16.87,16.87,0,0,0,1.32,11,27.86,27.86,0,0,0,0,19C0,20.09,0,20.24,0,21.5Z"/><rect class="cls-2" x="19.88" y="16.52" width="9.96" height="9.96" transform="translate(-7.92 23.89) rotate(-45.02)"/><rect class="cls-2" x="11.09" y="14.78" width="5.38" height="5.37"/><rect class="cls-2" x="11.09" y="22.84" width="5.38" height="5.37"/></svg>