<svg id="레이어_1" data-name="레이어 1" xmlns="http://www.w3.org/2000/svg" viewBox="0 0 43 43"><defs><style>.cls-1{fill:#008c81;}.cls-2{fill:#fff;}</style></defs><title>하나생명</title><path class="cls-1" d="M0,21.5C0,22.76,0,22.91,0,24a28.13,28.13,0,0,0,1.29,8A16.82,16.82,0,0,0,4.53,37.6a15.21,15.21,0,0,0,6.23,4c2.45.85,5.1,1.25,10.26,1.36h1c5.16-.11,7.81-.51,10.26-1.36a15.21,15.21,0,0,0,6.23-4A16.82,16.82,0,0,0,41.68,32,27.74,27.74,0,0,0,43,24c0-1.07,0-1.22,0-2.48s0-1.41,0-2.48a27.74,27.74,0,0,0-1.28-8A16.82,16.82,0,0,0,38.47,5.4a15.21,15.21,0,0,0-6.23-4C29.79.51,27.14.11,22,0H21c-5.16.11-7.81.51-10.26,1.36a15.21,15.21,0,0,0-6.23,4A16.82,16.82,0,0,0,1.32,11,28.13,28.13,0,0,0,0,19C0,20.09,0,20.24,0,21.5Z"/><path class="cls-2" d="M25.46,23.59c-.19-.35-.19-.69-.37-.86a6.45,6.45,0,0,0-1.93-2.44,5.1,5.1,0,0,0-4.75.16A4.32,4.32,0,0,0,17,22a1.41,1.41,0,0,0-.35.7A4.91,4.91,0,0,0,17,26.55a2.28,2.28,0,0,0,.89.88,1.1,1.1,0,0,0,1.23-.18c.53-.17.53-.86.53-1.21a2.42,2.42,0,0,1,0-1.91c0-.19.17-.35.35-.54,0-.16.19-.16.35-.16a1,1,0,0,1,.7-.19,1.12,1.12,0,0,1,1.07.89,3.45,3.45,0,0,1,.35,1.37,23,23,0,0,1-.88,6.1,1.38,1.38,0,0,0-.17.7.64.64,0,0,0-.18.53.17.17,0,0,1,.18.17,1.24,1.24,0,0,0,.86-.35,10.33,10.33,0,0,0,2.47-4.36,3.91,3.91,0,0,0,.53-1.9,7.35,7.35,0,0,0,.19-2.8"/><path class="cls-2" d="M34.25,14a.78.78,0,0,0-.69-.52,2.74,2.74,0,0,0-.89.35A33.21,33.21,0,0,1,15.6,15.4c-1.07-.16-1.93-.35-3-.51-.52,0-1.24-.19-1.75-.19s-1.23-.16-1.6.35c-.7.35-.52,1.4-.35,1.93a9.12,9.12,0,0,0,1.76,1.75A6,6,0,0,0,13,19.4c2.3-.16,4.41-.34,6.51-.67a40.4,40.4,0,0,0,11.1-2.28,17.89,17.89,0,0,0,3.16-1.75c.18-.16.53-.35.53-.69"/><path class="cls-2" d="M18.76,12.28a2.12,2.12,0,0,0,2.12,2.07A2.26,2.26,0,0,0,23,12.28a.64.64,0,0,0-.18-.53,1.76,1.76,0,0,1-.35-1.05c0-.7-.7-.7-1.23-.7a6.3,6.3,0,0,0-1.42.35,1.49,1.49,0,0,0-.7.7,1.48,1.48,0,0,0-.35,1.23"/></svg>