<svg id="레이어_1" data-name="레이어 1" xmlns="http://www.w3.org/2000/svg" viewBox="0 0 43 43"><defs><style>.cls-1{fill:#ed3423;}.cls-2{fill:#fff;}</style></defs><title>HSBC</title><path class="cls-1" d="M0,21.5C0,22.76,0,22.91,0,24a28.13,28.13,0,0,0,1.29,8A16.82,16.82,0,0,0,4.53,37.6a15.21,15.21,0,0,0,6.23,4c2.45.85,5.1,1.25,10.26,1.36h1c5.16-.11,7.81-.51,10.26-1.36a15.21,15.21,0,0,0,6.23-4A16.82,16.82,0,0,0,41.68,32,27.74,27.74,0,0,0,43,24c0-1.07,0-1.22,0-2.48s0-1.41,0-2.48a27.74,27.74,0,0,0-1.28-8A16.82,16.82,0,0,0,38.47,5.4a15.21,15.21,0,0,0-6.23-4C29.79.51,27.14.11,22,0H21c-5.16.11-7.81.51-10.26,1.36a15.21,15.21,0,0,0-6.23,4A16.82,16.82,0,0,0,1.32,11,28.13,28.13,0,0,0,0,19C0,20.09,0,20.24,0,21.5Z"/><path class="cls-2" d="M15.69,15.42l5.81,6,6-6ZM27.42,27.58l-5.93-5.93-5.86,5.93Zm.42-.14.09.06,5.75-5.9-5.84-6ZM9.32,21.54l6,5.9V15.64l-6,5.9"/><path class="cls-2" d="M15.69,15.42H27.5l-6,6-5.81-6"/><path class="cls-2" d="M27.42,27.58H15.63l5.86-5.93,5.93,5.93"/><path class="cls-2" d="M27.84,27.44V15.6l5.84,6-5.75,5.9-.09-.06"/><path class="cls-2" d="M9.32,21.54l6-5.9v11.8l-6-5.9"/></svg>