<svg id="레이어_1" data-name="레이어 1" xmlns="http://www.w3.org/2000/svg" viewBox="0 0 43 43"><defs><style>.cls-1{fill:#f4731c;}.cls-2{fill:#fff;}</style></defs><title>한화생명</title><path class="cls-1" d="M0,21.5C0,22.76,0,22.91,0,24a28.13,28.13,0,0,0,1.29,8A16.82,16.82,0,0,0,4.53,37.6a15.21,15.21,0,0,0,6.23,4c2.45.85,5.1,1.25,10.26,1.36h1c5.16-.11,7.81-.51,10.26-1.36a15.21,15.21,0,0,0,6.23-4A16.82,16.82,0,0,0,41.68,32,28.13,28.13,0,0,0,43,24c0-1.07,0-1.22,0-2.48s0-1.41,0-2.48a28.25,28.25,0,0,0-1.29-8A16.87,16.87,0,0,0,38.47,5.4a15.21,15.21,0,0,0-6.23-4C29.79.51,27.14.11,22,0H21c-5.16.11-7.81.51-10.26,1.36a15.21,15.21,0,0,0-6.23,4A16.87,16.87,0,0,0,1.32,11,28.25,28.25,0,0,0,0,19C0,20.09,0,20.24,0,21.5Z"/><path class="cls-2" d="M18.55,21.76C18.26,19.1,21,17,24.77,17s7,2.2,7.28,4.86-2.49,4.78-6.22,4.76-7-2.21-7.28-4.86m14.2.82c-.34-3.29-4.09-6-8.38-6s-7.5,2.61-7.16,5.9,4.08,6,8.38,6,7.5-2.6,7.16-5.9"/><path class="cls-2" d="M26.27,28.55a5.38,5.38,0,0,1-7.58.41,5.37,5.37,0,0,1,.08-7.59,5.37,5.37,0,0,1,7.58-.4,5.37,5.37,0,0,1-.08,7.58m-7.83-7.24a6.23,6.23,0,0,0-.09,8.81,6.25,6.25,0,0,0,8.81-.48,6.24,6.24,0,0,0,.09-8.81,6.25,6.25,0,0,0-8.81.48"/><path class="cls-2" d="M18.66,13c4.4-1.64,8.75,0,9.71,3.72s-1.81,8-6.21,9.68-8.74,0-9.71-3.71,1.82-8,6.21-9.69m-4.08,1.42C10,18.07,8.86,23.3,12,26.14s9.37,2.21,13.93-1.39,5.72-8.84,2.59-11.68-9.36-2.22-13.92,1.39"/></svg>