<?xml version="1.0" encoding="utf-8"?>
<!-- Generator: Adobe Illustrator 23.0.3, SVG Export Plug-In . SVG Version: 6.00 Build 0)  -->
<svg version="1.1" id="레이어_1" xmlns="http://www.w3.org/2000/svg" xmlns:xlink="http://www.w3.org/1999/xlink" x="0px"
	 y="0px" viewBox="0 0 43 43" style="enable-background:new 0 0 43 43;" xml:space="preserve">
<style type="text/css">
	.st0{fill:#FFFFFF;}
</style>
<g>
	<g>
		<path d="M0.1,21.5c0,1.3,0,1.4,0,2.5c0.1,2.4,0.3,5.1,1.3,8c0.7,2,1.9,4.2,3.2,5.6c1.6,1.8,3.8,3.2,6.2,4
			c2.4,0.8,5.1,1.2,10.2,1.4h0.5H22c5.1-0.1,7.8-0.5,10.2-1.4c2.4-0.8,4.6-2.3,6.2-4c1.3-1.4,2.5-3.6,3.2-5.6c1-2.9,1.2-5.6,1.3-8
			c0-1.1,0-1.2,0-2.5c0-1.3,0-1.4,0-2.5c-0.1-2.4-0.3-5.1-1.3-8c-0.7-2-1.9-4.2-3.2-5.6c-1.6-1.8-3.8-3.2-6.2-4
			C29.7,0.6,27.1,0.2,22,0.1h-0.5H21c-5.1,0.1-7.8,0.5-10.2,1.4c-2.4,0.8-4.6,2.3-6.2,4C3.4,6.9,2.1,9,1.4,11.1
			c-1,2.9-1.2,5.6-1.3,8C0.1,20.1,0.1,20.2,0.1,21.5z"/>
	</g>
	<g>
		<path class="st0" d="M31.2,18H11.8c-1.8,0-3.2,1.4-3.2,3.2V25h1.5v0v-3.7c0-0.9,0.8-1.7,1.7-1.7h19.3c0.9,0,1.7,0.8,1.7,1.7V25v0
			h1.5v-3.7C34.4,19.5,32.9,18,31.2,18z"/>
	</g>
</g>
</svg>
