<svg id="레이어_1" data-name="레이어 1" xmlns="http://www.w3.org/2000/svg" viewBox="0 0 43 43"><defs><style>.cls-1{fill:#0b3268;}.cls-2{fill:#fff;fill-rule:evenodd;}</style></defs><title>현대해상</title><path class="cls-1" d="M0,21.5C0,22.76,0,22.91,0,24a28.13,28.13,0,0,0,1.29,8A16.82,16.82,0,0,0,4.53,37.6a15.21,15.21,0,0,0,6.23,4c2.45.85,5.1,1.25,10.26,1.36h1c5.16-.11,7.81-.51,10.26-1.36a15.21,15.21,0,0,0,6.23-4A16.63,16.63,0,0,0,41.67,32,27.82,27.82,0,0,0,43,24c0-1.07,0-1.22,0-2.48s0-1.41,0-2.48a27.93,27.93,0,0,0-1.3-8,16.68,16.68,0,0,0-3.2-5.62,15.21,15.21,0,0,0-6.23-4C29.79.51,27.14.11,22,0H21c-5.16.11-7.81.51-10.26,1.36a15.21,15.21,0,0,0-6.23,4A16.87,16.87,0,0,0,1.32,11,28.25,28.25,0,0,0,0,19C0,20.09,0,20.24,0,21.5Z"/><path class="cls-2" d="M19.75,19.05a4.54,4.54,0,0,0,4.55-4.53h4.19v14H23.25V22.55h-3.5v5.93H14.51v-14h5.24Z"/></svg>