<svg id="레이어_1" data-name="레이어 1" xmlns="http://www.w3.org/2000/svg" viewBox="0 0 43 43"><defs><style>.cls-1{fill:#c40103;}.cls-2{fill:#fff;}</style></defs><title>중국공상</title><path class="cls-1" d="M0,21.5C0,22.76,0,22.91,0,24a28.07,28.07,0,0,0,1.29,8A16.82,16.82,0,0,0,4.53,37.6a15.21,15.21,0,0,0,6.23,4c2.45.85,5.1,1.25,10.26,1.36h1c5.16-.11,7.81-.51,10.26-1.36a15.21,15.21,0,0,0,6.23-4A16.82,16.82,0,0,0,41.68,32,27.69,27.69,0,0,0,43,24c0-1.07,0-1.22,0-2.48s0-1.41,0-2.48a27.74,27.74,0,0,0-1.28-8A16.92,16.92,0,0,0,38.47,5.4a15.21,15.21,0,0,0-6.23-4C29.79.51,27.14.11,22,0H21c-5.16.11-7.81.51-10.26,1.36a15.21,15.21,0,0,0-6.23,4A16.92,16.92,0,0,0,1.32,11,28.13,28.13,0,0,0,0,19C0,20.09,0,20.24,0,21.5Z"/><path class="cls-2" d="M21.49,9.77A11.73,11.73,0,1,0,33.24,21.45,11.7,11.7,0,0,0,21.49,9.77m0,21.75a10,10,0,1,1,10.06-10,10.08,10.08,0,0,1-10.06,10"/><polygon class="cls-2" points="17.11 24 20.75 24 20.75 18.68 17.33 18.68 17.33 16.71 20.74 16.71 20.74 15.29 15.62 15.29 15.62 20.36 18.89 20.36 18.89 22.41 15.6 22.41 15.6 27.24 20.75 27.24 20.75 25.71 17.11 25.71 17.11 24"/><polygon class="cls-2" points="26.06 24 22.43 24 22.43 18.68 25.84 18.68 25.84 16.71 22.43 16.71 22.43 15.29 27.55 15.29 27.55 20.36 24.29 20.36 24.29 22.41 27.57 22.41 27.57 27.24 22.43 27.24 22.43 25.71 26.06 25.71 26.06 24"/></svg>