<svg id="레이어_1" data-name="레이어 1" xmlns="http://www.w3.org/2000/svg" viewBox="0 0 43 43"><defs><style>.cls-1{fill:#004ca3;}.cls-2{fill:#fff;}</style></defs><title>IBK연금보험</title><path class="cls-1" d="M0,21.5C0,22.76,0,22.91,0,24a28.25,28.25,0,0,0,1.29,8A17,17,0,0,0,4.53,37.6a15.21,15.21,0,0,0,6.23,4c2.45.85,5.1,1.25,10.26,1.36h1c5.16-.11,7.81-.51,10.26-1.36a15.21,15.21,0,0,0,6.23-4A17,17,0,0,0,41.68,32,27.86,27.86,0,0,0,43,24c0-1.07,0-1.22,0-2.48s0-1.41,0-2.48a27.74,27.74,0,0,0-1.28-8A16.82,16.82,0,0,0,38.47,5.4a15.21,15.21,0,0,0-6.23-4C29.79.51,27.14.11,22,0H21c-5.16.11-7.81.51-10.26,1.36a15.21,15.21,0,0,0-6.23,4A16.82,16.82,0,0,0,1.32,11,28.13,28.13,0,0,0,0,19C0,20.09,0,20.24,0,21.5Z"/><path class="cls-2" d="M22.4,22.83a8.34,8.34,0,0,1-3.18,2.23l-.72.27V18.59l.71.27a8.28,8.28,0,0,1,3.19,2.22,7.3,7.3,0,0,0-3.53-10.63l-2.29-.76A2,2,0,0,0,14.1,11L9.24,25.5A2,2,0,0,0,10.51,28l11,3.68a7.28,7.28,0,0,0,.86-8.85M16,25.75H14.94V18.19H16Z"/><path class="cls-2" d="M21.77,22a7.21,7.21,0,0,0-2.22-1.77v3.54A7.24,7.24,0,0,0,21.77,22"/><path class="cls-2" d="M32.49,15,22.37,11.62A8.33,8.33,0,0,1,23.1,22,8.29,8.29,0,0,1,22.62,32l3.8,1.27a2,2,0,0,0,2.48-1.26L33.76,17.5A2,2,0,0,0,32.49,15M29.81,25.72H28.44L25.63,22l2.85-3.78h1.38L27,22Z"/></svg>