<svg id="레이어_1" data-name="레이어 1" xmlns="http://www.w3.org/2000/svg" viewBox="0 0 43 43"><defs><style>.cls-1{fill:#0c7dca;}.cls-2{fill:#fff;}</style></defs><title>JP</title><path class="cls-1" d="M0,21.5C0,22.76,0,22.91,0,24a27.44,27.44,0,0,0,1.29,8,16.63,16.63,0,0,0,3.2,5.63,15.21,15.21,0,0,0,6.23,4c2.45.85,5.1,1.25,10.26,1.36h1c5.16-.11,7.81-.51,10.26-1.36a15.21,15.21,0,0,0,6.23-4A16.82,16.82,0,0,0,41.68,32,27.74,27.74,0,0,0,43,24c0-1.07,0-1.22,0-2.48s0-1.41,0-2.48a27.74,27.74,0,0,0-1.28-8A16.82,16.82,0,0,0,38.47,5.4a15.21,15.21,0,0,0-6.23-4C29.79.51,27.14.11,22,0H21c-5.16.11-7.81.51-10.26,1.36a15.21,15.21,0,0,0-6.23,4A16.63,16.63,0,0,0,1.33,11,27.44,27.44,0,0,0,0,19C0,20.09,0,20.24,0,21.5Z"/><path class="cls-2" d="M17,25.34H11a3.37,3.37,0,0,1-.06-.36q0-3.68-.08-7.35A.93.93,0,0,1,11,17c1.93-2,3.89-3.94,6-5.85Z"/><path class="cls-2" d="M11.32,26H25.39v6l-.42,0c-2.45,0-4.91,0-7.36,0a1.07,1.07,0,0,1-.7-.25C15,29.87,13.15,27.9,11.32,26"/><path class="cls-2" d="M17.65,17V10.93h3.18c1.53,0,3.06,0,4.59,0a1.05,1.05,0,0,1,.69.26C28.05,13.06,30,15,31.9,16.85c0,0,0,.07.05.17Z"/><path class="cls-2" d="M26,31.85V17.72H32.1c0,.08,0,.19,0,.29,0,2.46,0,4.91,0,7.36a1.16,1.16,0,0,1-.29.74C30,28,28.08,29.92,26.19,31.81c0,0-.07,0-.18,0"/></svg>