<svg id="레이어_1" data-name="레이어 1" xmlns="http://www.w3.org/2000/svg" viewBox="0 0 42.96636 43"><defs><style>.cls-1{fill:#01499a;}.cls-2{fill:#fff;}</style></defs><title>광주은행</title><path class="cls-1" d="M.01682,21.50045c0,1.26155,0,1.41024.03493,2.47643a27.82547,27.82547,0,0,0,1.28882,7.99786,16.86882,16.86882,0,0,0,3.20335,5.62733,15.29051,15.29051,0,0,0,6.22218,4.04014c2.45254.84553,5.10055,1.2509,10.25843,1.35779h.95194c5.15787-.10689,7.80539-.51226,10.25843-1.35779a15.29047,15.29047,0,0,0,6.22217-4.04014,16.86694,16.86694,0,0,0,3.20335-5.62733,27.87671,27.87671,0,0,0,1.28882-7.99786c.03394-1.06619.03394-1.21488.03394-2.47643,0-1.26245,0-1.41014-.03394-2.47733a27.88247,27.88247,0,0,0-1.28882-7.99876A16.86977,16.86977,0,0,0,38.45707,5.398,15.28039,15.28039,0,0,0,32.2349,1.35779C29.78186.51224,27.13434.106,21.97647,0h-.95194C15.86665.106,13.21864.51224,10.7661,1.35779A15.28042,15.28042,0,0,0,4.54392,5.398a16.87166,16.87166,0,0,0-3.20335,5.62633A27.83123,27.83123,0,0,0,.05175,19.02312C.01682,20.09031.01682,20.238.01682,21.50045Z" transform="translate(-0.01682)"/><path class="cls-2" d="M32.76566,10.23283H10.23184V32.76717H32.76816V10.23283Zm0,22.5061-7.21512-7.17271-6.95146,6.84822L14.60529,28.422,25.55054,17.44414l7.21512,6.87119Z" transform="translate(-0.01682)"/></svg>