<svg id="레이어_1" data-name="레이어 1" xmlns="http://www.w3.org/2000/svg" viewBox="0 0 43 43"><defs><style>.cls-1{fill:#345d98;}.cls-2{fill:#fff;}</style></defs><title>KDB생명</title><path class="cls-1" d="M0,21.5C0,22.76,0,22.91,0,24a27.55,27.55,0,0,0,1.29,8,16.78,16.78,0,0,0,3.2,5.62,15.21,15.21,0,0,0,6.23,4c2.45.85,5.1,1.25,10.26,1.36h1c5.16-.11,7.81-.51,10.26-1.36a15.21,15.21,0,0,0,6.23-4A17,17,0,0,0,41.68,32,27.86,27.86,0,0,0,43,24c0-1.07,0-1.22,0-2.48s0-1.41,0-2.48a27.74,27.74,0,0,0-1.28-8A16.82,16.82,0,0,0,38.47,5.4a15.21,15.21,0,0,0-6.23-4C29.79.51,27.14.11,22,0H21c-5.16.11-7.81.51-10.26,1.36a15.21,15.21,0,0,0-6.23,4A16.63,16.63,0,0,0,1.33,11,27.44,27.44,0,0,0,0,19C0,20.09,0,20.24,0,21.5Z"/><path class="cls-2" d="M19.56,29l-5.62-8.82a4.33,4.33,0,0,1-.54-3.38L9.91,22.24a2.07,2.07,0,0,0,0,2.06l4,6.24a2.53,2.53,0,0,0,2,1h5.32L19.56,29Z"/><path class="cls-2" d="M14.58,19.75,17,23.61A1.83,1.83,0,0,1,17.12,22l4.66-7.35H16.54a2.37,2.37,0,0,0-2.06,1l-.44.69a4.33,4.33,0,0,0,.54,3.38"/><path class="cls-2" d="M33.1,18.69l-4-6.23a2.53,2.53,0,0,0-2-1H21.78l7.28,11.43a4.33,4.33,0,0,1,.54,3.38l3.49-5.47a2.09,2.09,0,0,0,0-2.07"/><path class="cls-2" d="M28.42,23.22,26,19.36A1.79,1.79,0,0,1,25.88,21l-4.66,7.35h5.24a2.36,2.36,0,0,0,2.06-1L29,26.6a4.33,4.33,0,0,0-.54-3.38"/><polygon class="cls-2" points="20.53 30.09 20.53 30.09 20.53 30.09 20.53 30.09"/></svg>