<svg id="레이어_1" data-name="레이어 1" xmlns="http://www.w3.org/2000/svg" viewBox="0 0 43 43"><defs><style>.cls-1{fill:#ffea03;}.cls-2{fill:#1d1d1d;}</style></defs><title>카뱅</title><path class="cls-1" d="M0,21.50056C0,22.763,0,22.9098.035,23.97689a27.80528,27.80528,0,0,0,1.28983,7.99784A16.88741,16.88741,0,0,0,4.53065,37.603a15.31,15.31,0,0,0,6.227,4.03924c2.45447.84564,5.10455,1.2509,10.26647,1.35779h.95268c5.16192-.10689,7.8115-.51215,10.26646-1.35779A15.31,15.31,0,0,0,38.47035,37.603a16.88567,16.88567,0,0,0,3.20585-5.62824A27.85682,27.85682,0,0,0,42.966,23.97689C43,22.9098,43,22.763,43,21.50056c0-1.26356,0-1.41024-.034-2.47842a27.85532,27.85532,0,0,0-1.28984-7.99677A16.86169,16.86169,0,0,0,38.47035,5.398,15.29358,15.29358,0,0,0,32.2433,1.35781C29.78834.51326,27.13876.107,21.97684,0h-.95268c-5.16192.107-7.812.51326-10.26647,1.35781A15.29361,15.29361,0,0,0,4.53065,5.398a16.86342,16.86342,0,0,0-3.20586,5.62733A27.80377,27.80377,0,0,0,.035,19.02214C0,20.09032,0,20.237,0,21.50056Z"/><path class="cls-2" d="M14.716,30.9598a1.15526,1.15526,0,0,0,.17114.00634h8.55408a4.85668,4.85668,0,0,0,2.45657-.6564,5.22827,5.22827,0,0,0,2.32292-2.68663,4.91158,4.91158,0,0,0,.291-2.50053,5.07643,5.07643,0,0,0-1.76974-3.23729c-.14648-.125-.30064-.24479-.47287-.38481.14232-.109.26219-.19037.37339-.28441a5.34407,5.34407,0,0,0,1.57823-2.1767,5.11593,5.11593,0,0,0-1.02079-5.29411,5.15057,5.15057,0,0,0-1.84566-1.30648,5.5835,5.5835,0,0,0-2.15046-.40517l-8.26046.0011a1.523,1.523,0,0,0-.17169.00316.34755.34755,0,0,0-.3312.35384c-.00055.05778,0,.1144,0,.17111V30.39316c0,.08769-.00482.17965.00219.26723A.31894.31894,0,0,0,14.716,30.9598Zm5.6792-13.70575h1.54174V25.7629H20.39515Z"/></svg>