<svg id="레이어_1" data-name="레이어 1" xmlns="http://www.w3.org/2000/svg" viewBox="0 0 43 43"><defs><style>.cls-1{fill:#231f20;}.cls-2,.cls-3{fill:#fff;}.cls-2{fill-rule:evenodd;}</style></defs><title>다올</title><path class="cls-1" d="M0,21.50045c0,1.26255,0,1.41024.03456,2.47742a27.78063,27.78063,0,0,0,1.28975,7.99677,16.86665,16.86665,0,0,0,3.206,5.62833A15.3114,15.3114,0,0,0,10.7568,41.6432C13.21238,42.48776,15.86139,42.893,21.02385,43h.95279c5.16147-.107,7.81148-.51224,10.26606-1.3568A15.31085,15.31085,0,0,0,38.46981,37.603a16.85961,16.85961,0,0,0,3.20588-5.62833,27.7963,27.7963,0,0,0,1.29025-7.99677C43,22.91069,43,22.763,43,21.50045s0-1.41024-.03406-2.47832a27.796,27.796,0,0,0-1.29025-7.99588,16.86055,16.86055,0,0,0-3.20588-5.62832A15.29038,15.29038,0,0,0,32.2427,1.35779C29.78812.51224,27.13811.10788,21.97664,0h-.95279c-5.16246.10788-7.81147.51224-10.267,1.35779A15.29092,15.29092,0,0,0,4.53029,5.39793a16.86759,16.86759,0,0,0-3.206,5.62832A27.7803,27.7803,0,0,0,.03456,19.02213C0,20.09021,0,20.238,0,21.50045Z"/><path class="cls-2" d="M26.06243,25.39648a3.89654,3.89654,0,1,1,3.92979-3.90168A3.91711,3.91711,0,0,1,26.06243,25.39648Zm-2.61882-3.89117a2.70818,2.70818,0,0,0,2.6066,2.76487,2.7618,2.7618,0,0,0,.007-5.521A2.70192,2.70192,0,0,0,23.44361,21.50531Z"/><path class="cls-2" d="M6.19556,18c1.29038.01136,2.61174-.0308,3.87293.08418.30519.02783.60686.06485.90372.11407a3.31,3.31,0,0,1,2.81364,3.63687,3.4425,3.4425,0,0,1-3.12722,3.29294c-1.16223.1351-3.85389.05965-3.85389.05965s.00216-.28421.00261-.4175q.00068-2.31585-.0009-4.63509A2.93506,2.93506,0,0,0,6.19556,18Zm1.94028,6.31749a15.81825,15.81825,0,0,0,2.20742-.04383,2.272,2.272,0,0,0,1.96624-1.93157,2.72205,2.72205,0,0,0-.80086-2.84032A2.99438,2.99438,0,0,0,9.7003,18.879c-.38417-.02982-1.57407-.02461-1.57407-.02461Z"/><path class="cls-2" d="M14.13365,25.17371s1.34556-2.87193,2.00738-4.28423q.33563-.71316.67323-1.428c.34609-.73512.34259-.79827-.14246-1.52979h1.63632L21.745,25.20875H20.28622l-.6965-1.48767-3.70568-.0088-.74473,1.49647ZM17.7257,19.765c-.51451,1.09648-.957,2.03855-1.42721,3.04207h2.85613C18.68008,21.79652,18.23626,20.85265,17.7257,19.765Z"/><path class="cls-3" d="M32.77606,24.37015V18.05094H30.83569a2.11949,2.11949,0,0,1,.59492,1.37366c.02283.252.0205.50708.02123.76135.004,1.12463.01807,5.04736.01807,5.04736s5.096-.00348,5.33453-.00348v-.85968Z"/></svg>