<svg id="레이어_1" data-name="레이어 1" xmlns="http://www.w3.org/2000/svg" xmlns:xlink="http://www.w3.org/1999/xlink" viewBox="0 0 43 43"><defs><style>.cls-1{fill:none;}.cls-2{fill:#229dee;}.cls-3{fill:#fff;}.cls-4{clip-path:url(#clip-path);}.cls-5{clip-path:url(#clip-path-2);}.cls-6{clip-path:url(#clip-path-3);}</style><clipPath id="clip-path"><path class="cls-1" d="M9.88,24.55a6.9,6.9,0,0,0,10.26,6V26.11A3.18,3.18,0,1,1,15.26,22a7,7,0,0,1-.86-3.37c0-.19,0-.38,0-.56a6.85,6.85,0,0,0-4.54,6.45"/></clipPath><clipPath id="clip-path-2"><path class="cls-1" d="M14.4,18.66A7,7,0,0,0,15.26,22a3.2,3.2,0,0,1,3.37-.85,3.34,3.34,0,0,1-.57-1.88,3.44,3.44,0,0,1,6.56-1.43,7.07,7.07,0,0,1,1.6-.18,6.81,6.81,0,0,1,2.36.41,7.1,7.1,0,0,0-14.18.56"/></clipPath><clipPath id="clip-path-3"><path class="cls-1" d="M24.62,17.87a3.26,3.26,0,0,1,.32,1.43,3.34,3.34,0,0,1-.57,1.88,3.17,3.17,0,1,1-1.5,4.93v4.43a6.87,6.87,0,1,0,3.35-12.85,7.07,7.07,0,0,0-1.6.18"/></clipPath></defs><title>새마을금고</title><path class="cls-2" d="M0,21.5C0,22.76,0,22.91,0,24a28.25,28.25,0,0,0,1.29,8A16.87,16.87,0,0,0,4.53,37.6a15.21,15.21,0,0,0,6.23,4c2.45.85,5.1,1.25,10.26,1.36h1c5.16-.11,7.81-.51,10.26-1.36a15.21,15.21,0,0,0,6.23-4A16.87,16.87,0,0,0,41.68,32,28.25,28.25,0,0,0,43,24c0-1.07,0-1.22,0-2.48s0-1.41,0-2.48a28.25,28.25,0,0,0-1.29-8A16.87,16.87,0,0,0,38.47,5.4a15.21,15.21,0,0,0-6.23-4C29.79.51,27.14.11,22,0H21c-5.16.11-7.81.51-10.26,1.36a15.21,15.21,0,0,0-6.23,4A16.87,16.87,0,0,0,1.32,11,28.25,28.25,0,0,0,0,19C0,20.09,0,20.24,0,21.5Z"/><path class="cls-3" d="M9.88,24.55a6.9,6.9,0,0,0,10.26,6V26.11A3.18,3.18,0,1,1,15.26,22a7,7,0,0,1-.86-3.37c0-.19,0-.38,0-.57a6.88,6.88,0,0,0-4.54,6.46"/><g class="cls-4"><rect class="cls-3" x="7.6" y="16.35" width="14.85" height="16.88"/></g><path class="cls-3" d="M14.4,18.66A7,7,0,0,0,15.26,22a3.2,3.2,0,0,1,2.34-1,3.47,3.47,0,0,1,1,.17,3.34,3.34,0,0,1-.57-1.88,3.44,3.44,0,0,1,6.56-1.43,7.18,7.18,0,0,1,4,.22,7.1,7.1,0,0,0-14.18.57"/><g class="cls-5"><rect class="cls-3" x="11.02" y="7.06" width="20.99" height="19.57"/></g><path class="cls-3" d="M24.62,17.87a3.26,3.26,0,0,1,.32,1.43,3.36,3.36,0,0,1-.57,1.88,3.17,3.17,0,1,1-1.5,4.93v4.43a6.87,6.87,0,1,0,3.35-12.85,7.07,7.07,0,0,0-1.6.18"/><g class="cls-6"><rect class="cls-3" x="20.5" y="15.94" width="14.98" height="17.29"/></g></svg>