<svg id="레이어_1" data-name="레이어 1" xmlns="http://www.w3.org/2000/svg" viewBox="0 0 43 43"><defs><style>.cls-1{fill:#28157e;}.cls-2{fill:#fff;}</style></defs><title>케이뱅크</title><path class="cls-1" d="M0,21.5C0,22.76,0,22.91,0,24a28.13,28.13,0,0,0,1.29,8A16.92,16.92,0,0,0,4.53,37.6a15.21,15.21,0,0,0,6.23,4c2.45.85,5.1,1.25,10.26,1.36h1c5.16-.11,7.81-.51,10.26-1.36a15.21,15.21,0,0,0,6.23-4A16.92,16.92,0,0,0,41.68,32,27.74,27.74,0,0,0,43,24c0-1.07,0-1.22,0-2.48s0-1.41,0-2.48a27.74,27.74,0,0,0-1.28-8A16.82,16.82,0,0,0,38.47,5.4a15.21,15.21,0,0,0-6.23-4C29.79.51,27.14.11,22,0H21c-5.16.11-7.81.51-10.26,1.36a15.21,15.21,0,0,0-6.23,4A16.82,16.82,0,0,0,1.32,11,28.13,28.13,0,0,0,0,19C0,20.09,0,20.24,0,21.5Z"/><polygon class="cls-2" points="12.12 17.6 10.22 17.6 7.21 21.09 7.21 17.6 5.69 17.6 5.69 25.23 7.21 25.23 7.21 21.72 10.32 25.23 12.22 25.23 8.84 21.41 12.12 17.6"/><polygon class="cls-2" points="37.31 25.23 35.02 22.59 37.24 19.95 35.6 19.95 33.67 22.23 33.67 17.6 32.15 17.6 32.15 25.23 33.67 25.23 33.67 22.94 35.63 25.23 37.31 25.23"/><path class="cls-2" d="M15.87,19.76a2.58,2.58,0,0,0-1.64.65V17.6H12.71v5A2.68,2.68,0,0,0,15.6,25.4a2.73,2.73,0,0,0,2.88-2.81,2.64,2.64,0,0,0-2.61-2.83M15.6,24a1.43,1.43,0,0,1-1.44-1.4.06.06,0,0,1,0,0,1.5,1.5,0,0,1,.08-.47,1.45,1.45,0,0,1,1.37-1,1.44,1.44,0,1,1,0,2.88"/><path class="cls-2" d="M29.23,19.76a2.54,2.54,0,0,0-1.75.67v-.5H26v5.3h1.52v-3a1.12,1.12,0,1,1,2.24,0v3h1.53V21.77a2,2,0,0,0-2-2"/><path class="cls-2" d="M22.12,19.77a2.75,2.75,0,0,0-2.92,2.8,2.66,2.66,0,0,0,2.65,2.83,2.34,2.34,0,0,0,1.82-.91v.74H25V22.57h0v0a2.69,2.69,0,0,0-2.92-2.78m0,4.25a1.45,1.45,0,1,1,1.45-1.45A1.45,1.45,0,0,1,22.15,24"/></svg>