<svg id="레이어_1" data-name="레이어 1" xmlns="http://www.w3.org/2000/svg" viewBox="0 0 43 43"><defs><style>.cls-1{fill:#48af36;}.cls-2{fill:#fff;}</style></defs><title>교보라이프플래닛생명보험</title><path class="cls-1" d="M0,21.5C0,22.76,0,22.91,0,24a27.74,27.74,0,0,0,1.28,8A16.82,16.82,0,0,0,4.53,37.6a15.21,15.21,0,0,0,6.23,4c2.45.85,5.1,1.25,10.26,1.36h1c5.16-.11,7.81-.51,10.26-1.36a15.21,15.21,0,0,0,6.23-4A16.82,16.82,0,0,0,41.68,32,28.13,28.13,0,0,0,43,24c0-1.07,0-1.22,0-2.48s0-1.41,0-2.48a28.25,28.25,0,0,0-1.29-8A16.87,16.87,0,0,0,38.47,5.4a15.21,15.21,0,0,0-6.23-4C29.79.51,27.14.11,22,0H21c-5.16.11-7.81.51-10.26,1.36a15.21,15.21,0,0,0-6.23,4A16.87,16.87,0,0,0,1.32,11,27.86,27.86,0,0,0,0,19C0,20.09,0,20.24,0,21.5Z"/><path class="cls-2" d="M32.24,16.58a3.07,3.07,0,0,0-4.39.24C26.32,18.43,25.13,19,23.71,19c-2-.09-3-1.62-4-3.55A5.23,5.23,0,0,0,15,12.27c-3.19,0-5.1,2.58-5.1,5.46a9.32,9.32,0,0,0,5.27,8.19,12.82,12.82,0,0,0,5.56,1.36A17.4,17.4,0,0,1,20,30.73h3.64a16.58,16.58,0,0,1-.77-3.57c5.34-.69,7.88-3.11,9.27-5.42a5.91,5.91,0,0,0,.95-3,3,3,0,0,0-.84-2.15M15.05,19.35a1.86,1.86,0,1,1-.24-3.72,1.86,1.86,0,0,1,.24,3.72"/></svg>