<svg id="레이어_1" data-name="레이어 1" xmlns="http://www.w3.org/2000/svg" viewBox="0 0 43 43"><defs><style>.cls-1{fill:#7e7266;}.cls-2{fill:#fff;}</style></defs><title>KB생명</title><path class="cls-1" d="M0,21.5C0,22.76,0,22.91,0,24a28.25,28.25,0,0,0,1.29,8A17,17,0,0,0,4.53,37.6a15.21,15.21,0,0,0,6.23,4c2.45.85,5.1,1.25,10.26,1.36h1c5.16-.11,7.81-.51,10.26-1.36a15.21,15.21,0,0,0,6.23-4A17,17,0,0,0,41.68,32,28.25,28.25,0,0,0,43,24c0-1.07,0-1.22,0-2.48s0-1.41,0-2.48a28.13,28.13,0,0,0-1.29-8A16.82,16.82,0,0,0,38.47,5.4a15.21,15.21,0,0,0-6.23-4C29.79.51,27.14.11,22,0H21c-5.16.11-7.81.51-10.26,1.36a15.21,15.21,0,0,0-6.23,4A16.82,16.82,0,0,0,1.32,11,28.13,28.13,0,0,0,0,19C0,20.09,0,20.24,0,21.5Z"/><path class="cls-2" d="M34.44,21.75l-.23-.15a4.19,4.19,0,0,0-3.35-1,6.38,6.38,0,0,0-2.94,1v0a9.84,9.84,0,0,1,.09-1.2c0-.41.08-.83.08-1.22A2.79,2.79,0,0,0,27.91,18a.22.22,0,0,0-.21-.14,3.07,3.07,0,0,0-1.35.45l-.11.22a9.09,9.09,0,0,1-.19,1.8l-.06.15a22,22,0,0,0,0,4.59c0,.13.27.33.46.4a3,3,0,0,0,1.28-.24l.14,0a.21.21,0,0,0,.19-.25v-.38a3.78,3.78,0,0,1,2.75-2.7,1.9,1.9,0,0,1,1.83.6,2.5,2.5,0,0,1-.3,1.84A3.81,3.81,0,0,1,30.25,26a8.1,8.1,0,0,1-3.2.45l-1.18-.79a16.84,16.84,0,0,0-3.36-2,4.69,4.69,0,0,1-.76-.54l-.11-.1c-.65-.52-1.88-1.34-2.87-2l-.54-.35a.59.59,0,0,0,0-.11s.65-.41.65-.41a6.24,6.24,0,0,0,1.35-.89s.12-.06.12-.06L22.52,18a26.33,26.33,0,0,0,5.65-3.71l.06-.19,0-.18a1.18,1.18,0,0,0,0-.72.23.23,0,0,0-.16-.17,4.74,4.74,0,0,0-3.34,1.55,3.13,3.13,0,0,1-.69.47l-.18.1c-1.24.71-4,2.45-5.51,3.39a47.75,47.75,0,0,1,.74-5.7l0-.22-.15-.28-.11-.21h0a.94.94,0,0,0-.71,0l-.29.11-.39.14a.21.21,0,0,0-.16.14,23.84,23.84,0,0,0-1.43,6.71,34.44,34.44,0,0,0-3.33-1.84h0l-.08,0a2.49,2.49,0,0,1-.77-.36l-.53-.34L10.26,16l-.21,0a2.58,2.58,0,0,0-1.22.81.23.23,0,0,0,0,.14.72.72,0,0,0,0,.19l0,.16,0,.1A11.86,11.86,0,0,0,11.24,19l1.12.59,1.72.94.29.23.2.12,0,0L11.49,23,9.85,24.05c-.16.1-.8.39-.95.45a1.3,1.3,0,0,0-.73.61l-.05.09.05.06.12.1.17.11.18.12.17,0a4.59,4.59,0,0,0,1.52-.5c.73-.33,2.72-1.53,3.57-2l.36-.22a.81.81,0,0,0,.47-.22,4.16,4.16,0,0,1,.77-.47l.25-.14v.1a35.44,35.44,0,0,0,.47,5.95v0l0,.06a6.68,6.68,0,0,1,.44,1.37L17,30.62l.1.1a2.19,2.19,0,0,0,1.12.3l.1,0,.05-.13a2,2,0,0,0,.05-.5c0-.19,0-.41,0-.68l0-.39c-.12-1.82-.24-4.44-.24-6.19V23L19.8,24c2.3,1.49,5.77,3.74,7.87,4.34a.34.34,0,0,0,.31-.07l.32-.21.06,0a.62.62,0,0,0,.22-.48c1.77-.09,4.24-.77,5.55-2.43A3.43,3.43,0,0,0,34.88,23a1.78,1.78,0,0,0-.44-1.29"/></svg>