<svg id="레이어_1" data-name="레이어 1" xmlns="http://www.w3.org/2000/svg" viewBox="0 0 43 43"><defs><style>.cls-1{fill:#ffde00;}.cls-2,.cls-3{fill:#1d1d1d;}.cls-2{fill-rule:evenodd;}</style></defs><title>카카오페이증권</title><path class="cls-1" d="M0,21.5C0,22.76,0,22.91,0,24a28.13,28.13,0,0,0,1.29,8A16.82,16.82,0,0,0,4.53,37.6a15.21,15.21,0,0,0,6.23,4c2.45.85,5.1,1.25,10.26,1.36h1c5.16-.11,7.81-.51,10.26-1.36a15.21,15.21,0,0,0,6.23-4A16.82,16.82,0,0,0,41.68,32,28.13,28.13,0,0,0,43,24c0-1.07,0-1.22,0-2.48s0-1.41,0-2.48a28.25,28.25,0,0,0-1.29-8A16.87,16.87,0,0,0,38.47,5.4a15.21,15.21,0,0,0-6.23-4C29.79.51,27.14.11,22,0H21c-5.16.11-7.81.51-10.26,1.36a15.21,15.21,0,0,0-6.23,4A16.87,16.87,0,0,0,1.32,11,28.25,28.25,0,0,0,0,19C0,20.09,0,20.24,0,21.5Z"/><path class="cls-2" d="M11.42,17C9,17,7,18.6,7,20.54a3.4,3.4,0,0,0,2.06,2.95l-.42,1.56a.13.13,0,0,0,0,.13.15.15,0,0,0,.09,0,.13.13,0,0,0,.08,0L10.62,24a5.39,5.39,0,0,0,.8.06c2.45,0,4.44-1.56,4.44-3.49S13.87,17,11.42,17Z"/><path class="cls-3" d="M19.59,23.44V25.7H18V17.37h1.14l.19.53a2.31,2.31,0,0,1,1.7-.71c1.58,0,2.33,1.18,2.32,3.09s-1.16,3.27-2.81,3.27A3.46,3.46,0,0,1,19.59,23.44Zm0-4.73v3.61a5.2,5.2,0,0,0,.52,0c1.15,0,1.59-.8,1.59-2.07s-.3-1.79-1.22-1.79A2.09,2.09,0,0,0,19.59,18.71Z"/><path class="cls-3" d="M26.83,19.72h.92v-.2c0-.66-.37-1-1-1a4.1,4.1,0,0,0-1.66.39l-.44-1.07a4.2,4.2,0,0,1,2.24-.68,2.13,2.13,0,0,1,2.38,2.37v3.83H28.11L28,22.88a3.08,3.08,0,0,1-1.79.67,1.7,1.7,0,0,1-1.84-1.89C24.32,20.39,25.2,19.72,26.83,19.72Zm.92,2.12v-1.1H27c-.83,0-1.24.3-1.24.89a.61.61,0,0,0,.7.68A2.26,2.26,0,0,0,27.75,21.84Z"/><path class="cls-3" d="M34.12,22.77A6,6,0,0,1,31.91,26l-1-.91a5.61,5.61,0,0,0,1.33-1.63l-2.14-5.83,1.6-.43,1.37,4.73,1.35-4.75,1.58.44Z"/></svg>