<?xml version="1.0" encoding="utf-8"?>
<!-- Generator: Adobe Illustrator 23.0.3, SVG Export Plug-In . SVG Version: 6.00 Build 0)  -->
<svg version="1.1" id="레이어_1" xmlns="http://www.w3.org/2000/svg" xmlns:xlink="http://www.w3.org/1999/xlink" x="0px"
	 y="0px" viewBox="0 0 43 43" style="enable-background:new 0 0 43 43;" xml:space="preserve">
<style type="text/css">
	.st0{fill:#54565A;}
	.st1{fill:#FFFFFF;}
</style>
<g>
	<g>
		<path class="st0" d="M0.1,21.5c0,1.3,0,1.4,0,2.5c0.1,2.4,0.3,5.1,1.3,8c0.7,2,1.9,4.2,3.2,5.6c1.6,1.8,3.8,3.2,6.2,4
			c2.4,0.8,5.1,1.2,10.2,1.4h0.5H22c5.1-0.1,7.8-0.5,10.2-1.4c2.4-0.8,4.6-2.3,6.2-4c1.3-1.4,2.5-3.6,3.2-5.6c1-2.9,1.2-5.6,1.3-8
			c0-1.1,0-1.2,0-2.5c0-1.3,0-1.4,0-2.5c-0.1-2.4-0.3-5.1-1.3-8c-0.7-2-1.9-4.2-3.2-5.6c-1.6-1.8-3.8-3.2-6.2-4
			C29.7,0.6,27.1,0.2,22,0.1h-0.5H21c-5.1,0.1-7.8,0.5-10.2,1.4c-2.4,0.8-4.6,2.3-6.2,4C3.4,6.9,2.1,9,1.4,11.1
			c-1,2.9-1.2,5.6-1.3,8C0.1,20.1,0.1,20.2,0.1,21.5z"/>
	</g>
	<g>
		<path class="st1" d="M22.4,19H25c0,0.3-0.1,0.7-0.2,1.1h-2.4v0.5h2.2c-0.5,0.8-1.2,1.5-2.5,1.8l0.3,0.4c1.7-0.4,3.6-1.7,3.6-4.3
			h-3.7V19z"/>
		<polygon class="st1" points="27.9,18.3 26.9,18.3 26.9,24.7 27.9,24.7 27.9,20.7 28.9,20.7 28.9,20.3 27.9,20.3 		"/>
		<path class="st1" d="M30.2,21.9h4.7v-0.5H31c-0.1,0-0.2-0.1-0.2-0.2V19h4.1v-0.5h-5.1v2.9C29.8,21.7,30,21.9,30.2,21.9"/>
		<rect x="29.2" y="23.4" class="st1" width="6.3" height="0.5"/>
		<rect x="19.9" y="18.3" class="st1" width="1" height="6.4"/>
		<path class="st1" d="M11.1,21.1h2.1v-0.5h-4c-0.1,0-0.2-0.1-0.2-0.2V20h4.1v-1.6H8v0.5h4.1v0.6H8v1.1c0,0.3,0.2,0.5,0.5,0.5h1.6
			v0.6H7.5v0.5h6.3v-0.5h-2.6V21.1z"/>
		<path class="st1" d="M18.3,20.3h-1.2v0.6h1.2v1.4c-0.2,0.1-0.4,0.1-0.8,0.1h-1.4c-0.1,0-0.2-0.1-0.2-0.2V19h1.8v-0.5H15v3.9
			c0,0.3,0.2,0.5,0.5,0.5h2.1c0.3,0,0.6-0.1,0.8-0.2l0,2h1v-6.4h-1V20.3z"/>
		<path class="st1" d="M11.2,22.4H10c-0.3,1.2-1.7,1.8-2.3,1.9L8,24.7c0.5-0.1,1.8-0.5,2.5-1.3c0.8,0.8,2,1.2,2.5,1.3l0.3-0.4
			C12.9,24.2,11.4,23.7,11.2,22.4"/>
	</g>
</g>
</svg>
