<svg id="레이어_1" data-name="레이어 1" xmlns="http://www.w3.org/2000/svg" viewBox="0 0 43 43"><defs><style>.cls-1{fill:#e2071e;}.cls-2{fill:#fff;}</style></defs><title>롯데손해보험</title><path class="cls-1" d="M0,21.5C0,22.76,0,22.91,0,24a27.69,27.69,0,0,0,1.28,8A16.82,16.82,0,0,0,4.53,37.6a15.21,15.21,0,0,0,6.23,4c2.45.85,5.1,1.25,10.26,1.36h1c5.16-.11,7.81-.51,10.26-1.36a15.21,15.21,0,0,0,6.23-4A16.82,16.82,0,0,0,41.68,32,28.07,28.07,0,0,0,43,24c0-1.07,0-1.22,0-2.48s0-1.41,0-2.48a28.25,28.25,0,0,0-1.29-8A17,17,0,0,0,38.47,5.4a15.21,15.21,0,0,0-6.23-4C29.79.51,27.14.11,22,0H21c-5.16.11-7.81.51-10.26,1.36a15.21,15.21,0,0,0-6.23,4A17,17,0,0,0,1.32,11,27.86,27.86,0,0,0,0,19C0,20.09,0,20.24,0,21.5Z"/><path class="cls-2" d="M30.23,17.17l-4.4-4.39a6.14,6.14,0,0,0-8.66,0l-4.4,4.39a6.13,6.13,0,0,0,0,8.65l4.4,4.4a6.14,6.14,0,0,0,8.66,0l4.4-4.4A6.13,6.13,0,0,0,30.23,17.17ZM18.92,28h0a.65.65,0,0,1-.48-1.09.62.62,0,0,1,.45-.21.65.65,0,0,1,.06,1.3Zm7.81-2.72a5.7,5.7,0,0,1-3.15,2.66s0,0,0,0A2.83,2.83,0,0,1,23,28a2.7,2.7,0,0,1-1.54-.5,4.13,4.13,0,0,1-1-.91c-1.85-2.38-2-6.86-2-7.36a5.27,5.27,0,0,1,1.08-3.73,2.34,2.34,0,0,1,1.69-.68h.11a2.31,2.31,0,0,1,1.69.68,5.23,5.23,0,0,1,1.09,3.73A12,12,0,0,1,22.6,25a.59.59,0,0,1-.5.28.61.61,0,0,1-.3-.08.59.59,0,0,1-.2-.8A10.09,10.09,0,0,0,23,19.18a4.1,4.1,0,0,0-.74-2.88,1.16,1.16,0,0,0-.87-.34h-.1a1.18,1.18,0,0,0-.88.34,4.11,4.11,0,0,0-.73,2.88c0,1.68.42,5,1.74,6.66a3,3,0,0,0,.69.66,1.53,1.53,0,0,0,.9.3l.35,0a4.85,4.85,0,0,0,2.42-2.15.58.58,0,0,1,.8-.18.6.6,0,0,1,.26.36A.57.57,0,0,1,26.73,25.24Z"/></svg>