<svg id="레이어_1" data-name="레이어 1" xmlns="http://www.w3.org/2000/svg" viewBox="0 0 43 43"><defs><style>.cls-1{fill:#ef3b25;}.cls-2{fill:#fff;}</style></defs><title>메리츠증권</title><path class="cls-1" d="M0,21.5C0,22.76,0,22.91,0,24a28.25,28.25,0,0,0,1.29,8A17,17,0,0,0,4.53,37.6a15.21,15.21,0,0,0,6.23,4c2.45.85,5.1,1.25,10.26,1.36h1c5.16-.11,7.81-.51,10.26-1.36a15.21,15.21,0,0,0,6.23-4A17,17,0,0,0,41.68,32,28.25,28.25,0,0,0,43,24c0-1.07,0-1.22,0-2.48s0-1.41,0-2.48a28.13,28.13,0,0,0-1.29-8A16.82,16.82,0,0,0,38.47,5.4a15.21,15.21,0,0,0-6.23-4C29.79.51,27.14.11,22,0H21c-5.16.11-7.81.51-10.26,1.36a15.21,15.21,0,0,0-6.23,4A16.82,16.82,0,0,0,1.32,11,28.13,28.13,0,0,0,0,19C0,20.09,0,20.24,0,21.5Z"/><path class="cls-2" d="M14.11,20.24a1.61,1.61,0,0,0-1.46.74,1.47,1.47,0,0,0-1.39-.74,1.65,1.65,0,0,0-1.35.68v-.54H8.54v4.7H10v-2.7a.76.76,0,0,1,.77-.81.71.71,0,0,1,.76.79v2.72h1.41V22.37a.76.76,0,0,1,.79-.8.7.7,0,0,1,.74.79v2.72h1.39V22a1.64,1.64,0,0,0-1.73-1.8"/><path class="cls-2" d="M22.94,21v-.64H21.55v4.7H23V23c0-.94.52-1.28,1.1-1.28a1.82,1.82,0,0,1,.45.05V20.38a1.92,1.92,0,0,0-.38,0,1.34,1.34,0,0,0-1.22.68"/><rect class="cls-2" x="25.03" y="20.38" width="1.44" height="4.69"/><path class="cls-2" d="M29.07,19H27.78v.6a.69.69,0,0,1-.73.76h-.23v1.26h.83v2a1.42,1.42,0,0,0,1.57,1.51A1.64,1.64,0,0,0,30,25V23.84a1.57,1.57,0,0,1-.37.05c-.32,0-.52-.11-.52-.49V21.64H30V20.38h-.91Z"/><path class="cls-2" d="M25.74,17.75a.93.93,0,1,0,.94.93.93.93,0,0,0-.94-.93"/><path class="cls-2" d="M18.68,20.22a2.39,2.39,0,0,0-2.37,2.5,2.42,2.42,0,0,0,2.48,2.53A2.15,2.15,0,0,0,20.88,24l-1.19-.45a.9.9,0,0,1-.88.47,1,1,0,0,1-1.08-.91H21a2.94,2.94,0,0,0,0-.45,2.22,2.22,0,0,0-2.38-2.43m-.93,1.94a.91.91,0,0,1,.95-.8.84.84,0,0,1,.95.8Z"/><polygon class="cls-2" points="32.28 23.82 34.42 21.57 34.42 20.39 30.58 20.39 30.58 21.61 30.58 21.64 32.56 21.64 30.52 23.81 30.52 25.08 34.46 25.08 34.46 23.84 34.46 23.82 32.28 23.82"/></svg>