<svg id="레이어_1" data-name="레이어 1" xmlns="http://www.w3.org/2000/svg" viewBox="0 0 43 43"><defs><style>.cls-1{fill:#0480cc;}.cls-2{fill:#fff;}</style></defs><title>유안타증권</title><path class="cls-1" d="M0,21.5C0,22.76,0,22.91,0,24a28.13,28.13,0,0,0,1.29,8A16.92,16.92,0,0,0,4.53,37.6a15.21,15.21,0,0,0,6.23,4c2.45.85,5.1,1.25,10.26,1.36h1c5.16-.11,7.81-.51,10.26-1.36a15.21,15.21,0,0,0,6.23-4A16.92,16.92,0,0,0,41.68,32,28.13,28.13,0,0,0,43,24c0-1.07,0-1.22,0-2.48s0-1.41,0-2.48a28.13,28.13,0,0,0-1.29-8A16.82,16.82,0,0,0,38.47,5.4a15.21,15.21,0,0,0-6.23-4C29.79.51,27.14.11,22,0H21c-5.16.11-7.81.51-10.26,1.36a15.21,15.21,0,0,0-6.23,4A16.82,16.82,0,0,0,1.32,11,28.13,28.13,0,0,0,0,19C0,20.09,0,20.24,0,21.5Z"/><path class="cls-2" d="M10.85,21.79a.3.3,0,0,1,.3-.3l5.53,0a.28.28,0,0,1,.3.29.5.5,0,0,1,0,.12l-2.73,6.76a.28.28,0,0,1-.27.19.33.33,0,0,1-.21-.09,0,0,0,0,1,0,0,10.65,10.65,0,0,1-2.89-6.91h0Z"/><path class="cls-2" d="M16.71,30.62,20,22.47v0A1.62,1.62,0,0,1,23,22.33l3.46,8.23h0a.43.43,0,0,1,0,.11.3.3,0,0,1-.15.26h0a10.66,10.66,0,0,1-9.43.06h0a.3.3,0,0,1-.16-.26.43.43,0,0,1,0-.11h0"/><path class="cls-2" d="M26,21.81h0a.43.43,0,0,1,0-.11.3.3,0,0,1,.29-.3l5.54,0a.3.3,0,0,1,.3.29h0a10.6,10.6,0,0,1-2.79,7h0a.33.33,0,0,1-.21.09.3.3,0,0,1-.28-.18Z"/><path class="cls-2" d="M31.28,18.31l-6.48.05h0a.27.27,0,0,1-.24-.19L24,16.93A14.37,14.37,0,0,1,23,11.72v-.5a.29.29,0,0,1,.29-.29h.05a10.64,10.64,0,0,1,8.27,7h0a.3.3,0,0,1,0,.1.29.29,0,0,1-.3.29"/><path class="cls-2" d="M18.93,17l-.5,1.25a.31.31,0,0,1-.21.18h-.06l-6.49.05a.3.3,0,0,1-.3-.29.3.3,0,0,1,0-.1h0A10.64,10.64,0,0,1,19.56,11h0a.3.3,0,0,1,.31.29v.5h0a14.49,14.49,0,0,1-1,5.23"/></svg>