<svg id="레이어_1" data-name="레이어 1" xmlns="http://www.w3.org/2000/svg" viewBox="0 0 43 43"><defs><style>.cls-1{fill:#e78001;}.cls-2{fill:#fff;}</style></defs><title>미래에셋생명</title><path class="cls-1" d="M0,21.5C0,22.76,0,22.91,0,24a28.25,28.25,0,0,0,1.29,8A16.87,16.87,0,0,0,4.53,37.6a15.21,15.21,0,0,0,6.23,4c2.45.85,5.1,1.25,10.26,1.36h1c5.16-.11,7.81-.51,10.26-1.36a15.21,15.21,0,0,0,6.23-4A16.68,16.68,0,0,0,41.67,32,27.93,27.93,0,0,0,43,24c0-1.07,0-1.22,0-2.48s0-1.41,0-2.48a27.82,27.82,0,0,0-1.3-8,16.63,16.63,0,0,0-3.2-5.63,15.21,15.21,0,0,0-6.23-4C29.79.51,27.14.11,22,0H21c-5.16.11-7.81.51-10.26,1.36a15.21,15.21,0,0,0-6.23,4A16.82,16.82,0,0,0,1.32,11,28.13,28.13,0,0,0,0,19C0,20.09,0,20.24,0,21.5Z"/><path class="cls-2" d="M14.83,16c-.05.32-.71,4.86-.77,5.28h1.49c0-.32.71-4.86.77-5.28Z"/><path class="cls-2" d="M27,16c0,.32-.71,4.86-.77,5.28h3.49c0-.23.12-.84.16-1.14H27.78l.14-1h1.92c0-.23.11-.78.16-1.07H28.08l.14-1h2.06c0-.24.12-.85.16-1.14Z"/><path class="cls-2" d="M10.44,19s1.24-2.79,1.34-3h1.87c0,.37-.25,4.91-.24,5.28H12.06l.22-3.7-1.62,3.7H9.6l-.48-3.7c0,.17-.54,2.64-.82,3.7H7c.14-.47,1.17-5,1.25-5.28H10Z"/><path class="cls-2" d="M24.39,20.17s.1.86.14,1.06H26c-.08-.43-.86-5-.91-5.28H23.23c-.1.22-2.16,4.76-2.41,5.28h1.45c.08-.17.44-1.06.44-1.06Zm-1.27-1.1.85-2,.28,2Z"/><path class="cls-2" d="M18.4,16.94h.33a.79.79,0,0,1,.63.2.58.58,0,0,1,.12.53s0,.41-.31.53a1.07,1.07,0,0,1-.5.13H18l1.28,2.9h1.44L19.62,19a1.32,1.32,0,0,0,1.31-1.31c0-.13,0-.25,0-.36a1.27,1.27,0,0,0-.29-.89A1.9,1.9,0,0,0,19.23,16h-2c-.05.32-.71,4.86-.78,5.28h1.36c0-.29.63-4.29.63-4.29"/><path class="cls-2" d="M36,15.39c-.87,3.52-4,5.44-5.82,6.46l-.08-.1A11,11,0,0,0,34.3,16.2Z"/><path class="cls-2" d="M21.6,24.63h0"/><path class="cls-2" d="M23.55,24.25h0Z"/><path class="cls-2" d="M21.18,24.7h0"/><path class="cls-2" d="M24.12,24.12l-.31.07.31-.07"/><path class="cls-2" d="M20.65,24.78h0"/><path class="cls-2" d="M24.84,23.94l-.2,0,.2,0"/><path class="cls-2" d="M18.32,25h0"/><path class="cls-2" d="M26.48,23.47h0l-.46.14.46-.14"/><path class="cls-2" d="M25.92,23.64l-.19.05.19-.05"/><path class="cls-2" d="M25.63,23.72c-.21.07-.44.13-.67.19.23-.06.46-.12.67-.19"/><path class="cls-2" d="M24.5,24l-.2,0,.2,0"/><polygon class="cls-2" points="12.02 25.14 12.03 25.14 12.02 25.14 12.02 25.14"/><path class="cls-2" d="M14.5,25.21h0"/><path class="cls-2" d="M14,25.2h0"/><path class="cls-2" d="M17.93,25.07h0"/><path class="cls-2" d="M17.08,25.13h0"/><path class="cls-2" d="M17.51,25.11h0"/><path class="cls-2" d="M16.63,25.16h0a0,0,0,0,0,0,0"/><path class="cls-2" d="M19.9,24.23,19.51,24h0c-.13-.07-.42-.24-.42-.52a.42.42,0,0,1,.15-.34.63.63,0,0,1,.52-.1,2,2,0,0,1,.87.47c.15-.29.44-.84.55-1A2.6,2.6,0,0,0,19.91,22a2.43,2.43,0,0,0-1.75.38,1.71,1.71,0,0,0-.67,1.19,2.29,2.29,0,0,0,0,.25,1.31,1.31,0,0,0,.18.71c.81,0,1.65-.05,2.51-.12a2.1,2.1,0,0,0-.26-.13"/><path class="cls-2" d="M25.93,22.15c0,.22-.14.92-.19,1.26a21.53,21.53,0,0,0,3.49-1.26Z"/><path class="cls-2" d="M26.48,23.47h0l-.46.14-.1,0-.19.05-.1,0c-.21.07-.44.13-.67.19l-.12,0-.2,0-.14,0-.2,0-.18,0-.31.07-.18,0h-.08c-.61.14-1.26.27-1.95.38h-.05l-.37.06h-.1l-.4.06h0c-.74.1-1.52.19-2.33.26h0l-.38,0h0l-.38,0h0l-.39,0h0l-.41,0h0q-1,.06-2.13.06h-.65L12,25.14h0q-1.41-.08-2.91-.24l1.15-1.06a15.21,15.21,0,0,0,1.6.36c-.18-1-.33-1.92-.35-2.05H9.7c-.11.22-2.17,4.77-2.41,5.29H8.74l.56-1.32h1.51L11,27.44h1.43l-.33-1.9c1,.06,2,.07,3,.06a.43.43,0,0,1,.07.25.38.38,0,0,1,0,.1.41.41,0,0,1-.18.28.88.88,0,0,1-.67.07,2.29,2.29,0,0,1-1.13-.7l-.69,1.12a3.28,3.28,0,0,0,1.75.86,2.36,2.36,0,0,0,1.72-.38A1.81,1.81,0,0,0,16.67,26a1.54,1.54,0,0,0,0-.42c1,0,1.87-.1,2.41-.15a.55.55,0,0,1,.27.45s0,.06,0,.1a.41.41,0,0,1-.18.28.9.9,0,0,1-.68.07,2.26,2.26,0,0,1-1.12-.7l-.7,1.12a3.35,3.35,0,0,0,1.76.86,2.32,2.32,0,0,0,1.71-.38A1.79,1.79,0,0,0,20.9,26a1.64,1.64,0,0,0,0-.77l.66-.1c-.16,1.11-.31,2.15-.34,2.34h3.49c0-.23.12-.85.17-1.14H22.73l.15-1h1.91c0-.2.1-.67.14-1l.4-.13s.64-.19,1.48-.49l-.54,3.71h1.51c0-.32.59-4,.59-4h1.09c0-.23.14-1,.19-1.29a20.11,20.11,0,0,1-3.17,1.29"/><path class="cls-2" d="M16.14,24.5a2.93,2.93,0,0,0-.46-.27L15.29,24h0c-.12-.07-.42-.24-.42-.52a.43.43,0,0,1,.16-.34.61.61,0,0,1,.51-.1,1.93,1.93,0,0,1,.87.47l.55-1A2.56,2.56,0,0,0,15.68,22a2.39,2.39,0,0,0-1.74.38,1.73,1.73,0,0,0-.68,1.19,2.18,2.18,0,0,0,0,.25,1.52,1.52,0,0,0,.12.62h.1c.68.05,1.6.09,2.67.1"/><path class="cls-2" d="M23.17,23.29h2.06c0-.23.13-.85.17-1.14H22c0,.14-.16,1-.31,2.06q.72-.09,1.41-.21Z"/></svg>