<svg id="레이어_1" data-name="레이어 1" xmlns="http://www.w3.org/2000/svg" viewBox="0 0 43 43"><defs><style>.cls-1{fill:#7cc53d;}.cls-2{fill:#fff;}</style></defs><title>산림조합중앙회</title><path class="cls-1" d="M0,21.5C0,22.76,0,22.91,0,24a27.55,27.55,0,0,0,1.29,8,16.78,16.78,0,0,0,3.2,5.62,15.21,15.21,0,0,0,6.23,4c2.45.85,5.1,1.25,10.26,1.36h1c5.16-.11,7.81-.51,10.26-1.36a15.21,15.21,0,0,0,6.23-4A17,17,0,0,0,41.68,32,27.86,27.86,0,0,0,43,24c0-1.07,0-1.22,0-2.48s0-1.41,0-2.48a27.69,27.69,0,0,0-1.28-8A16.82,16.82,0,0,0,38.47,5.4a15.21,15.21,0,0,0-6.23-4C29.79.51,27.14.11,22,0H21c-5.16.11-7.81.51-10.26,1.36a15.21,15.21,0,0,0-6.23,4A16.63,16.63,0,0,0,1.33,11,27.39,27.39,0,0,0,0,19C0,20.09,0,20.24,0,21.5Z"/><path class="cls-2" d="M16.89,14.9a38.28,38.28,0,0,1-4.76,6.36,19.89,19.89,0,0,1-2,1.88c-.6.48-1,.45-1.47,1.32a2.29,2.29,0,0,0,.71,2.73,3.07,3.07,0,0,0,4.41.06,27.17,27.17,0,0,0,6.12-7.16s3.25-5,1.91-7.09C21.78,13,19.49,9.73,16.89,14.9Z"/><path class="cls-2" d="M19.75,19A22.64,22.64,0,0,0,23,23.5l2-1.66a41.46,41.46,0,0,1-3.81-6.64Z"/><path class="cls-2" d="M25.87,20.24A26.51,26.51,0,0,1,21,22.45s-2,.56-.38,2.7a2.45,2.45,0,0,0,3.09.37s3.47-1.24,5.13-3.12a1.62,1.62,0,0,0-.22-2.71S27.73,19,25.87,20.24Z"/><path class="cls-2" d="M27.4,23.06a26.75,26.75,0,0,0,5,4.12,1.54,1.54,0,0,0,1.9,0s1-.84-.54-2.29a43.87,43.87,0,0,1-4.49-4.64s-.92-.71-1.91.74A1.52,1.52,0,0,0,27.4,23.06Z"/></svg>