<svg id="레이어_1" data-name="레이어 1" xmlns="http://www.w3.org/2000/svg" viewBox="0 0 43 43"><defs><style>.cls-1{fill:#0062b5;}.cls-2{fill:#fff;}</style></defs><title>NH농협생명</title><path class="cls-1" d="M0,21.5C0,22.76,0,22.91,0,24a28.25,28.25,0,0,0,1.29,8A17,17,0,0,0,4.53,37.6a15.21,15.21,0,0,0,6.23,4c2.45.85,5.1,1.25,10.26,1.36h1c5.16-.11,7.81-.51,10.26-1.36a15.21,15.21,0,0,0,6.23-4A17,17,0,0,0,41.68,32,28.25,28.25,0,0,0,43,24c0-1.07,0-1.22,0-2.48s0-1.41,0-2.48a28.13,28.13,0,0,0-1.29-8A16.82,16.82,0,0,0,38.47,5.4a15.21,15.21,0,0,0-6.23-4C29.79.51,27.14.11,22,0H21c-5.16.11-7.81.51-10.26,1.36a15.21,15.21,0,0,0-6.23,4A16.82,16.82,0,0,0,1.32,11,28.13,28.13,0,0,0,0,19C0,20.09,0,20.24,0,21.5Z"/><path class="cls-2" d="M33.62,16.06H31.94V20.4H25.07V16.06H23.39a.8.8,0,0,0-.72.86v9.16a.8.8,0,0,0,.72.86h1.68V22.28h6.87v4.66h1.68a.8.8,0,0,0,.72-.86V16.92A.8.8,0,0,0,33.62,16.06Z"/><path class="cls-2" d="M19.87,16.06H18.18v8.33l-5-6.65c-.84-1-1.41-1.68-2.76-1.68H8.66v10a.8.8,0,0,0,.73.86h1.68V18.57l5.08,6.61c.86,1,1.62,1.76,2.87,1.76h1.57v-10A.81.81,0,0,0,19.87,16.06Z"/></svg>