<?xml version="1.0" encoding="utf-8"?>
<!-- Generator: Adobe Illustrator 23.0.3, SVG Export Plug-In . SVG Version: 6.00 Build 0)  -->
<svg version="1.1" id="레이어_1" xmlns="http://www.w3.org/2000/svg" xmlns:xlink="http://www.w3.org/1999/xlink" x="0px"
	 y="0px" viewBox="0 0 60 60" style="enable-background:new 0 0 60 60;" xml:space="preserve">
<style type="text/css">
	.st0{fill:#FFFFFF;}
	.st1{fill:#003668;}
	.st2{fill:#E6002D;}
</style>
<g>
	<path class="st0" d="M60,30c0,16.6-13.4,30-30,30C13.4,60,0,46.6,0,30C0,13.4,13.4,0,30,0C46.6,0,60,13.4,60,30"/>
	<path class="st1" d="M44.1,27.9c-4.8-3.2-10.9-1.9-14.1,3c-2.7,4.1-6.7,4.6-8.3,4.6c-5.1,0-8.6-3.6-9.6-7.3h0c0,0,0-0.1,0-0.1
		c0,0,0-0.1,0-0.1c-0.4-1.6-0.5-2.3-0.5-3.9c0-8.9,9.1-18.8,22.2-18.8c13.4,0,21.1,10.2,23.1,15.9c0-0.1-0.1-0.2-0.1-0.3
		C52.9,9.7,42.4,1.7,30,1.7C14.4,1.7,1.7,14.4,1.7,30c0,14,10.1,25.9,24,25.9c11.1,0,18.6-6.2,22-14.8
		C49.7,36.3,48.3,30.8,44.1,27.9"/>
	<path class="st2" d="M57,21.7c-1.7-5.5-9.4-16.5-23.3-16.5c-13.1,0-22.2,9.9-22.2,18.8c0,1.6,0.1,2.4,0.5,3.9
		c-0.2-0.7-0.3-1.4-0.3-2c0-9.2,9.3-15.6,18.8-15.6c12.9,0,23.3,10.4,23.3,23.3c0,10.1-5.8,18.8-14.2,23v0
		C50.5,52.7,58.3,42.2,58.3,30C58.3,27.1,57.9,24.5,57,21.7"/>
</g>
</svg>
