<svg id="레이어_1" data-name="레이어 1" xmlns="http://www.w3.org/2000/svg" viewBox="0 0 43 43"><defs><style>.cls-1{fill:#1d8097;}.cls-2{fill:#fff;}</style></defs><title>푸본현대생명</title><path class="cls-1" d="M0,21.5C0,22.76,0,22.91,0,24a28.13,28.13,0,0,0,1.29,8A16.82,16.82,0,0,0,4.53,37.6a15.21,15.21,0,0,0,6.23,4c2.45.85,5.1,1.25,10.26,1.36h1c5.16-.11,7.81-.51,10.26-1.36a15.21,15.21,0,0,0,6.23-4A16.63,16.63,0,0,0,41.67,32,27.82,27.82,0,0,0,43,24c0-1.07,0-1.22,0-2.48s0-1.41,0-2.48a27.93,27.93,0,0,0-1.3-8,16.68,16.68,0,0,0-3.2-5.62,15.21,15.21,0,0,0-6.23-4C29.79.51,27.14.11,22,0H21c-5.16.11-7.81.51-10.26,1.36a15.21,15.21,0,0,0-6.23,4A16.87,16.87,0,0,0,1.32,11,28.25,28.25,0,0,0,0,19C0,20.09,0,20.24,0,21.5Z"/><path class="cls-2" d="M21.1,31.56H11.8V16.78A4.9,4.9,0,0,1,14.62,12a7.5,7.5,0,0,1,3.6-.73v2.8a4.72,4.72,0,0,0-2.39.45,2.12,2.12,0,0,0-1.24,2V28.76h3.7V23.23h5.91V26H21.1Z"/><path class="cls-2" d="M24.24,31.71h0v-2.8h0c3.72,0,4.11-2.53,4.14-3a5.4,5.4,0,0,0-.76-3.62l-.73-.83.65-.9a3.59,3.59,0,0,0,.36-1.68V14.26H24.2v5.49H18.33V17H21.4v-5.5h9.3v7.36a7.22,7.22,0,0,1-.42,2.44,8.53,8.53,0,0,1,.89,4.8C31.07,28,29.49,31.71,24.24,31.71Z"/></svg>