<svg id="레이어_1" data-name="레이어 1" xmlns="http://www.w3.org/2000/svg" viewBox="0 0 43 43"><defs><style>.cls-1{fill:#278ce6;}.cls-2{fill:#fff;}</style></defs><title>라이나생명</title><path class="cls-1" d="M0,21.5C0,22.76,0,22.91,0,24a28.07,28.07,0,0,0,1.29,8A16.82,16.82,0,0,0,4.53,37.6a15.21,15.21,0,0,0,6.23,4c2.45.85,5.1,1.25,10.26,1.36h1c5.16-.11,7.81-.51,10.26-1.36a15.21,15.21,0,0,0,6.23-4A16.63,16.63,0,0,0,41.67,32,27.76,27.76,0,0,0,43,24c0-1.07,0-1.22,0-2.48s0-1.41,0-2.48a27.93,27.93,0,0,0-1.3-8,16.78,16.78,0,0,0-3.2-5.62,15.21,15.21,0,0,0-6.23-4C29.79.51,27.14.11,22,0H21c-5.16.11-7.81.51-10.26,1.36a15.21,15.21,0,0,0-6.23,4A17,17,0,0,0,1.32,11,28.25,28.25,0,0,0,0,19C0,20.09,0,20.24,0,21.5Z"/><path class="cls-2" d="M16.85,19.77c.58,0,4.33,1.65,4.33,7.6,0,2.85-.95,5.22-1.52,5.22-.25,0-.34-.25-.34-.73,0-1.05.37-2,.37-4.23a9.56,9.56,0,0,0-2.59-7.08c-.24-.29-.41-.48-.41-.65s0-.13.16-.13"/><path class="cls-2" d="M26.32,19.9c0,.17-.18.36-.42.65a9.56,9.56,0,0,0-2.59,7.08c0,2.24.37,3.18.37,4.23,0,.48-.09.73-.34.73-.57,0-1.52-2.37-1.52-5.22,0-5.95,3.75-7.6,4.33-7.6.12,0,.17.06.17.13"/><path class="cls-2" d="M20.13,21a1.37,1.37,0,1,0,1.37-1.41A1.39,1.39,0,0,0,20.13,21"/><path class="cls-2" d="M14.38,18.73A2.23,2.23,0,0,1,13,17.13a2.25,2.25,0,0,1,2.09-.05,1.46,1.46,0,0,1,.93,1.41,1.44,1.44,0,0,1-1.68.24"/><path class="cls-2" d="M16.43,15a2.43,2.43,0,0,1-.28-2.23,2.45,2.45,0,0,1,1.92,1.16,1.58,1.58,0,0,1,0,1.83A1.59,1.59,0,0,1,16.43,15"/><path class="cls-2" d="M17.5,18.7a2.12,2.12,0,0,1-.8-1.81,2.16,2.16,0,0,1,1.92.49,1.39,1.39,0,0,1,.47,1.54,1.39,1.39,0,0,1-1.59-.22"/><path class="cls-2" d="M19.24,16.89a2.43,2.43,0,0,1,.33-2.18,2.38,2.38,0,0,1,1.5,1.61A1.52,1.52,0,0,1,20.6,18a1.53,1.53,0,0,1-1.36-1.15"/><path class="cls-2" d="M16.25,22.66a1.67,1.67,0,0,1-1.49-.39A1.65,1.65,0,0,1,16,21.35a1.07,1.07,0,0,1,1.16.45,1.08,1.08,0,0,1-.9.86"/><path class="cls-2" d="M14.75,21a1.87,1.87,0,0,1-1.47-.91,1.88,1.88,0,0,1,1.63-.58,1.22,1.22,0,0,1,1.1.87,1.21,1.21,0,0,1-1.26.62"/><path class="cls-2" d="M14.69,16.19A1.92,1.92,0,0,1,14,14.58a1.94,1.94,0,0,1,1.71.44,1.25,1.25,0,0,1,.43,1.37,1.23,1.23,0,0,1-1.42-.2"/><path class="cls-2" d="M18.14,12.79A2,2,0,0,1,18.41,11a2,2,0,0,1,1.26,1.34,1.27,1.27,0,0,1-.4,1.43,1.27,1.27,0,0,1-1.13-1"/><path class="cls-2" d="M9.66,29.88s0,0,0,0a.26.26,0,0,0,.1,0A33,33,0,0,1,19,28a2.45,2.45,0,0,0,0-.37A5.81,5.81,0,0,0,19,27a21.07,21.07,0,0,0-9.23,2.84c-.08.05-.11.06-.11.09"/><path class="cls-2" d="M27,18.49a1.43,1.43,0,0,1,.93-1.41,2.25,2.25,0,0,1,2.09.05,2.27,2.27,0,0,1-1.34,1.6A1.44,1.44,0,0,1,27,18.49"/><path class="cls-2" d="M24.91,15.71a1.58,1.58,0,0,1,0-1.83,2.45,2.45,0,0,1,1.92-1.16A2.43,2.43,0,0,1,26.57,15a1.59,1.59,0,0,1-1.66.76"/><path class="cls-2" d="M23.91,18.92a1.38,1.38,0,0,1,.48-1.54,2.15,2.15,0,0,1,1.92-.49,2.15,2.15,0,0,1-.81,1.81,1.39,1.39,0,0,1-1.59.22"/><path class="cls-2" d="M22.4,18a1.55,1.55,0,0,1-.47-1.72,2.4,2.4,0,0,1,1.5-1.61,2.37,2.37,0,0,1,.33,2.18A1.53,1.53,0,0,1,22.4,18"/><path class="cls-2" d="M25.85,21.8A1.07,1.07,0,0,1,27,21.35a1.65,1.65,0,0,1,1.23.92,1.65,1.65,0,0,1-1.48.39,1.08,1.08,0,0,1-.91-.86"/><path class="cls-2" d="M27,20.36a1.2,1.2,0,0,1,1.09-.87,1.88,1.88,0,0,1,1.63.58,1.87,1.87,0,0,1-1.47.91A1.18,1.18,0,0,1,27,20.36"/><path class="cls-2" d="M26.9,16.39A1.22,1.22,0,0,1,27.32,15,2,2,0,0,1,29,14.58a1.92,1.92,0,0,1-.72,1.61,1.22,1.22,0,0,1-1.41.2"/><path class="cls-2" d="M23.73,13.75a1.26,1.26,0,0,1-.39-1.43A2,2,0,0,1,24.59,11a2,2,0,0,1,.27,1.81,1.27,1.27,0,0,1-1.13,1"/><path class="cls-2" d="M33.23,29.79A21.07,21.07,0,0,0,24,27a5.07,5.07,0,0,0-.05.68A2.45,2.45,0,0,0,24,28a33,33,0,0,1,9.22,1.88l.1,0s0,0,0,0,0,0-.11-.09"/><path class="cls-2" d="M21.5,14.45a1.78,1.78,0,0,1-1.11-1.75,2.79,2.79,0,0,1,1.11-2.29,2.76,2.76,0,0,1,1.11,2.29,1.78,1.78,0,0,1-1.11,1.75"/></svg>