<svg id="레이어_1" data-name="레이어 1" xmlns="http://www.w3.org/2000/svg" xmlns:xlink="http://www.w3.org/1999/xlink" viewBox="0 0 43 43"><defs><style>.cls-1{fill:none;}.cls-2{fill:#1d62e5;}.cls-3{fill:#fff;}.cls-4{clip-path:url(#clip-path);}</style><clipPath id="clip-path" transform="translate(0)"><path class="cls-1" d="M18.78,31.7A7.56,7.56,0,0,1,14.48,30,8.28,8.28,0,0,1,12,26c-.39-1.36-.55-2.95.09-2.83.2,0,.54.92.92,1.55A4,4,0,0,0,14,26c.14.1.59-.9,1.25-1.48.39-.32.8-.42.87.52.09,1.16-.12,2.54.21,2.54s1-.24,2.6-.37c.59-.06.93.06.36.85a6,6,0,0,1-1.54,1.59c1.33,1.24,2.93,1.1,3,1.62,0,.31-.58.48-1.36.48l-.61,0m4.49-11.21a1.91,1.91,0,0,1-1.47-1.36,4,4,0,0,1-.05-1.51,10.43,10.43,0,0,1,.93-3c.54-1.36-.78-2.16-.56-2.67.3-.68,1.24.19,2.3.25.9.05,1.45,0,2.15.1a4.39,4.39,0,0,1,2.56,1c.45.53-.24,1.19-1.08.78-.62-.3-1.39-.12-.94.52a2,2,0,0,0,1.37.77A1.41,1.41,0,0,1,29,18.08c-1.19.87-2.38.51-2.86-1.19-.24-.84-.84-1.27-1.45-1s-.25,1.35.21,2.38c.81,2.05-.82,2.26-1.44,2.26h-.2m-.88,11.59c0-.27.39-.34.39-.34,3.55-.7,2.52-3,1.25-4.22-.53-.5-5.48-4.78-5.48-4.78-4.73-4.06-4.35-7.24-4.35-7.24.23-3.91,3.65-4.87,6.24-4.65.31,0,.47.21.42.46s-.46.3-.46.3a4.21,4.21,0,0,0-2.12.51c-2.09,1.4-1.47,3.79,1.31,6.44l1.1,1.05s.56.49,1.67,1.55l3.32,3c3.77,3.14,2.48,6,1,7a7.33,7.33,0,0,1-3.92,1.2h0a.35.35,0,0,1-.37-.32M21,9.49a11.88,11.88,0,1,0,.56,0l-.56,0"/></clipPath></defs><title>신한라이프생명</title><path class="cls-2" d="M0,21.5C0,22.76,0,22.91,0,24a28.13,28.13,0,0,0,1.29,8A16.92,16.92,0,0,0,4.53,37.6a15.21,15.21,0,0,0,6.23,4c2.45.85,5.1,1.25,10.26,1.36h1c5.16-.11,7.81-.51,10.26-1.36a15.21,15.21,0,0,0,6.23-4A16.92,16.92,0,0,0,41.68,32,28.13,28.13,0,0,0,43,24c0-1.07,0-1.22,0-2.48s0-1.41,0-2.48a28.13,28.13,0,0,0-1.29-8A16.82,16.82,0,0,0,38.47,5.4a15.21,15.21,0,0,0-6.23-4C29.79.51,27.14.11,22,0H21c-5.16.11-7.81.51-10.26,1.36a15.21,15.21,0,0,0-6.23,4A16.82,16.82,0,0,0,1.32,11,28.13,28.13,0,0,0,0,19C0,20.09,0,20.24,0,21.5Z" transform="translate(0)"/><path class="cls-3" d="M18.78,31.7A7.56,7.56,0,0,1,14.48,30,8.28,8.28,0,0,1,12,26c-.39-1.36-.55-2.95.09-2.83.2,0,.54.92.92,1.55A4,4,0,0,0,14,26c.14.1.59-.91,1.25-1.48.39-.32.8-.42.87.52.09,1.16-.12,2.54.21,2.54s1-.24,2.6-.37c.59-.06.93.06.36.85a6,6,0,0,1-1.54,1.59c1.33,1.24,2.93,1.1,3,1.63,0,.3-.58.47-1.36.47l-.61,0m4.49-11.2a1.93,1.93,0,0,1-1.47-1.37,4,4,0,0,1-.05-1.51,10.43,10.43,0,0,1,.93-3c.54-1.36-.78-2.16-.56-2.67.3-.68,1.24.19,2.3.25.9.05,1.45,0,2.15.1a4.39,4.39,0,0,1,2.56,1c.46.53-.24,1.19-1.08.78-.62-.3-1.39-.12-.94.52a2,2,0,0,0,1.37.77A1.41,1.41,0,0,1,29,18.08c-1.19.87-2.38.51-2.86-1.19-.24-.84-.84-1.27-1.45-1s-.25,1.35.21,2.38c.81,2.05-.82,2.26-1.44,2.26h-.2m-.88,11.58c0-.27.39-.34.39-.34,3.55-.7,2.52-3,1.25-4.22-.52-.5-5.48-4.78-5.48-4.78-4.73-4.06-4.35-7.24-4.35-7.24.23-3.91,3.65-4.87,6.24-4.65.31,0,.47.21.42.47s-.46.29-.46.29a4.21,4.21,0,0,0-2.12.51c-2.09,1.4-1.47,3.79,1.31,6.44l1.11,1.05s.55.49,1.66,1.55l3.32,3c3.77,3.14,2.48,6,1,7a7.33,7.33,0,0,1-3.92,1.2h0a.35.35,0,0,1-.37-.32M21,9.48a12.1,12.1,0,1,0,.56,0H21" transform="translate(0)"/><g class="cls-4"><rect class="cls-3" x="9.17" y="9.47" width="24.65" height="24.35"/></g></svg>