<svg id="레이어_1" data-name="레이어 1" xmlns="http://www.w3.org/2000/svg" viewBox="0 0 43 43"><defs><style>.cls-1{fill:#d1332a;}.cls-2{fill:#fff;}</style></defs><title>SK증권</title><path class="cls-1" d="M0,21.5C0,22.76,0,22.91,0,24a28.13,28.13,0,0,0,1.29,8A16.92,16.92,0,0,0,4.53,37.6a15.21,15.21,0,0,0,6.23,4c2.45.85,5.1,1.25,10.26,1.36h1c5.16-.11,7.81-.51,10.26-1.36a15.21,15.21,0,0,0,6.23-4A16.92,16.92,0,0,0,41.68,32,28.13,28.13,0,0,0,43,24c0-1.07,0-1.22,0-2.48s0-1.41,0-2.48a28.13,28.13,0,0,0-1.29-8A16.82,16.82,0,0,0,38.47,5.4a15.21,15.21,0,0,0-6.23-4C29.79.51,27.14.11,22,0H21c-5.16.11-7.81.51-10.26,1.36a15.21,15.21,0,0,0-6.23,4A16.82,16.82,0,0,0,1.32,11,28.13,28.13,0,0,0,0,19C0,20.09,0,20.24,0,21.5Z"/><path class="cls-2" d="M11.39,26.74c-.8-.37-1.45-.67-1.45-1.28s.37-.8,1.1-.8a3.91,3.91,0,0,1,.72.07,2.33,2.33,0,0,0,.36,0c.64,0,1-.39,1.24-1.11l.1-.3a6.75,6.75,0,0,0-2.52-.5c-2.18,0-3.33,1.4-3.33,2.84a2.46,2.46,0,0,0,.59,1.68,5.19,5.19,0,0,0,1.74,1.19c.89.44,1.7.76,1.7,1.41s-.59.91-1.39.91a4.32,4.32,0,0,1-2.18-.7l-.9,1.69a6.26,6.26,0,0,0,3.23.82c2,0,3.57-1.16,3.57-3s-1.43-2.44-2.58-3"/><path class="cls-2" d="M19.34,27.57,23,23.06H20.4L17.46,27h-.05V23.06H15.25v9.56h.13a1.86,1.86,0,0,0,2-2v-2.2h0l3,4.08h2.76Z"/><path class="cls-2" d="M23.15,12.81a2.24,2.24,0,0,0-1.89,2c0,1.11.91,1.79.91,3.24a2.56,2.56,0,0,1-1.25,2.24c.26,0,.55,0,.87,0a6.51,6.51,0,0,1,1.1.07l3.42-4.2a14.06,14.06,0,0,0-3.16-3.36"/><path class="cls-2" d="M26,24.13a5.91,5.91,0,0,0,.52-2.82c0-1,.26-1.78,1.61-1.78.3,0,.59,0,1.11,0a7.87,7.87,0,0,0,4.09-1.14,14.21,14.21,0,0,0-7-2.24c-.2.54-1.71,4.75-1.83,5.09a5.94,5.94,0,0,1,.62.9,10,10,0,0,1,.92,2"/><path class="cls-2" d="M18.8,20.69c-.18,0-.26-.11-.29-.31s-.87-8-1-9.2c0-.17-.06-.49-.06-.6a.25.25,0,0,1,.26-.28,11.86,11.86,0,0,1,4.95,2.16,2.51,2.51,0,0,0-1.89,2.34c0,1.29.93,2,.93,3.29,0,2.1-2.4,2.6-2.9,2.6"/><path class="cls-2" d="M26.22,24.69a1,1,0,0,0,.1.23.24.24,0,0,0,.21.14.53.53,0,0,0,.2,0l8.4-3.91c.16-.07.45-.2.55-.26a.27.27,0,0,0,.15-.23.37.37,0,0,0,0-.14,9.23,9.23,0,0,0-2-1.75A8.75,8.75,0,0,1,29.32,20c-.52,0-.64,0-1,0-1,0-1.3.45-1.34,1.36,0,.17,0,.4,0,.66a4.55,4.55,0,0,1-.75,2.69"/></svg>