<svg id="레이어_1" data-name="레이어 1" xmlns="http://www.w3.org/2000/svg" viewBox="0 0 43 43"><defs><style>.cls-1{fill:#017dba;}.cls-2{fill:#fff;}</style></defs><title>SC</title><path class="cls-1" d="M0,21.4995c0,1.26345,0,1.41025.036,2.47743a27.75474,27.75474,0,0,0,1.28969,7.99779,16.8461,16.8461,0,0,0,3.20584,5.62734,15.29523,15.29523,0,0,0,6.22574,4.04024c2.456.84456,5.10437,1.25081,10.26621,1.3577h.95314c5.16174-.10689,7.81123-.51314,10.26611-1.3577a15.293,15.293,0,0,0,6.22683-4.04024,16.86458,16.86458,0,0,0,3.20574-5.62734,27.785,27.785,0,0,0,1.28969-7.99779C43,22.90975,43,22.763,43,21.4995c0-1.26255,0-1.41024-.03506-2.47743a27.78348,27.78348,0,0,0-1.28969-7.99679,16.86359,16.86359,0,0,0-3.20574-5.62734A15.31533,15.31533,0,0,0,32.24268,1.3567C29.7878.51215,27.13831.10689,21.97657,0h-.95314c-5.16184.10689-7.81024.51215-10.26621,1.3567A15.31756,15.31756,0,0,0,4.53148,5.39794a16.84512,16.84512,0,0,0-3.20584,5.62734A27.75319,27.75319,0,0,0,.036,19.02207C0,20.08926,0,20.237,0,21.4995Z"/><path class="cls-2" d="M18.27847,33.21707a3.684,3.684,0,0,1-1.89026.6266,3.10432,3.10432,0,0,1-3.05913-2.93l3.16381-1.88328,4.924,2.20066Z"/><path class="cls-2" d="M20.15927,25.118,17.80548,24.079c-1.04736-.46716-2.04234-.86077-2.04234-2.01494a1.59774,1.59774,0,0,1,.4686-1.22474L21.20763,23.03l-1.23033.71089c-.34351.2102-.57876.39252-.57876.65556,0,.28275.3232.523.76073.72155"/><path class="cls-2" d="M22.46933,14.26844l-2.41026,1.4611c-.21642.13157-.50306.33719-.50306.65755,0,.36774.56.64591,1.05394.87949l-3.0189-1.32824c-.88881-.39212-1.77712-.83589-1.77712-1.90577a1.96364,1.96364,0,0,1,.33993-1.12779l6.52383-3.98252a2.94691,2.94691,0,0,1,1.54017,2.53744,3.12511,3.12511,0,0,1-1.74853,2.80874"/><path class="cls-2" d="M27.60169,18.97739l-.60057.33967-4.98207-2.19767,5.7906-3.4862a2.98108,2.98108,0,0,1,1.54983,2.53913,3.05335,3.05335,0,0,1-1.75779,2.80507"/><path class="cls-2" d="M23.3916,23.20712l2.94938,1.2938c1.10573.49115,1.44367,1.07456,1.44367,1.80376a1.54032,1.54032,0,0,1-.57318,1.12471L22.2554,25.22864l.83642-.46866c.71192-.39053.94468-.62809.94468-.88864,0-.2712-.16563-.44785-.6449-.66422"/><path class="cls-2" d="M28.65005,34.07774a20.81843,20.81843,0,0,0-4.22383-2.35661l-7.51313-3.32248c-1.88887-.83878-3.1424-1.96-3.1424-3.84836a3.71673,3.71673,0,0,1,2.04324-3.44888l.41672-.26205a1.59787,1.59787,0,0,0-.46751,1.22474c0,1.15417.994,1.54669,2.04234,2.01494l8.74386,3.85354c1.52095.64889,2.91382,1.77211,2.91382,3.68286a3.92743,3.92743,0,0,1-.81311,2.4623"/><path class="cls-2" d="M27.75875,27.08912l-.54728.34027a1.538,1.538,0,0,0,.57318-1.12272c0-.73328-.34043-1.3137-1.44317-1.80575l-9.34911-4.114c-1.88877-.8343-3.06422-1.91134-3.06422-3.78855a4.11093,4.11093,0,0,1,2.22571-3.6949,1.96122,1.96122,0,0,0-.33993,1.1273c0,1.07167.88981,1.51345,1.77712,1.906l9.08787,4.0089c1.65312.7292,2.992,1.83311,2.992,3.846a3.62737,3.62737,0,0,1-1.91217,3.2975"/></svg>