<svg id="레이어_1" data-name="레이어 1" xmlns="http://www.w3.org/2000/svg" viewBox="0 0 43 43"><defs><style>.cls-1{fill:#29b54f;}.cls-2{fill:#fff;}</style></defs><title>저축은행</title><path class="cls-1" d="M0,21.5C0,22.76,0,22.91,0,24a27.55,27.55,0,0,0,1.29,8,16.68,16.68,0,0,0,3.2,5.62,15.21,15.21,0,0,0,6.23,4c2.45.85,5.1,1.25,10.26,1.36h1c5.16-.11,7.81-.51,10.26-1.36a15.21,15.21,0,0,0,6.23-4A16.87,16.87,0,0,0,41.68,32,27.86,27.86,0,0,0,43,24c0-1.07,0-1.22,0-2.48s0-1.41,0-2.48a27.86,27.86,0,0,0-1.28-8A16.87,16.87,0,0,0,38.47,5.4a15.21,15.21,0,0,0-6.23-4C29.79.51,27.14.11,22,0H21c-5.16.11-7.81.51-10.26,1.36a15.21,15.21,0,0,0-6.23,4A16.68,16.68,0,0,0,1.33,11,27.55,27.55,0,0,0,0,19C0,20.09,0,20.24,0,21.5Z"/><path class="cls-2" d="M26.56,24.7a4.51,4.51,0,0,0,.05-1.1,2.56,2.56,0,0,0-1.91-2.32l-.54-.15v-.06a3.14,3.14,0,0,0,1.28-.81,2.52,2.52,0,0,0,.62-1.39,2.78,2.78,0,0,0-.2-1.45,2.44,2.44,0,0,0-2.31-1.34h0V26.51a6.09,6.09,0,0,0,1.56-.24A2,2,0,0,0,26.56,24.7Z"/><path class="cls-2" d="M28.08,10.69H14.92a4.25,4.25,0,0,0-4.23,4.24V28.07a4.25,4.25,0,0,0,4.23,4.24h6.56c0-1,0-18.42,0-18.42,3.65-.23,5.31,1.14,6.06,2.48A4.41,4.41,0,0,1,28,17.45a4.15,4.15,0,0,1,.16,1.32,3.11,3.11,0,0,1-.07.67,3.47,3.47,0,0,1-.13.46,1.89,1.89,0,0,1-.09.21,2.53,2.53,0,0,1-.63.78s.27.28.4.45a4.36,4.36,0,0,1,1,2.63,3.76,3.76,0,0,1-.82,2.77,3.28,3.28,0,0,1-.31.34,4.7,4.7,0,0,1-1.09.77,6.23,6.23,0,0,1-2.16.59,6.36,6.36,0,0,1-.77,0c0,.06,0,2.35,0,3.51v.32h4.59a4.25,4.25,0,0,0,4.23-4.24V14.93A4.25,4.25,0,0,0,28.08,10.69ZM20.23,25.23A4.47,4.47,0,0,1,18,28.48a.48.48,0,0,1-.29.07c-.73,0-1.46,0-2.19-.07l-.23,0a22.67,22.67,0,0,0,2.33-2.26,1.8,1.8,0,0,0-.08-2.5,18.64,18.64,0,0,0-1.5-1.45,4.71,4.71,0,0,1-1.72-4,4.8,4.8,0,0,1,1.85-3.46,5.56,5.56,0,0,1,3.71-.93l.16,0h0l0,2h-.48c-2.54,0-3,1.75-2.93,1.57a2.67,2.67,0,0,0-.05,1.38,4.5,4.5,0,0,0,1.17,1.91c.57.62,1.17,1.23,1.71,1.88A3.11,3.11,0,0,1,20.23,25.23Z"/></svg>