<svg id="레이어_1" data-name="레이어 1" xmlns="http://www.w3.org/2000/svg" viewBox="0 0 43 43"><defs><style>.cls-1{fill:#457c26;}.cls-2{fill:#fff;}</style></defs><title>신영증권</title><path class="cls-1" d="M0,21.5C0,22.76,0,22.91,0,24a28.13,28.13,0,0,0,1.29,8A16.82,16.82,0,0,0,4.53,37.6a15.21,15.21,0,0,0,6.23,4c2.45.85,5.1,1.25,10.26,1.36h1c5.16-.11,7.81-.51,10.26-1.36a15.21,15.21,0,0,0,6.23-4A16.82,16.82,0,0,0,41.68,32,28.13,28.13,0,0,0,43,24c0-1.07,0-1.22,0-2.48s0-1.41,0-2.48a28.13,28.13,0,0,0-1.29-8A16.82,16.82,0,0,0,38.47,5.4a15.21,15.21,0,0,0-6.23-4C29.79.51,27.14.11,22,0H21c-5.16.11-7.81.51-10.26,1.36a15.21,15.21,0,0,0-6.23,4A16.82,16.82,0,0,0,1.32,11,28.13,28.13,0,0,0,0,19C0,20.09,0,20.24,0,21.5Z"/><path class="cls-2" d="M30.22,23.45,29,22.66a2.46,2.46,0,0,1-2.75.05l-4.07-2.66a1.21,1.21,0,0,0-1.35,0l-4.08,2.67A2.46,2.46,0,0,1,14,22.66l-1.22.79a2.21,2.21,0,0,0,2.42,3.7l5.68-3.7a1,1,0,0,1,1.25,0l5.67,3.7a2.21,2.21,0,1,0,2.42-3.7"/><path class="cls-2" d="M21.09,16.59a.77.77,0,0,1,.43-.12.76.76,0,0,1,.42.12c.23.13,2.7,1.77,2.7,1.77a2.1,2.1,0,0,0,2.57-.2l1.41.92a1.88,1.88,0,0,1-2.06,3.15s-4-2.63-4.42-2.86a1.24,1.24,0,0,0-1.26,0c-.33.19-4.44,2.85-4.44,2.85a1.92,1.92,0,0,1-2.6-.55,1.87,1.87,0,0,1,.54-2.6l1.41-.92a2.1,2.1,0,0,0,2.57.2s2.48-1.62,2.73-1.77"/><path class="cls-2" d="M22,15.92l3,2a1.54,1.54,0,0,0,1.69-2.58L22,12.24a.87.87,0,0,0-.93,0L16.36,15.3A1.54,1.54,0,0,0,18,17.88l3-2a.76.76,0,0,1,.93,0"/><path class="cls-2" d="M24.69,29.63l-2.43-4a.83.83,0,0,0-1.52,0l-2.43,4c-.32.49-.24,1.26.63,1.26h5.12c.87,0,1-.77.63-1.26"/></svg>