<?xml version="1.0" encoding="utf-8"?>
<!-- Generator: Adobe Illustrator 23.0.3, SVG Export Plug-In . SVG Version: 6.00 Build 0)  -->
<svg version="1.1" id="레이어_1" xmlns="http://www.w3.org/2000/svg" xmlns:xlink="http://www.w3.org/1999/xlink" x="0px"
	 y="0px" viewBox="0 0 43 43" style="enable-background:new 0 0 43 43;" xml:space="preserve">
<style type="text/css">
	.st0{fill:#003CDC;}
	.st1{fill:#FFFFFF;}
</style>
<g>
	<path class="st0" d="M0.1,21.5c0,1.3,0,1.4,0,2.5c0.1,2.4,0.3,5.1,1.3,8c0.7,2,1.9,4.2,3.2,5.6c1.6,1.8,3.8,3.2,6.2,4
		c2.4,0.8,5.1,1.2,10.2,1.4h0.5H22c5.1-0.1,7.8-0.5,10.2-1.4c2.4-0.8,4.6-2.3,6.2-4c1.3-1.4,2.5-3.6,3.2-5.6c1-2.9,1.2-5.6,1.3-8
		c0-1.1,0-1.2,0-2.5c0-1.3,0-1.4,0-2.5c-0.1-2.4-0.3-5.1-1.3-8c-0.7-2-1.9-4.2-3.2-5.6c-1.6-1.8-3.8-3.2-6.2-4
		C29.7,0.6,27.1,0.2,22,0.1h-0.5H21c-5.1,0.1-7.8,0.5-10.2,1.4c-2.4,0.8-4.6,2.3-6.2,4C3.4,6.9,2.1,9,1.4,11.1c-1,2.9-1.2,5.6-1.3,8
		C0.1,20.1,0.1,20.2,0.1,21.5z"/>
</g>
<g>
	<path class="st1" d="M9.8,20c-0.1,0.3-0.4,0.7-0.7,1c-0.3,0.3-0.7,0.6-1,0.8L7.5,21c0.5-0.3,0.9-0.6,1.2-1.1c0.3-0.4,0.5-1,0.5-1.6
		v-0.7h1.1v0.7c0,0.6,0.2,1.1,0.5,1.5c0.3,0.4,0.8,0.7,1.2,0.9l-0.6,0.8C10.7,21.1,10.1,20.6,9.8,20 M9.2,22.1h4.3v3.1H9.2V22.1z
		 M10.3,24.4h2.3V23h-2.3V24.4z M13.5,21.8h-1v-4.3h1v1.7h1.2v0.9h-1.2V21.8z"/>
	<path class="st1" d="M17.6,20.9c-0.3-0.3-0.5-0.6-0.6-0.8c-0.1,0.3-0.3,0.6-0.6,0.9c-0.3,0.3-0.6,0.6-1,0.8l-0.6-0.8
		c0.5-0.3,0.9-0.7,1.2-1.1c0.3-0.4,0.5-0.9,0.5-1.5v-0.8h1.1v0.8c0,0.6,0.2,1.1,0.5,1.5c0.3,0.4,0.7,0.7,1.2,0.9l-0.6,0.8
		C18.2,21.5,17.9,21.2,17.6,20.9 M20.3,25c-0.4,0.3-0.9,0.5-1.4,0.5c-0.6,0-1.1-0.2-1.4-0.5c-0.4-0.3-0.6-0.8-0.6-1.3
		c0-0.5,0.2-1,0.6-1.3c0.4-0.3,0.8-0.5,1.4-0.5c0.6,0,1.1,0.2,1.4,0.5c0.4,0.3,0.6,0.8,0.6,1.3C20.9,24.2,20.7,24.7,20.3,25
		 M19.6,23c-0.2-0.2-0.4-0.3-0.7-0.3c-0.6,0-1,0.4-1,0.9c0,0.6,0.4,0.9,1,0.9c0.6,0,1-0.4,1-0.9C19.9,23.4,19.8,23.2,19.6,23
		 M20,19.8h-1.4v-0.9H20v-1.4h1v4.4h-1V19.8z"/>
	<path class="st1" d="M24,20.8c0.1-0.1,0.2-0.3,0.3-0.4l-1.9,0.2l-0.2-0.9l2.5-0.1c0.1-0.2,0.1-0.5,0.2-0.8h-2.4v-0.9h3.4
		c0,1.3-0.4,2.3-0.9,3.1c-0.6,0.8-1.4,1.4-2.4,1.9L22,22.1C22.8,21.7,23.5,21.3,24,20.8 M27.6,24.4h-1v-6.8h1v2.2h1.2v0.8h-1.2V24.4
		z"/>
	<path class="st1" d="M28.8,22.7h6.7v0.8h-6.7V22.7z M29.9,21.4v-3.5h4.6v0.8h-3.6v1.8h3.6v0.9H29.9z"/>
</g>
</svg>
