<svg id="레이어_1" data-name="레이어 1" xmlns="http://www.w3.org/2000/svg" viewBox="0 0 43 43"><defs><style>.cls-1{fill:#0372bf;}.cls-2{fill:#fff;}</style></defs><title>삼성증권</title><path class="cls-1" d="M0,21.5C0,22.76,0,22.91,0,24a28.13,28.13,0,0,0,1.29,8A16.82,16.82,0,0,0,4.53,37.6a15.21,15.21,0,0,0,6.23,4c2.45.85,5.1,1.25,10.26,1.36h1c5.16-.11,7.81-.51,10.26-1.36a15.21,15.21,0,0,0,6.23-4A16.82,16.82,0,0,0,41.68,32,28.13,28.13,0,0,0,43,24c0-1.07,0-1.22,0-2.48s0-1.41,0-2.48a28.13,28.13,0,0,0-1.29-8A16.82,16.82,0,0,0,38.47,5.4a15.21,15.21,0,0,0-6.23-4C29.79.51,27.14.11,22,0H21c-5.16.11-7.81.51-10.26,1.36a15.21,15.21,0,0,0-6.23,4A16.82,16.82,0,0,0,1.32,11,28.13,28.13,0,0,0,0,19C0,20.09,0,20.24,0,21.5Z"/><polygon class="cls-2" points="30.9 20.6 31.75 20.6 31.86 18.1 28.46 18.1 28.46 18.83 30.98 18.83 30.9 20.6"/><polygon class="cls-2" points="32.45 17.89 32.45 21.98 31.26 21.98 31.26 22.66 32.45 22.66 32.45 23.79 33.35 23.79 33.35 17.89 32.45 17.89"/><polygon class="cls-2" points="29.67 21.99 28.8 21.99 28.8 24.92 33.35 24.92 33.35 24.17 29.67 24.17 29.67 21.99"/><polygon class="cls-2" points="30.07 23.26 30.89 23.26 30.89 21.61 32.23 21.61 32.23 20.88 28.27 20.88 28.27 21.61 30.07 21.61 30.07 23.26"/><rect class="cls-2" x="22.37" y="20.88" width="5.27" height="0.7"/><polygon class="cls-2" points="14.14 17.89 14.14 21.59 15.05 21.59 15.05 20.11 15.82 20.11 15.82 19.35 15.05 19.35 15.05 17.89 14.14 17.89"/><path class="cls-2" d="M10.78,21.89h4.27v3H10.78Zm3.4.74H11.65v1.55h2.53Z"/><polygon class="cls-2" points="21.21 17.89 21.21 21.59 20.32 21.59 20.32 20.11 19.16 20.11 19.16 19.35 20.3 19.35 20.3 17.89 21.21 17.89"/><path class="cls-2" d="M19,25.11c-1.31,0-2.37-.76-2.37-1.71s1.06-1.71,2.37-1.71,2.37.76,2.37,1.71S20.28,25.11,19,25.11m1.48-1.71c0-.53-.66-1-1.48-1s-1.47.43-1.47,1,.66,1,1.47,1,1.48-.43,1.48-1"/><path class="cls-2" d="M12,18a3.1,3.1,0,0,0,1.5,2.82L13,21.5a4.08,4.08,0,0,1-1.46-1.64,4.08,4.08,0,0,1-1.45,1.64l-.47-.65A3.08,3.08,0,0,0,11.15,18Z"/><path class="cls-2" d="M17.62,19.86a3.73,3.73,0,0,1-1.36,1.57l-.46-.64A3.06,3.06,0,0,0,17.2,18H18a3.06,3.06,0,0,0,1.4,2.77l-.46.64a3.73,3.73,0,0,1-1.36-1.57"/><path class="cls-2" d="M25,25.11c-1.29,0-2.34-.74-2.34-1.65s1-1.64,2.34-1.64,2.34.73,2.34,1.64S26.3,25.11,25,25.11m1.45-1.65c0-.51-.65-.92-1.45-.92s-1.45.41-1.45.92.65.92,1.45.92,1.45-.41,1.45-.92"/><path class="cls-2" d="M22.65,18.12v.75h1.81s-.21.78-1.83,1l.16.71s1.87-.33,2.22-1.19c.35.86,2.21,1.19,2.21,1.19l.17-.71c-1.63-.25-1.83-1-1.83-1h1.8v-.75Z"/></svg>