<?xml version="1.0" encoding="utf-8"?>
<!-- Generator: Adobe Illustrator 23.0.3, SVG Export Plug-In . SVG Version: 6.00 Build 0)  -->
<svg version="1.1" id="레이어_1" xmlns="http://www.w3.org/2000/svg" xmlns:xlink="http://www.w3.org/1999/xlink" x="0px"
	 y="0px" viewBox="0 0 43.17 43.21" style="enable-background:new 0 0 43.17 43.21;" xml:space="preserve">
<style type="text/css">
	.st0{fill:#00B1AD;}
	.st1{fill:#FFFFFF;}
</style>
<g>
	<g>
		<path class="st0" d="M0.01,21.61c0,1.27,0,1.42,0.04,2.49c0.08,2.39,0.34,5.14,1.29,8.04c0.68,2.05,1.94,4.25,3.22,5.65
			c1.62,1.78,3.84,3.23,6.25,4.06c2.47,0.85,5.13,1.26,10.31,1.36h0.48h0.48c5.18-0.11,7.84-0.51,10.31-1.36
			c2.41-0.83,4.63-2.28,6.25-4.06c1.27-1.4,2.54-3.6,3.22-5.65c0.96-2.9,1.22-5.65,1.3-8.04c0.03-1.07,0.03-1.22,0.03-2.49
			c0-1.27,0-1.42-0.03-2.49c-0.08-2.39-0.34-5.14-1.3-8.04c-0.68-2.05-1.94-4.26-3.22-5.65c-1.62-1.78-3.84-3.23-6.25-4.06
			c-2.47-0.85-5.13-1.26-10.31-1.36H21.6h-0.48c-5.18,0.11-7.84,0.51-10.31,1.36C8.4,2.2,6.18,3.66,4.56,5.43
			c-1.27,1.4-2.54,3.6-3.22,5.65c-0.96,2.9-1.22,5.65-1.29,8.04C0.01,20.19,0.01,20.34,0.01,21.61z"/>
	</g>
</g>
<path class="st1" d="M25.53,19.24c1.57-2.24,1.03-5.32-1.21-6.89c-2.24-1.57-5.32-1.02-6.88,1.21c-0.74,1.05-1.01,2.24-0.85,3.48
	c0.24,2-1.03,3.8-2.97,4.24c-1.17,0.26-2.24,0.94-2.98,1.99c-1.57,2.23-1.03,5.32,1.21,6.88c2.24,1.57,5.32,1.03,6.89-1.21
	c0.74-1.05,1.01-2.27,0.85-3.48c-0.26-2.01,1.06-3.84,2.97-4.24C23.64,21,24.8,20.29,25.53,19.24"/>
<path class="st1" d="M33.24,26.11c0,2.73-2.21,4.94-4.94,4.94s-4.94-2.21-4.94-4.94c0-2.73,2.21-4.94,4.94-4.94
	S33.24,23.38,33.24,26.11"/>
</svg>
