<svg id="레이어_1" data-name="레이어 1" xmlns="http://www.w3.org/2000/svg" viewBox="0 0 43 43"><defs><style>.cls-1{fill:#0063ff;}.cls-2{fill:#fff;}</style></defs><title>토스</title><path class="cls-1" d="M0,21.5C0,22.76,0,22.91,0,24a27.44,27.44,0,0,0,1.29,8,16.73,16.73,0,0,0,3.2,5.63,15.21,15.21,0,0,0,6.23,4c2.45.85,5.1,1.25,10.26,1.36h1c5.16-.11,7.81-.51,10.26-1.36a15.21,15.21,0,0,0,6.23-4A16.92,16.92,0,0,0,41.68,32,27.74,27.74,0,0,0,43,24c0-1.07,0-1.22,0-2.48s0-1.41,0-2.48a27.74,27.74,0,0,0-1.28-8A16.82,16.82,0,0,0,38.47,5.4a15.21,15.21,0,0,0-6.23-4C29.79.51,27.14.11,22,0H21c-5.16.11-7.81.51-10.26,1.36a15.21,15.21,0,0,0-6.23,4A16.63,16.63,0,0,0,1.33,11,27.44,27.44,0,0,0,0,19C0,20.09,0,20.24,0,21.5Z"/><path class="cls-2" d="M23.21,15.94l.65-4.51-.68.17c-1.85.45-10,2.78-12.08,9,0,0-2.28,7.66,8.69,6.48l-.61,4.5.56-.14c1.65-.39,10.07-2.7,12.16-9C31.9,22.42,34.18,14.76,23.21,15.94Z"/></svg>