<svg id="레이어_1" data-name="레이어 1" xmlns="http://www.w3.org/2000/svg" viewBox="0 0 43 43"><defs><style>.cls-1{fill:#5d2805;}.cls-2{fill:#fff;}</style></defs><title>한국투자증권</title><path class="cls-1" d="M0,21.5C0,22.76,0,22.91,0,24a28.25,28.25,0,0,0,1.29,8A17,17,0,0,0,4.53,37.6a15.21,15.21,0,0,0,6.23,4c2.45.85,5.1,1.25,10.26,1.36h1c5.16-.11,7.81-.51,10.26-1.36a15.21,15.21,0,0,0,6.23-4A17,17,0,0,0,41.68,32,28.25,28.25,0,0,0,43,24c0-1.07,0-1.22,0-2.48s0-1.41,0-2.48a28.07,28.07,0,0,0-1.29-8A16.82,16.82,0,0,0,38.47,5.4a15.21,15.21,0,0,0-6.23-4C29.79.51,27.14.11,22,0H21c-5.16.11-7.81.51-10.26,1.36a15.21,15.21,0,0,0-6.23,4A16.82,16.82,0,0,0,1.32,11,28.07,28.07,0,0,0,0,19C0,20.09,0,20.24,0,21.5Z"/><path class="cls-2" d="M20.11,23.9c.21,0,.58.18,1.09.73a33.69,33.69,0,0,0,8.07,6.48c.36.19.55.34.55.53s0,.28-.33.28a22.36,22.36,0,0,1-4.52-1c-.83-.39-2.61-1.84-4.75-5.51a2.72,2.72,0,0,1-.5-1.11.38.38,0,0,1,.39-.39"/><path class="cls-2" d="M27.21,13.4s.51,1-4.54,1.74l.91-2.59a1.06,1.06,0,0,0-.92-1.49,1.3,1.3,0,0,0-1.12.91L20,15.41a25.9,25.9,0,0,1-4.09,0c-.92-.08-1.16.42-1.16.94,0,.9,1.6,1.82,2.62,1.72l1.53-.14L13.34,30.69c-.21.48-.38,1.25.57,1.25S17,31.06,17.4,30L19.91,23a34.21,34.21,0,0,1,3.5-.47c.59,0,.9.27.9.58,0,.74-1.76,2.85-5.19,5.45-.37.29-.06.51.13.51.53,0,2.89-1.61,4.05-2.49s3.53-3.49,3.53-5.26c0-.7-.31-1.35-1.71-1.35s-3.76.31-4.28.37c.34-.94.67-1.86,1-2.73,2.65-.37,4.23-.61,5.16-.8,1.28-.27,2.31-1,2.31-1.76,0-1.62-2.07-1.6-2.07-1.6"/></svg>