<svg id="레이어_1" data-name="레이어 1" xmlns="http://www.w3.org/2000/svg" xmlns:xlink="http://www.w3.org/1999/xlink" viewBox="0 0 43 43"><defs><style>.cls-1{fill:none;}.cls-2{fill:#0367b3;}.cls-3{fill:#fff;}.cls-4{fill:#007bc7;}.cls-5{clip-path:url(#clip-path);}.cls-6{fill:#0185cb;}.cls-7{fill:#0387cc;}.cls-8{fill:#0489cd;}.cls-9{fill:#058ace;}.cls-10{fill:#068cce;}.cls-11{fill:#088ecf;}.cls-12{fill:#0990d0;}.cls-13{fill:#0a91d1;}.cls-14{fill:#0c93d2;}.cls-15{fill:#0d95d3;}.cls-16{fill:#0e97d3;}.cls-17{fill:#0f98d4;}.cls-18{fill:#119ad5;}.cls-19{fill:#129cd6;}.cls-20{fill:#139ed7;}.cls-21{fill:#15a0d8;}.cls-22{fill:#16a1d8;}.cls-23{fill:#17a3d9;}.cls-24{fill:#19a5da;}.cls-25{fill:#1aa7db;}.cls-26{fill:#1ba8dc;}.cls-27{fill:#1caadd;}.cls-28{fill:#1eacdd;}.cls-29{fill:#1faede;}.cls-30{fill:#20afdf;}.cls-31{fill:#22b1e0;}.cls-32{fill:#23b3e1;}.cls-33{fill:#24b5e2;}.cls-34{fill:#25b6e2;}.cls-35{fill:#27b8e3;}.cls-36{fill:#28bae4;}.cls-37{fill:#2fbce5;}.cls-38{fill:#36bee6;}.cls-39{fill:#3dc1e7;}.cls-40{fill:#44c3e7;}.cls-41{fill:#4bc5e8;}.cls-42{fill:#52c7e9;}.cls-43{fill:#59caea;}.cls-44{fill:#5fcceb;}.cls-45{fill:#66ceec;}.cls-46{fill:#6dd0ed;}.cls-47{fill:#74d2ee;}.cls-48{fill:#7bd5ee;}.cls-49{fill:#82d7ef;}.cls-50{fill:#89d9f0;}.cls-51{fill:#90dbf1;}.cls-52{fill:#97def2;}.cls-53{fill:#9ee0f3;}.cls-54{fill:#a5e2f4;}.cls-55{fill:#ace4f5;}.cls-56{fill:#b3e7f5;}.cls-57{fill:#bae9f6;}.cls-58{fill:#c1ebf7;}.cls-59{fill:#c8edf8;}.cls-60{fill:#ceeff9;}.cls-61{fill:#d5f2fa;}.cls-62{fill:#dcf4fb;}.cls-63{fill:#e3f6fc;}.cls-64{fill:#eaf8fc;}.cls-65{fill:#f1fbfd;}.cls-66{fill:#f8fdfe;}</style><clipPath id="clip-path"><path class="cls-1" d="M11.09,21.5A10.41,10.41,0,1,0,21.5,11.09,10.4,10.4,0,0,0,11.09,21.5"/></clipPath></defs><title>우리</title><path class="cls-2" d="M0,21.5C0,22.76,0,22.91,0,24a28.13,28.13,0,0,0,1.29,8A16.82,16.82,0,0,0,4.53,37.6a15.21,15.21,0,0,0,6.23,4c2.45.85,5.1,1.25,10.26,1.36h1c5.16-.11,7.81-.51,10.26-1.36a15.21,15.21,0,0,0,6.23-4A16.82,16.82,0,0,0,41.68,32,28.13,28.13,0,0,0,43,24c0-1.07,0-1.22,0-2.48s0-1.41,0-2.48a28.13,28.13,0,0,0-1.29-8A16.82,16.82,0,0,0,38.47,5.4a15.21,15.21,0,0,0-6.23-4C29.79.51,27.14.11,22,0H21c-5.16.11-7.81.51-10.26,1.36a15.21,15.21,0,0,0-6.23,4A16.82,16.82,0,0,0,1.32,11,28.13,28.13,0,0,0,0,19C0,20.09,0,20.24,0,21.5Z"/><path class="cls-3" d="M32.43,21.5A10.93,10.93,0,1,1,21.5,10.58,10.93,10.93,0,0,1,32.43,21.5"/><path class="cls-4" d="M21.5,31.9A10.41,10.41,0,1,0,11.09,21.5,10.41,10.41,0,0,0,21.5,31.9"/><g class="cls-5"><path class="cls-4" d="M21.54,26.52c4.57,0,8.5,1.28,10.18,3.08a10.53,10.53,0,0,0,.87-4.21,10.93,10.93,0,0,0-11.05-10.8,10.93,10.93,0,0,0-11,10.8,10.53,10.53,0,0,0,.87,4.21C13,27.8,17,26.52,21.54,26.52"/><path class="cls-6" d="M21.54,26.53c4.56,0,8.47,1.27,10.15,3.06a10.42,10.42,0,0,0,.87-4.18,10.89,10.89,0,0,0-11-10.73,10.88,10.88,0,0,0-11,10.73,10.39,10.39,0,0,0,.87,4.18c1.67-1.79,5.58-3.06,10.15-3.06"/><path class="cls-7" d="M21.54,26.55c4.55,0,8.45,1.25,10.12,3a10.32,10.32,0,0,0,.87-4.15,10.85,10.85,0,0,0-11-10.66,10.85,10.85,0,0,0-11,10.66,10.28,10.28,0,0,0,.87,4.15c1.67-1.78,5.57-3,10.13-3"/><path class="cls-8" d="M21.53,26.56c4.54,0,8.44,1.24,10.1,3a10.09,10.09,0,0,0,.87-4.11,10.8,10.8,0,0,0-11-10.59,10.8,10.8,0,0,0-11,10.59,10.06,10.06,0,0,0,.87,4.11c1.66-1.76,5.56-3,10.09-3"/><path class="cls-9" d="M21.53,26.57c4.53,0,8.41,1.23,10.08,3a9.94,9.94,0,0,0,.86-4.08A10.76,10.76,0,0,0,21.53,15,10.75,10.75,0,0,0,10.6,25.47a10.07,10.07,0,0,0,.86,4.08c1.66-1.75,5.55-3,10.07-3"/><path class="cls-10" d="M21.53,26.58c4.52,0,8.39,1.22,10,3a9.84,9.84,0,0,0,.86-4.05A10.71,10.71,0,0,0,21.53,15.05a10.71,10.71,0,0,0-10.9,10.44,9.8,9.8,0,0,0,.86,4.05c1.65-1.74,5.53-3,10-3"/><path class="cls-11" d="M21.53,26.59c4.5,0,8.37,1.22,10,2.93a9.61,9.61,0,0,0,.86-4A10.67,10.67,0,0,0,21.53,15.14,10.67,10.67,0,0,0,10.65,25.52a9.77,9.77,0,0,0,.86,4c1.65-1.71,5.52-2.93,10-2.93"/><path class="cls-12" d="M21.53,26.6c4.49,0,8.34,1.21,10,2.91a9.47,9.47,0,0,0,.86-4c0-5.64-4.86-10.31-10.85-10.31S10.68,19.9,10.68,25.54a9.47,9.47,0,0,0,.86,4c1.64-1.7,5.5-2.91,10-2.91"/><path class="cls-13" d="M21.53,26.62c4.48,0,8.32,1.19,10,2.88a9.52,9.52,0,0,0,.85-3.94c0-5.59-4.85-10.23-10.82-10.23S10.71,20,10.71,25.56a9.48,9.48,0,0,0,.85,3.94c1.64-1.69,5.49-2.88,10-2.88"/><path class="cls-14" d="M21.53,26.63c4.46,0,8.3,1.18,9.94,2.85a9.34,9.34,0,0,0,.86-3.9c0-5.54-4.84-10.16-10.8-10.16S10.73,20,10.73,25.58a9.3,9.3,0,0,0,.86,3.9c1.63-1.67,5.47-2.85,9.94-2.85"/><path class="cls-15" d="M21.53,26.64c4.45,0,8.28,1.17,9.91,2.83a9.2,9.2,0,0,0,.85-3.87c0-5.49-4.82-10.09-10.76-10.09S10.76,20.11,10.76,25.6a9.16,9.16,0,0,0,.85,3.87c1.63-1.66,5.46-2.83,9.92-2.83"/><path class="cls-16" d="M21.52,26.65c4.45,0,8.26,1.16,9.89,2.81a9.07,9.07,0,0,0,.86-3.84c0-5.44-4.82-10-10.75-10s-10.73,4.58-10.73,10a9.06,9.06,0,0,0,.85,3.84c1.62-1.65,5.44-2.81,9.88-2.81"/><path class="cls-17" d="M21.52,26.66c4.43,0,8.24,1.15,9.87,2.78a9,9,0,0,0,.85-3.8c0-5.4-4.8-9.94-10.72-9.94s-10.71,4.55-10.71,9.94a9,9,0,0,0,.85,3.8c1.63-1.63,5.43-2.78,9.86-2.78"/><path class="cls-18" d="M21.52,26.67c4.42,0,8.22,1.14,9.84,2.76a8.9,8.9,0,0,0,.85-3.77c0-5.35-4.79-9.87-10.69-9.87s-10.68,4.52-10.68,9.87a8.75,8.75,0,0,0,.85,3.77c1.62-1.62,5.41-2.76,9.83-2.76"/><path class="cls-19" d="M21.52,26.68c4.41,0,8.19,1.13,9.81,2.74a8.62,8.62,0,0,0,.85-3.74c0-5.3-4.78-9.8-10.66-9.8s-10.65,4.5-10.65,9.8a8.75,8.75,0,0,0,.84,3.74c1.62-1.61,5.4-2.74,9.81-2.74"/><path class="cls-20" d="M21.52,26.7c4.39,0,8.17,1.12,9.78,2.71a8.49,8.49,0,0,0,.85-3.71c0-5.25-4.76-9.73-10.63-9.73S10.89,20.45,10.89,25.7a8.62,8.62,0,0,0,.84,3.71c1.62-1.59,5.39-2.71,9.79-2.71"/><path class="cls-21" d="M21.52,26.71c4.38,0,8.15,1.11,9.76,2.68a8.48,8.48,0,0,0,.84-3.67c0-5.2-4.75-9.65-10.6-9.65s-10.6,4.45-10.6,9.65a8.41,8.41,0,0,0,.84,3.67c1.61-1.57,5.37-2.68,9.76-2.68"/><path class="cls-22" d="M21.52,26.72c4.37,0,8.13,1.1,9.73,2.66a8.35,8.35,0,0,0,.84-3.64c0-5.15-4.74-9.58-10.57-9.58S11,20.59,11,25.74a8.45,8.45,0,0,0,.83,3.64c1.61-1.56,5.36-2.66,9.74-2.66"/><path class="cls-23" d="M21.51,26.73c4.36,0,8.11,1.09,9.71,2.63a8.14,8.14,0,0,0,.84-3.6c0-5.11-4.72-9.51-10.55-9.51S11,20.66,11,25.76a8.13,8.13,0,0,0,.83,3.6c1.6-1.54,5.34-2.63,9.7-2.63"/><path class="cls-24" d="M21.51,26.74c4.35,0,8.09,1.08,9.68,2.61A8,8,0,0,0,32,25.78c0-5.06-4.71-9.44-10.52-9.44S11,20.72,11,25.78a8.14,8.14,0,0,0,.83,3.57c1.6-1.53,5.33-2.61,9.68-2.61"/><path class="cls-25" d="M21.51,26.75c4.34,0,8.07,1.07,9.66,2.59A8,8,0,0,0,32,25.8c0-5-4.7-9.37-10.49-9.37S11,20.79,11,25.8a7.88,7.88,0,0,0,.83,3.54c1.59-1.52,5.31-2.59,9.65-2.59"/><path class="cls-26" d="M21.51,26.77c4.32,0,8,1.05,9.63,2.56a7.91,7.91,0,0,0,.83-3.5c0-5-4.69-9.3-10.46-9.3s-10.45,4.33-10.45,9.3a7.9,7.9,0,0,0,.82,3.5c1.59-1.51,5.3-2.56,9.63-2.56"/><path class="cls-27" d="M21.51,26.78c4.31,0,8,1,9.6,2.53a7.71,7.71,0,0,0,.83-3.46c0-4.92-4.67-9.23-10.43-9.23s-10.43,4.31-10.43,9.23a7.71,7.71,0,0,0,.83,3.46c1.58-1.49,5.28-2.53,9.6-2.53"/><path class="cls-28" d="M21.51,26.79c4.3,0,8,1,9.57,2.51a7.65,7.65,0,0,0,.83-3.43c0-4.87-4.66-9.16-10.4-9.16S11.11,21,11.11,25.87a7.57,7.57,0,0,0,.82,3.43c1.58-1.47,5.27-2.51,9.58-2.51"/><path class="cls-29" d="M21.51,26.8c4.28,0,8,1,9.55,2.49a7.51,7.51,0,0,0,.82-3.4c0-4.82-4.65-9.09-10.37-9.09s-10.37,4.27-10.37,9.09a7.48,7.48,0,0,0,.82,3.4c1.57-1.46,5.25-2.49,9.55-2.49"/><path class="cls-30" d="M21.51,26.81c4.27,0,8,1,9.52,2.46a7.32,7.32,0,0,0,.82-3.36c0-4.78-4.63-9-10.34-9s-10.35,4.23-10.35,9A7.44,7.44,0,0,0,12,29.27c1.57-1.44,5.24-2.46,9.53-2.46"/><path class="cls-31" d="M21.5,26.82c4.27,0,7.94,1,9.5,2.44a7.22,7.22,0,0,0,.82-3.33C31.82,21.2,27.2,17,21.5,17S11.19,21.2,11.19,25.93A7.19,7.19,0,0,0,12,29.26c1.56-1.43,5.23-2.44,9.49-2.44"/><path class="cls-32" d="M21.5,26.84c4.25,0,7.91,1,9.47,2.4A7,7,0,0,0,31.79,26c0-4.68-4.61-8.87-10.29-8.87S11.22,21.27,11.22,26A7.12,7.12,0,0,0,12,29.24c1.56-1.41,5.22-2.4,9.47-2.4"/><path class="cls-33" d="M21.5,26.85c4.24,0,7.89,1,9.45,2.38A7,7,0,0,0,31.76,26c0-4.63-4.59-8.8-10.26-8.8S11.24,21.34,11.24,26a6.91,6.91,0,0,0,.82,3.26c1.55-1.4,5.19-2.38,9.44-2.38"/><path class="cls-34" d="M21.5,26.86c4.23,0,7.87,1,9.42,2.36A6.91,6.91,0,0,0,31.73,26c0-4.58-4.58-8.72-10.23-8.72S11.27,21.41,11.27,26a6.91,6.91,0,0,0,.81,3.23c1.55-1.39,5.18-2.36,9.42-2.36"/><path class="cls-35" d="M21.5,26.87c4.21,0,7.85,1,9.39,2.34A6.82,6.82,0,0,0,31.7,26c0-4.53-4.57-8.65-10.2-8.65S11.3,21.48,11.3,26a6.9,6.9,0,0,0,.8,3.2c1.55-1.38,5.18-2.34,9.4-2.34"/><path class="cls-36" d="M21.5,26.88c4.2,0,7.82.95,9.37,2.31a6.77,6.77,0,0,0,.8-3.16c0-4.48-4.55-8.58-10.17-8.58S11.33,21.55,11.33,26a6.62,6.62,0,0,0,.8,3.16c1.54-1.36,5.16-2.31,9.37-2.31"/><path class="cls-37" d="M21.5,26.91c4.19,0,7.81.95,9.35,2.29a6.55,6.55,0,0,0,.81-3.14c0-4.45-4.55-8.53-10.16-8.53s-10.16,4.08-10.16,8.53a6.66,6.66,0,0,0,.8,3.14c1.54-1.34,5.15-2.29,9.36-2.29"/><path class="cls-38" d="M21.5,26.93c4.19,0,7.8.95,9.34,2.29a6.53,6.53,0,0,0,.81-3.12c0-4.43-4.55-8.48-10.15-8.48S11.35,21.67,11.35,26.1a6.53,6.53,0,0,0,.81,3.12c1.53-1.34,5.14-2.29,9.34-2.29"/><path class="cls-39" d="M21.5,27c4.18,0,7.79.94,9.33,2.27a6.56,6.56,0,0,0,.8-3.1c0-4.4-4.54-8.43-10.13-8.43s-10.13,4-10.13,8.43a6.42,6.42,0,0,0,.8,3.1C13.7,27.9,17.3,27,21.5,27"/><path class="cls-40" d="M21.5,27c4.18,0,7.78.93,9.31,2.25a6.38,6.38,0,0,0,.81-3.08c0-4.37-4.54-8.37-10.12-8.37s-10.12,4-10.12,8.37a6.45,6.45,0,0,0,.8,3.08C13.71,27.92,17.31,27,21.5,27"/><path class="cls-41" d="M21.5,27c4.17,0,7.77.93,9.3,2.24a6.26,6.26,0,0,0,.8-3.06c0-4.34-4.52-8.32-10.1-8.32s-10.11,4-10.11,8.32a6.38,6.38,0,0,0,.8,3.06C13.72,27.94,17.32,27,21.5,27"/><path class="cls-42" d="M21.5,27c4.17,0,7.76.92,9.29,2.22a6.3,6.3,0,0,0,.8-3c0-4.31-4.52-8.26-10.09-8.26s-10.09,3.95-10.09,8.26a6.29,6.29,0,0,0,.79,3C13.74,28,17.32,27,21.5,27"/><path class="cls-43" d="M21.5,27.07c4.16,0,7.75.91,9.28,2.2a6.21,6.21,0,0,0,.8-3C31.58,22,27.06,18,21.5,18S11.42,22,11.42,26.26a6.08,6.08,0,0,0,.8,3c1.53-1.29,5.11-2.2,9.28-2.2"/><path class="cls-44" d="M21.5,27.09c4.16,0,7.74.91,9.26,2.19a6.14,6.14,0,0,0,.8-3c0-4.25-4.51-8.16-10.06-8.16S11.43,22,11.43,26.29a6.11,6.11,0,0,0,.8,3c1.53-1.28,5.1-2.19,9.27-2.19"/><path class="cls-45" d="M21.5,27.12c4.15,0,7.73.9,9.25,2.17a6,6,0,0,0,.8-3c0-4.22-4.5-8.11-10-8.11s-10,3.89-10,8.11a6,6,0,0,0,.79,3c1.53-1.27,5.1-2.17,9.26-2.17"/><path class="cls-46" d="M21.5,27.15c4.15,0,7.72.89,9.24,2.16a6,6,0,0,0,.79-3c0-4.19-4.49-8-10-8s-10,3.86-10,8.05a6,6,0,0,0,.79,3c1.53-1.27,5.1-2.16,9.25-2.16"/><path class="cls-47" d="M21.5,27.17c4.14,0,7.71.89,9.22,2.15a5.92,5.92,0,0,0,.8-2.94c0-4.16-4.49-8-10-8s-10,3.84-10,8a5.91,5.91,0,0,0,.79,2.94c1.52-1.26,5.08-2.15,9.23-2.15"/><path class="cls-48" d="M21.5,27.2c4.14,0,7.69.88,9.21,2.13a5.87,5.87,0,0,0,.8-2.91c0-4.14-4.49-8-10-8s-10,3.81-10,8a5.83,5.83,0,0,0,.79,2.91c1.52-1.25,5.08-2.13,9.22-2.13"/><path class="cls-49" d="M21.5,27.22c4.13,0,7.68.88,9.2,2.12a5.76,5.76,0,0,0,.79-2.89c0-4.11-4.48-7.9-10-7.9s-10,3.79-10,7.9a5.76,5.76,0,0,0,.79,2.89c1.52-1.24,5.07-2.12,9.21-2.12"/><path class="cls-50" d="M21.5,27.25c4.13,0,7.67.87,9.19,2.1a5.79,5.79,0,0,0,.79-2.87c0-4.08-4.47-7.84-10-7.84s-10,3.76-10,7.84a5.68,5.68,0,0,0,.79,2.87c1.51-1.23,5.06-2.1,9.19-2.1"/><path class="cls-51" d="M21.5,27.28c4.12,0,7.66.86,9.17,2.08a5.61,5.61,0,0,0,.79-2.85c0-4.05-4.46-7.79-10-7.79s-10,3.75-10,7.79a5.58,5.58,0,0,0,.79,2.85c1.51-1.22,5.05-2.08,9.18-2.08"/><path class="cls-52" d="M21.5,27.3c4.11,0,7.65.86,9.16,2.07a5.54,5.54,0,0,0,.79-2.83c0-4-4.46-7.73-9.95-7.73s-9.95,3.72-9.95,7.73a5.5,5.5,0,0,0,.78,2.83c1.51-1.21,5-2.07,9.17-2.07"/><path class="cls-53" d="M21.5,27.33c4.11,0,7.64.85,9.15,2.06a5.6,5.6,0,0,0,.79-2.81c0-4-4.46-7.69-9.94-7.69s-9.94,3.7-9.94,7.69a5.58,5.58,0,0,0,.78,2.81c1.51-1.21,5.05-2.06,9.16-2.06"/><path class="cls-54" d="M21.5,27.36c4.1,0,7.63.84,9.13,2a5.43,5.43,0,0,0,.79-2.79c0-4-4.45-7.63-9.92-7.63s-9.93,3.67-9.93,7.63a5.43,5.43,0,0,0,.79,2.79c1.5-1.2,5-2,9.14-2"/><path class="cls-55" d="M21.5,27.38c4.1,0,7.62.84,9.12,2a5.36,5.36,0,0,0,.79-2.77c0-3.93-4.44-7.58-9.91-7.58s-9.91,3.65-9.91,7.58a5.32,5.32,0,0,0,.78,2.77c1.5-1.19,5-2,9.13-2"/><path class="cls-56" d="M21.5,27.41c4.09,0,7.61.83,9.11,2a5.37,5.37,0,0,0,.78-2.75c0-3.9-4.43-7.53-9.89-7.53s-9.9,3.63-9.9,7.53a5.34,5.34,0,0,0,.78,2.75c1.5-1.18,5-2,9.12-2"/><path class="cls-57" d="M21.5,27.44c4.09,0,7.6.82,9.1,2a5.3,5.3,0,0,0,.78-2.73c0-3.87-4.43-7.47-9.88-7.47s-9.88,3.6-9.88,7.47a5.26,5.26,0,0,0,.77,2.73c1.5-1.17,5-2,9.11-2"/><path class="cls-58" d="M21.5,27.46c4.08,0,7.59.82,9.08,2a5.21,5.21,0,0,0,.79-2.7c0-3.85-4.43-7.43-9.87-7.43s-9.87,3.58-9.87,7.43a5.1,5.1,0,0,0,.78,2.7c1.49-1.16,5-2,9.09-2"/><path class="cls-59" d="M21.5,27.49c4.08,0,7.58.81,9.07,2a5.13,5.13,0,0,0,.78-2.68c0-3.82-4.41-7.37-9.85-7.37S11.64,23,11.64,26.77a5.13,5.13,0,0,0,.78,2.68c1.49-1.15,5-2,9.08-2"/><path class="cls-60" d="M21.5,27.52c4.07,0,7.57.8,9.06,1.95a5.09,5.09,0,0,0,.78-2.67c0-3.79-4.41-7.32-9.84-7.32S11.66,23,11.66,26.8a5.08,5.08,0,0,0,.77,2.67c1.49-1.15,5-1.95,9.07-1.95"/><path class="cls-61" d="M21.5,27.54c4.07,0,7.56.8,9.05,1.94a5.13,5.13,0,0,0,.77-2.65c0-3.75-4.4-7.26-9.82-7.26s-9.83,3.51-9.83,7.26a5,5,0,0,0,.77,2.65c1.49-1.14,5-1.94,9.06-1.94"/><path class="cls-62" d="M21.5,27.57c4.06,0,7.55.79,9,1.92a5,5,0,0,0,.78-2.62c0-3.73-4.4-7.22-9.81-7.22s-9.82,3.49-9.82,7.22a5,5,0,0,0,.78,2.62c1.49-1.13,5-1.92,9-1.92"/><path class="cls-63" d="M21.5,27.6c4.05,0,7.54.78,9,1.9a4.88,4.88,0,0,0,.78-2.6c0-3.7-4.4-7.16-9.8-7.16s-9.8,3.46-9.8,7.16a4.87,4.87,0,0,0,.77,2.6c1.49-1.12,5-1.9,9-1.9"/><path class="cls-64" d="M21.5,27.62c4.05,0,7.53.78,9,1.89a4.86,4.86,0,0,0,.77-2.58c0-3.67-4.38-7.11-9.78-7.11s-9.79,3.44-9.79,7.11a4.78,4.78,0,0,0,.77,2.58c1.49-1.11,5-1.89,9-1.89"/><path class="cls-65" d="M21.5,27.65c4,0,7.52.77,9,1.87A4.75,4.75,0,0,0,31.27,27c0-3.64-4.38-7-9.77-7S11.73,23.32,11.73,27a4.81,4.81,0,0,0,.76,2.56c1.49-1.1,5-1.87,9-1.87"/><path class="cls-66" d="M21.5,27.67c4,0,7.5.77,9,1.86A4.74,4.74,0,0,0,31.26,27c0-3.61-4.38-7-9.76-7s-9.76,3.4-9.76,7a4.65,4.65,0,0,0,.77,2.54c1.48-1.09,5-1.86,9-1.86"/><path class="cls-3" d="M21.5,27.7c4,0,7.49.76,9,1.84A4.66,4.66,0,0,0,31.24,27c0-3.59-4.37-7-9.74-7s-9.75,3.37-9.75,7a4.57,4.57,0,0,0,.77,2.51c1.48-1.08,4.95-1.84,9-1.84"/></g><path class="cls-2" d="M21.5,24.12A27.58,27.58,0,0,0,12,25.73a10.42,10.42,0,0,0,19,0,27.48,27.48,0,0,0-9.51-1.61"/></svg>